if (_typeface_js && _typeface_js.loadFace) _typeface_js.loadFace({"glyphs":{"ᴴ":{"x_min":68,"x_max":559,"ha":627,"o":"m 559 303 l 469 303 l 469 634 l 158 634 l 158 303 l 68 303 l 68 979 l 158 979 l 158 714 l 469 714 l 469 979 l 559 979 l 559 303 "},"Ҿ":{"x_min":0,"x_max":1101,"ha":1146,"o":"m 1101 405 l 354 405 q 446 183 373 263 q 662 95 528 95 q 1004 193 865 95 l 1015 193 l 1015 44 q 662 -21 874 -21 q 345 101 464 -21 q 214 405 237 213 q 58 449 114 407 q 0 582 0 494 q 16 696 0 637 l 132 696 l 132 689 q 109 595 109 645 q 208 527 109 530 q 329 893 213 760 q 654 1031 450 1031 q 980 893 860 1031 q 1084 662 1058 802 q 1101 405 1101 574 m 961 526 q 889 792 956 690 q 654 915 808 915 q 419 792 499 915 q 348 526 352 690 l 961 526 m 766 0 l 766 -229 l 639 -229 l 639 0 l 766 0 "},"ₑ":{"x_min":54,"x_max":493,"ha":547,"o":"m 493 -10 l 141 -10 q 182 -141 141 -94 q 308 -192 226 -192 q 412 -169 363 -192 q 477 -131 453 -151 l 483 -131 l 483 -223 q 405 -252 457 -234 q 309 -266 356 -266 q 120 -196 186 -266 q 54 -3 54 -127 q 112 186 54 112 q 289 267 176 267 q 436 210 383 267 q 493 36 493 150 l 493 -10 m 410 56 q 342 186 407 158 q 284 196 320 196 q 183 156 222 196 q 141 56 146 118 l 410 56 "},"ȋ":{"x_min":-61,"x_max":386,"ha":317,"o":"m 223 0 l 95 0 l 95 758 l 223 758 l 223 0 m 386 851 l 276 851 q 162 1023 276 1023 q 49 851 49 1023 l -61 851 q -4 1037 -61 968 q 162 1109 54 1109 q 331 1037 271 1109 q 386 851 386 971 "},"ճ":{"x_min":40,"x_max":693,"ha":693,"o":"m 567 939 q 483 923 520 939 q 415 878 446 907 q 357 811 384 849 q 304 726 330 772 q 455 636 392 687 q 558 523 518 585 q 616 386 597 460 q 635 226 635 312 l 635 0 l 507 0 l 507 84 q 450 38 477 58 q 395 5 423 19 q 338 -14 367 -7 q 277 -21 310 -21 q 185 -2 228 -21 q 110 51 142 15 q 58 142 77 88 q 40 269 40 197 q 65 471 40 373 q 131 661 91 570 q 105 670 122 665 q 62 681 88 675 l 62 804 q 92 798 75 801 q 125 790 108 794 q 158 780 142 785 q 188 770 174 775 q 263 888 223 834 q 348 980 303 941 q 447 1040 394 1019 q 562 1062 499 1062 q 630 1058 597 1062 q 693 1047 663 1054 l 693 921 l 686 921 q 665 926 678 923 q 636 932 652 930 q 602 937 620 935 q 567 939 584 939 m 168 272 q 175 204 168 236 q 200 149 183 173 q 244 113 217 126 q 311 100 272 100 q 359 107 334 100 q 411 126 385 114 q 461 155 436 139 q 507 191 485 172 l 507 214 q 495 340 507 281 q 455 449 484 399 q 376 542 426 500 q 248 621 326 585 q 216 534 231 579 q 190 444 201 489 q 173 356 179 400 q 168 272 168 312 "},"ۚ":{"x_min":-141,"x_max":140,"ha":0,"o":"m 140 1060 l 131 1060 q -83 938 -83 1060 q 14 856 -83 856 q 132 887 83 856 l 135 887 l 135 819 q 15 793 83 793 q -96 831 -53 793 q -141 938 -141 870 q -76 1057 -141 1010 q 52 1103 -20 1099 q -86 1124 5 1124 l -107 1124 l -107 1188 l -83 1188 q 120 1116 4 1188 l 140 1116 l 140 1060 m 42 926 l 2 926 l 2 966 l 42 966 l 42 926 "},"׃":{"x_min":165,"x_max":327,"ha":491,"o":"m 327 666 l 165 666 l 165 859 l 327 859 l 327 666 m 327 0 l 165 0 l 165 193 l 327 193 l 327 0 "},"ݡ":{"x_min":62,"x_max":1151,"ha":1209,"o":"m 1151 316 q 1105 157 1151 220 q 981 57 1060 93 q 797 7 904 23 q 559 -8 690 -8 q 185 80 309 -8 q 62 331 62 168 q 67 425 62 385 q 74 471 73 465 l 185 471 l 185 464 q 178 405 181 443 q 175 340 175 368 q 194 253 175 292 q 260 183 213 213 q 385 135 310 151 q 561 120 460 120 q 915 164 797 120 q 1034 304 1034 209 l 1034 312 q 989 295 1021 305 q 928 285 956 285 q 747 345 814 285 q 681 499 681 406 q 747 675 681 597 q 896 754 814 754 q 1081 635 1011 754 q 1151 316 1151 517 m 1025 439 q 1016 489 1025 458 q 991 553 1008 520 q 952 606 974 586 q 904 626 930 626 q 826 586 854 626 q 798 504 798 547 q 834 438 798 464 q 933 413 870 413 q 985 421 959 413 q 1025 439 1010 429 m 839 -286 l 739 -286 l 739 -186 l 839 -186 l 839 -286 m 1039 -286 l 939 -286 l 939 -186 l 1039 -186 l 1039 -286 m 939 -145 l 839 -145 l 839 -45 l 939 -45 l 939 -145 "},"Ƹ":{"x_min":37,"x_max":719,"ha":740,"o":"m 719 -228 q 419 -286 584 -286 q 156 -185 263 -286 q 37 118 37 -73 q 125 394 37 288 q 318 503 203 488 l 318 513 l 37 889 l 37 1010 l 686 1010 l 686 891 l 198 891 l 496 503 l 496 390 l 426 390 q 256 333 321 390 q 177 125 177 263 q 248 -96 177 -17 q 422 -169 313 -169 q 709 -78 572 -169 l 719 -78 l 719 -228 "},"๖":{"x_min":8,"x_max":811,"ha":897,"o":"m 286 599 q 442 629 363 629 q 708 537 605 629 q 811 295 811 445 q 718 73 811 157 q 487 -11 625 -11 q 298 61 374 -11 q 222 228 222 133 q 265 353 222 304 q 373 402 309 402 q 464 364 426 402 q 502 274 502 326 q 467 186 502 223 q 376 145 433 149 q 421 109 387 124 q 487 94 454 94 q 634 149 576 94 q 692 295 692 205 q 623 455 692 395 q 442 515 554 515 q 236 476 328 515 q 8 856 133 723 l 176 856 q 286 599 254 732 m 374 223 q 409 237 394 223 q 425 272 425 252 q 409 309 425 294 q 374 325 394 325 q 338 309 353 325 q 323 272 323 294 q 338 237 323 252 q 374 223 353 223 "},"ˌ":{"x_min":335,"x_max":423,"ha":758,"o":"m 423 -285 l 335 -285 l 335 -30 l 423 -30 l 423 -285 "},"ڣ":{"x_min":62,"x_max":1151,"ha":1209,"o":"m 1151 316 q 1105 157 1151 220 q 981 57 1060 93 q 797 7 904 23 q 559 -8 690 -8 q 185 80 309 -8 q 62 331 62 168 q 67 425 62 385 q 74 471 73 465 l 185 471 l 185 464 q 178 405 181 443 q 175 340 175 368 q 194 253 175 292 q 260 183 213 213 q 385 135 310 151 q 561 120 460 120 q 915 164 797 120 q 1034 304 1034 209 l 1034 312 q 989 295 1021 305 q 928 285 956 285 q 747 345 814 285 q 681 499 681 406 q 747 675 681 597 q 896 754 814 754 q 1081 635 1011 754 q 1151 316 1151 517 m 1025 439 q 1016 489 1025 458 q 991 553 1008 520 q 952 606 974 586 q 904 626 930 626 q 826 586 854 626 q 798 504 798 547 q 834 438 798 464 q 933 413 870 413 q 985 421 959 413 q 1025 439 1010 429 m 856 895 l 756 895 l 756 995 l 856 995 l 856 895 m 628 -216 l 528 -216 l 528 -116 l 628 -116 l 628 -216 "},"˂":{"x_min":136,"x_max":864,"ha":1011,"o":"m 864 54 l 136 401 l 136 483 l 864 831 l 864 709 l 299 442 l 864 175 l 864 54 "},"ط":{"x_min":-47,"x_max":901,"ha":936,"o":"m 901 276 q 874 169 901 219 q 795 81 848 118 q 665 22 743 44 q 480 0 587 0 l -47 0 l -47 128 l 112 128 q 126 134 118 128 q 143 149 134 140 q 160 169 153 160 q 168 187 168 177 l 168 1055 l 281 1055 l 281 323 q 457 486 360 420 q 633 553 553 553 q 823 477 745 553 q 901 276 901 401 m 788 274 q 741 384 788 340 q 631 428 694 428 q 541 396 590 428 q 441 316 492 364 q 352 222 395 274 q 281 128 308 170 l 399 128 q 538 134 457 128 q 663 154 618 140 q 754 198 720 170 q 788 274 788 226 "},"Ԓ":{"x_min":10,"x_max":839,"ha":941,"o":"m 839 0 l 705 0 l 705 891 l 364 891 q 358 741 361 814 q 353 610 355 668 q 335 373 347 467 q 305 217 323 280 q 261 117 286 155 q 208 53 237 79 q 142 11 177 25 q 61 -2 107 -2 q 32 0 47 -2 q 10 0 18 0 l 10 130 l 19 130 q 31 128 26 129 q 45 128 35 128 q 90 135 69 128 q 126 158 111 142 q 193 320 172 203 q 224 633 215 436 q 230 809 227 699 q 237 1010 234 918 l 839 1010 l 839 0 m 705 0 l 839 0 l 839 -21 q 821 -135 839 -86 q 769 -218 803 -185 q 687 -269 735 -252 q 577 -286 639 -286 q 530 -283 556 -286 q 479 -277 504 -281 l 479 -163 l 486 -163 q 519 -169 501 -166 q 553 -173 537 -173 q 626 -163 597 -173 q 673 -133 656 -153 q 697 -85 690 -114 q 705 -16 705 -55 l 705 0 "},"ϼ":{"x_min":-1,"x_max":726,"ha":766,"o":"m 656 662 q 710 538 694 607 q 726 391 726 469 q 706 242 726 316 q 646 112 686 168 q 546 19 604 54 q 404 -15 488 -15 q 311 -5 360 -15 q 213 35 262 3 l 213 -279 l 85 -279 l 85 437 q 171 688 85 597 q 401 779 257 779 q 558 746 496 779 q 656 662 620 714 m 549 190 q 583 277 572 228 q 594 383 594 326 q 586 484 594 431 q 558 577 578 537 q 498 644 536 618 q 400 670 461 670 q 257 605 301 670 q 213 418 213 541 l 213 140 q 297 108 261 116 q 381 100 333 100 q 483 125 440 100 q 549 190 526 150 m 510 -199 l -1 -199 l -1 -94 l 510 -94 l 510 -199 "},"ป":{"x_min":56,"x_max":761,"ha":875,"o":"m 761 0 l 122 0 l 122 121 l 233 121 l 233 530 q 184 522 212 522 q 93 559 131 522 q 56 649 56 597 q 93 741 56 703 q 184 779 131 779 q 313 729 265 779 q 361 597 361 680 l 361 121 l 633 121 l 633 1118 l 761 1118 l 761 0 m 184 600 q 220 614 205 600 q 236 649 236 629 q 221 686 236 671 q 184 702 206 702 q 148 686 163 702 q 134 649 134 671 q 148 614 134 629 q 184 600 163 600 "},"ȡ":{"x_min":40,"x_max":1038,"ha":1044,"o":"m 1038 -99 q 834 -286 1038 -286 q 660 -200 730 -286 q 575 -286 592 -266 l 508 -199 q 594 -111 546 -156 q 548 78 548 -18 q 445 6 516 51 q 321 -21 387 -21 q 118 80 192 -21 q 40 373 40 185 q 105 630 40 525 q 237 751 157 713 q 360 779 295 779 q 548 727 457 779 l 548 1055 l 676 1055 l 676 110 q 700 -25 676 47 q 769 36 762 32 q 863 66 810 66 q 991 23 944 66 q 1038 -99 1038 -19 m 548 184 l 548 621 q 381 662 464 662 q 215 570 268 662 q 172 375 172 496 q 351 100 172 100 q 548 184 450 100 m 927 -99 q 865 -45 927 -45 q 756 -120 830 -45 q 845 -175 795 -175 q 927 -99 927 -175 "},"◦":{"x_min":76,"x_max":416,"ha":492,"o":"m 246 629 q 366 579 316 629 q 416 459 416 529 q 366 338 416 388 q 246 289 316 289 q 125 338 175 289 q 76 459 76 388 q 125 579 76 529 q 246 629 174 629 m 246 577 q 162 542 196 577 q 128 459 128 507 q 162 375 128 409 q 246 341 197 341 q 329 375 294 341 q 364 459 364 409 q 329 542 364 507 q 246 577 295 577 "},"ņ":{"x_min":92,"x_max":688,"ha":775,"o":"m 688 0 l 560 0 l 560 431 q 554 529 560 484 q 535 601 549 574 q 492 644 520 630 q 416 658 464 658 q 318 632 369 658 q 220 566 268 607 l 220 0 l 92 0 l 92 758 l 220 758 l 220 673 q 332 751 276 724 q 449 779 388 779 q 624 705 561 779 q 688 491 688 631 l 688 0 m 235 -286 l 327 -104 l 492 -104 l 328 -286 l 235 -286 "},"ỳ":{"x_min":4,"x_max":688,"ha":692,"o":"m 688 758 l 280 -279 l 143 -279 l 279 37 l 4 758 l 141 758 l 348 196 l 554 758 l 688 758 m 448 883 l 347 883 l 162 1137 l 326 1137 l 448 883 "},"қ":{"x_min":92,"x_max":693,"ha":726,"o":"m 693 -182 l 574 -182 l 574 0 l 541 0 l 282 349 l 220 349 l 220 0 l 92 0 l 92 758 l 220 758 l 220 428 q 363 526 322 429 q 380 565 369 538 q 395 605 383 573 q 615 758 448 758 l 650 758 l 650 648 l 620 648 q 537 623 565 648 q 495 545 513 601 q 393 402 462 441 l 617 110 l 693 110 l 693 -182 "},"ͅ":{"x_min":-70,"x_max":69,"ha":0,"o":"m 69 -283 l -70 -283 l -37 -63 l 36 -63 l 69 -283 "},"ѕ":{"x_min":46,"x_max":594,"ha":620,"o":"m 297 -18 q 155 2 221 -18 q 46 45 89 22 l 46 189 l 52 189 q 91 160 69 175 q 149 127 113 144 q 221 100 182 112 q 302 89 260 89 q 367 96 333 89 q 419 114 402 103 q 453 147 442 129 q 464 200 464 165 q 439 269 464 246 q 351 308 414 293 q 287 322 326 314 q 214 339 247 330 q 88 417 127 364 q 49 544 49 470 q 126 711 49 647 q 331 776 203 776 q 458 760 395 776 q 566 721 522 744 l 566 585 l 559 585 q 450 646 510 623 q 329 669 390 669 q 222 642 265 669 q 179 562 179 615 q 204 491 179 514 q 287 452 230 467 q 351 437 316 445 q 425 421 386 430 q 551 351 509 400 q 594 218 594 302 q 574 126 594 169 q 518 51 555 82 q 426 0 477 17 q 297 -18 374 -18 "},"Ḏ":{"x_min":102,"x_max":899,"ha":942,"o":"m 899 503 q 842 254 899 365 q 692 80 786 143 q 536 16 615 32 q 334 0 457 0 l 102 0 l 102 1010 l 332 1010 q 555 988 474 1010 q 693 929 636 967 q 845 758 791 865 q 899 503 899 651 m 759 506 q 720 704 759 622 q 605 833 681 787 q 490 879 551 865 q 338 894 429 894 l 236 894 l 236 116 l 338 116 q 495 130 428 116 q 618 183 562 144 q 723 309 688 230 q 759 506 759 388 m 689 -240 l 178 -240 l 178 -135 l 689 -135 l 689 -240 "},"ښ":{"x_min":62,"x_max":1610,"ha":1681,"o":"m 1610 302 q 1593 175 1610 233 q 1544 79 1576 118 q 1462 17 1510 38 q 1352 -4 1414 -4 q 1250 14 1300 -4 q 1175 63 1199 32 q 1095 13 1136 31 q 983 -4 1055 -4 q 886 8 932 -4 q 815 40 840 21 q 692 -192 804 -97 q 416 -288 580 -288 q 270 -268 337 -288 q 158 -206 204 -248 q 87 -97 112 -164 q 62 62 62 -30 q 70 196 62 130 q 81 272 79 263 l 204 272 l 204 261 q 185 174 196 236 q 175 61 175 113 q 234 -102 175 -44 q 416 -160 294 -160 q 629 -86 556 -160 q 702 134 702 -12 q 698 269 702 191 q 694 369 695 348 l 815 369 q 856 177 815 230 q 983 124 898 124 q 1095 167 1057 124 q 1133 290 1133 211 l 1133 369 l 1246 369 l 1246 267 q 1276 160 1246 197 q 1354 124 1306 124 q 1463 168 1430 124 q 1497 311 1497 212 l 1497 486 l 1610 486 l 1610 302 m 1021 543 l 921 543 l 921 643 l 1021 643 l 1021 543 m 1021 -216 l 921 -216 l 921 -116 l 1021 -116 l 1021 -216 "},"ŭ":{"x_min":87,"x_max":683,"ha":775,"o":"m 683 0 l 555 0 l 555 84 q 443 5 495 32 q 325 -21 390 -21 q 231 -4 275 -21 q 155 46 188 11 q 104 135 122 82 q 87 266 87 189 l 87 758 l 215 758 l 215 326 q 219 225 215 265 q 239 156 223 186 q 281 113 254 127 q 358 100 308 100 q 458 126 405 100 q 555 191 510 153 l 555 758 l 683 758 l 683 0 m 609 1109 q 594 1003 609 1050 q 554 922 580 955 q 484 868 523 886 q 385 851 446 851 q 288 869 330 851 q 218 922 246 888 q 176 1004 190 956 q 162 1109 162 1051 l 272 1109 q 300 977 272 1017 q 385 937 328 937 q 469 976 439 937 q 499 1109 499 1016 l 609 1109 "},"ﺴ":{"x_min":-47,"x_max":1474,"ha":1474,"o":"m 1226 87 q 1142 17 1191 39 q 1029 -4 1093 -4 q 927 14 977 -4 q 851 63 876 32 q 772 13 813 31 q 659 -4 731 -4 q 519 23 577 -4 q 429 96 460 50 q 336 23 383 46 q 229 0 289 0 l -47 0 l -47 128 l 223 128 q 299 142 269 128 q 345 179 329 156 q 369 233 363 204 q 376 296 376 263 l 376 369 l 489 369 q 528 182 489 241 q 660 124 567 124 q 772 167 734 124 q 810 290 810 211 l 810 369 l 923 369 l 923 267 q 953 161 923 198 q 1031 124 983 124 q 1140 168 1107 124 q 1173 311 1173 213 l 1173 486 l 1286 486 l 1286 289 q 1323 171 1286 215 q 1425 128 1361 128 l 1474 128 l 1474 0 l 1394 0 q 1301 24 1351 0 q 1226 87 1250 49 m 1361 0 l 1361 0 "},"שּׂ":{"x_min":102,"x_max":1092,"ha":1133,"o":"m 1092 859 q 940 386 1039 581 q 698 93 841 190 q 535 22 626 44 q 322 0 444 0 l 102 0 l 102 859 l 221 859 l 221 400 q 317 410 275 401 q 393 448 359 418 q 483 584 445 494 q 555 859 521 673 l 679 859 q 589 532 639 646 q 474 362 539 417 q 353 304 421 318 q 221 291 284 291 l 221 133 l 331 133 q 505 148 436 133 q 628 202 573 164 q 837 455 751 285 q 968 859 923 626 l 1092 859 m 207 966 q 194 933 207 946 q 161 921 181 921 q 128 933 141 921 q 116 966 116 946 q 128 999 116 986 q 161 1012 141 1012 q 194 999 181 1012 q 207 966 207 986 m 707 410 q 694 377 707 390 q 661 365 681 365 q 628 377 641 365 q 616 410 616 390 q 628 443 616 430 q 661 456 641 456 q 694 443 681 456 q 707 410 707 430 "},"ɭ":{"x_min":95,"x_max":455,"ha":317,"o":"m 455 -277 q 356 -286 403 -286 q 162 -216 230 -286 q 95 -21 95 -147 l 95 1055 l 223 1055 l 223 29 q 231 -80 223 -46 q 297 -160 247 -141 q 380 -173 331 -173 q 447 -163 405 -173 l 455 -163 l 455 -277 "},"ﺽ":{"x_min":62,"x_max":1542,"ha":1604,"o":"m 1542 276 q 1506 151 1542 204 q 1415 65 1471 98 q 1286 16 1359 33 q 1137 0 1214 0 l 749 0 q 635 -210 730 -133 q 389 -288 539 -288 q 150 -202 239 -288 q 62 38 62 -116 q 70 194 62 135 q 81 264 78 252 l 204 264 l 204 253 q 185 154 195 220 q 175 37 175 88 q 233 -111 175 -62 q 388 -160 292 -160 q 492 -146 445 -160 q 571 -98 539 -132 q 624 -3 607 -61 q 641 135 641 54 q 637 223 641 193 q 633 264 634 254 l 754 264 l 754 255 q 766 183 754 217 q 796 135 778 149 q 1032 429 897 305 q 1275 553 1167 553 q 1465 474 1389 553 q 1542 276 1542 396 m 1305 154 q 1403 207 1378 176 q 1429 274 1429 237 q 1386 380 1429 332 q 1273 428 1344 428 q 1183 396 1231 428 q 1082 316 1134 364 q 993 222 1036 274 q 922 128 949 170 l 1040 128 q 1179 134 1099 128 q 1305 154 1259 140 m 1205 721 l 1105 721 l 1105 821 l 1205 821 l 1205 721 "},"۰":{"x_min":228,"x_max":574,"ha":794,"o":"m 574 446 l 403 275 l 228 449 l 400 620 l 574 446 "},"︢":{"x_min":-117,"x_max":421,"ha":0,"o":"m 421 949 q 142 1006 234 1006 q 32 967 81 1006 q -22 893 -8 935 l -117 893 q -24 1037 -95 976 q 150 1104 53 1104 q 421 1052 241 1104 l 421 949 "},"ἣ":{"x_min":92,"x_max":688,"ha":775,"o":"m 688 -279 l 560 -279 l 560 432 q 554 529 560 484 q 535 601 549 574 q 492 644 520 630 q 416 658 464 658 q 318 632 369 658 q 220 566 268 607 l 220 0 l 92 0 l 92 758 l 220 758 l 220 673 q 332 751 276 724 q 449 779 388 779 q 624 705 561 779 q 688 492 688 631 l 688 -279 m 581 876 l 494 876 l 366 1137 l 519 1137 l 581 876 m 329 1012 l 264 1012 q 328 913 264 921 l 328 838 q 233 906 269 852 q 199 1018 199 956 l 199 1137 l 329 1137 l 329 1012 "},"ۉ":{"x_min":0,"x_max":515,"ha":579,"o":"m 515 125 q 467 -88 515 0 q 325 -221 420 -176 q 162 -273 239 -259 q 0 -288 85 -288 l 0 -160 q 141 -149 76 -160 q 265 -115 207 -137 q 364 -33 330 -85 q 398 104 398 19 q 355 87 388 98 q 292 77 321 77 q 110 139 175 77 q 46 291 46 201 q 112 470 46 394 q 260 546 179 546 q 444 428 373 546 q 515 125 515 311 m 389 231 q 381 281 389 250 q 356 345 372 313 q 318 396 341 374 q 269 418 295 418 q 192 379 222 418 q 163 296 163 341 q 199 230 163 256 q 298 205 236 205 q 352 214 327 205 q 389 231 378 223 m 375 659 l 274 807 l 174 659 l 101 659 l 241 873 l 307 873 l 448 659 l 375 659 "},"ٙ":{"x_min":-146,"x_max":146,"ha":0,"o":"m 146 884 l -146 868 l -146 918 l 146 934 l 146 884 "},"ﭬ":{"x_min":-47,"x_max":509,"ha":570,"o":"m 431 654 q 487 524 466 602 q 509 345 509 446 q 472 193 509 259 q 378 85 435 126 q 252 21 321 42 q 118 0 184 0 l -47 0 l -47 128 l 119 128 q 214 140 165 128 q 301 176 263 152 q 368 237 345 202 q 392 316 392 273 q 343 297 374 306 q 286 289 312 289 q 179 305 226 289 q 100 354 133 322 q 54 423 69 385 q 39 503 39 461 q 105 679 39 600 q 254 758 172 758 q 350 731 304 758 q 431 654 396 705 m 383 443 q 375 493 383 462 q 350 557 366 524 q 310 610 332 590 q 262 630 288 630 q 187 593 219 630 q 156 508 156 557 q 193 442 156 468 q 291 417 230 417 q 340 424 316 417 q 383 443 364 431 m 171 869 l 71 869 l 71 969 l 171 969 l 171 869 m 371 869 l 271 869 l 271 969 l 371 969 l 371 869 m 271 1010 l 171 1010 l 171 1110 l 271 1110 l 271 1010 "},"ԋ":{"x_min":92,"x_max":1158,"ha":1245,"o":"m 1158 266 q 1075 65 1158 149 q 860 -21 988 -21 q 647 65 735 -21 q 562 264 562 149 l 562 341 l 220 341 l 220 0 l 92 0 l 92 758 l 220 758 l 220 451 l 562 451 l 562 758 l 690 758 l 690 322 q 860 100 690 100 q 998 167 958 100 q 1030 326 1030 220 l 1030 450 l 1158 450 l 1158 266 "},"Ɲ":{"x_min":-132,"x_max":825,"ha":927,"o":"m 825 0 l 674 0 l 227 870 l 227 0 q 162 -217 227 -153 q -33 -286 94 -286 q -132 -277 -80 -286 l -132 -164 l -124 -164 q -58 -173 -85 -173 q 70 -131 38 -173 q 102 0 102 -89 l 102 1010 l 292 1010 l 700 210 l 700 1010 l 825 1010 l 825 0 "},"ﻯ":{"x_min":62,"x_max":1152,"ha":1211,"o":"m 1152 574 l 1145 574 q 1034 625 1097 603 q 893 648 970 648 q 780 620 830 648 q 730 550 730 593 q 802 485 730 514 q 931 436 874 457 q 1004 405 965 423 q 1069 366 1043 386 q 1115 319 1098 345 q 1132 258 1132 294 q 967 65 1132 131 q 479 0 803 0 q 162 72 262 0 q 62 299 62 144 q 68 405 62 352 q 76 471 74 458 l 193 471 l 193 464 q 183 396 191 454 q 175 301 175 339 q 244 167 175 206 q 480 128 313 128 q 885 162 752 128 q 1019 257 1019 196 q 946 316 1019 288 q 818 364 874 343 q 744 397 781 379 q 679 437 707 415 q 634 487 651 459 q 617 551 617 515 q 695 706 617 640 q 895 773 774 773 q 1041 756 977 773 q 1152 718 1105 740 l 1152 574 "},"ﮦ":{"x_min":62,"x_max":591,"ha":654,"o":"m 591 273 q 516 66 591 141 q 320 -8 442 -8 q 136 71 211 -8 q 62 272 62 151 q 101 410 62 352 q 239 528 141 469 l 285 556 l 193 659 l 350 659 l 512 476 q 569 386 548 436 q 591 273 591 336 m 428 156 q 465 203 451 176 q 479 273 479 229 q 441 367 479 312 q 364 468 404 423 l 349 484 l 304 456 q 211 378 247 421 q 175 273 175 335 q 218 166 175 213 q 320 120 262 120 q 378 129 347 120 q 428 156 408 138 "},"ɏ":{"x_min":4,"x_max":688,"ha":692,"o":"m 688 758 l 569 458 l 671 458 l 671 367 l 534 367 l 280 -279 l 143 -279 l 279 37 l 153 367 l 20 367 l 20 458 l 118 458 l 4 758 l 141 758 l 252 458 l 444 458 l 554 758 l 688 758 m 348 196 l 410 367 l 285 367 l 348 196 "},"k":{"x_min":92,"x_max":720,"ha":692,"o":"m 720 0 l 552 0 l 269 365 l 220 316 l 220 0 l 92 0 l 92 1055 l 220 1055 l 220 437 l 519 758 l 678 758 l 366 441 l 720 0 "},"ȇ":{"x_min":40,"x_max":694,"ha":731,"o":"m 421 -17 q 140 85 240 -17 q 40 374 40 187 q 136 669 40 560 q 390 779 233 779 q 515 758 460 779 q 609 694 569 738 q 672 588 650 651 q 694 435 694 526 l 694 366 l 170 366 q 236 163 170 233 q 419 94 302 94 q 502 103 461 94 q 575 128 542 113 q 633 158 609 143 q 672 186 656 173 l 680 186 l 680 46 q 624 24 657 37 q 564 4 591 11 q 497 -11 527 -6 q 421 -17 467 -17 m 570 464 q 557 552 568 515 q 526 615 546 590 q 469 659 504 644 q 383 674 434 674 q 296 658 332 674 q 232 614 261 643 q 188 548 203 584 q 170 464 174 512 l 570 464 m 614 851 l 504 851 q 390 1023 504 1023 q 277 851 277 1023 l 167 851 q 223 1037 167 968 q 390 1109 282 1109 q 559 1037 499 1109 q 614 851 614 971 "},"ί":{"x_min":94,"x_max":309,"ha":317,"o":"m 223 0 l 95 0 l 95 758 l 223 758 l 223 0 m 309 1144 l 181 884 l 94 884 l 156 1144 l 309 1144 "},"Ù":{"x_min":90,"x_max":821,"ha":911,"o":"m 455 -21 q 299 2 366 -21 q 186 71 233 25 q 111 198 133 124 q 90 379 90 272 l 90 1010 l 224 1010 l 224 380 q 232 262 224 310 q 267 176 241 214 q 341 115 294 136 q 455 94 387 94 q 567 115 518 94 q 643 176 616 136 q 677 262 668 215 q 687 376 687 308 l 687 1010 l 821 1010 l 821 379 q 799 199 821 274 q 724 71 778 124 q 612 2 676 25 q 455 -21 548 -21 m 580 1136 l 479 1136 l 294 1390 l 458 1390 l 580 1136 "},"ᵗ":{"x_min":54,"x_max":354,"ha":409,"o":"m 354 307 q 260 293 303 293 q 112 458 112 293 l 112 739 l 54 739 l 54 810 l 112 810 l 112 956 l 197 956 l 197 810 l 354 810 l 354 739 l 197 739 l 197 497 q 209 398 197 423 q 280 367 224 367 q 349 383 313 367 l 354 383 l 354 307 "},"ὓ":{"x_min":87,"x_max":686,"ha":773,"o":"m 686 272 q 608 51 686 124 q 386 -21 530 -21 q 165 50 244 -21 q 87 272 87 122 l 87 758 l 215 758 l 215 315 q 221 213 215 255 q 246 144 227 171 q 298 102 265 115 q 386 89 330 89 q 475 102 440 89 q 527 145 509 116 q 552 219 547 176 q 558 315 558 261 l 558 758 l 686 758 l 686 272 m 574 876 l 487 876 l 359 1137 l 512 1137 l 574 876 m 322 1012 l 257 1012 q 321 913 257 921 l 321 838 q 226 906 262 852 q 192 1018 192 956 l 192 1137 l 322 1137 l 322 1012 "},"Ҷ":{"x_min":63,"x_max":871,"ha":883,"o":"m 871 -229 l 743 -229 l 743 0 l 647 0 l 647 427 q 364 373 481 373 q 149 440 227 373 q 63 662 63 514 l 63 1010 l 197 1010 l 197 729 q 228 557 197 606 q 390 496 269 496 q 647 542 522 496 l 647 1010 l 781 1010 l 781 118 l 871 118 l 871 -229 "},"ﭏ":{"x_min":28,"x_max":860,"ha":948,"o":"m 258 859 l 536 461 q 685 577 642 507 q 729 764 729 646 l 729 859 l 846 859 l 846 764 q 783 522 846 618 q 598 373 721 426 l 860 0 l 706 0 l 371 479 q 268 370 304 437 q 233 194 233 303 l 233 0 l 116 0 l 116 194 q 162 409 116 317 q 308 569 209 500 l 144 803 l 28 803 l 28 1135 l 145 1135 l 145 859 l 258 859 "},"ﮮ":{"x_min":13,"x_max":1270,"ha":1270,"o":"m 1270 -203 l 312 -203 q 87 -164 165 -203 q 13 -61 13 -127 q 82 40 13 0 q 234 95 124 63 q 376 148 339 125 q 529 294 417 174 q 668 387 617 387 q 810 265 725 387 l 810 137 q 741 228 783 181 q 674 281 693 281 q 592 203 660 281 q 454 75 511 111 q 257 0 389 34 q 153 -43 153 -27 q 270 -75 153 -75 l 1270 -75 l 1270 -203 "},"Ẹ":{"x_min":102,"x_max":734,"ha":779,"o":"m 102 0 l 102 1010 l 734 1010 l 734 891 l 236 891 l 236 614 l 700 614 l 700 495 l 236 495 l 236 119 l 734 119 l 734 0 l 102 0 m 492 -259 l 347 -259 l 347 -127 l 492 -127 l 492 -259 "},"≠":{"x_min":130,"x_max":880,"ha":1011,"o":"m 880 246 l 494 246 l 423 19 l 320 19 l 391 246 l 130 246 l 130 351 l 423 351 l 481 534 l 130 534 l 130 639 l 514 639 l 585 866 l 689 866 l 617 639 l 880 639 l 880 534 l 585 534 l 527 351 l 880 351 l 880 246 "},"ƀ":{"x_min":7,"x_max":728,"ha":768,"o":"m 728 391 q 653 113 728 228 q 411 -21 565 -21 q 220 35 313 -21 l 211 0 l 92 0 l 92 860 l 7 860 l 7 952 l 92 952 l 92 1055 l 220 1055 l 220 952 l 424 952 l 424 860 l 220 860 l 220 678 q 451 779 331 779 q 669 652 597 779 q 728 391 728 549 m 596 381 q 421 658 596 658 q 220 571 320 658 l 220 137 q 387 94 308 94 q 596 381 596 94 "},"Ձ":{"x_min":24,"x_max":789,"ha":834,"o":"m 272 -20 q 175 -4 221 -20 q 96 39 130 11 q 43 109 63 68 q 24 201 24 150 q 43 291 24 252 q 98 358 63 331 q 177 399 132 385 q 274 413 223 413 q 351 404 312 413 q 428 382 389 396 q 503 349 466 368 q 574 308 539 330 q 633 473 612 383 q 655 658 655 562 q 642 767 655 719 q 602 847 629 815 q 530 898 574 880 q 423 916 486 916 q 315 898 359 916 q 243 844 271 880 q 204 754 216 808 q 193 630 193 701 l 59 630 q 147 930 59 829 q 423 1031 236 1031 q 584 1006 515 1031 q 698 934 652 981 q 766 818 743 887 q 789 661 789 749 q 757 439 789 547 q 670 238 726 330 q 735 181 706 208 q 783 132 764 153 l 783 -20 q 752 15 770 -5 q 711 57 734 35 q 661 102 688 79 q 606 149 635 126 q 533 79 572 111 q 453 25 495 48 q 365 -8 411 3 q 272 -20 320 -20 m 271 92 q 404 124 343 92 q 512 214 464 157 q 392 274 453 251 q 273 297 332 297 q 226 289 247 297 q 189 269 204 282 q 166 238 174 256 q 158 199 158 220 q 165 158 158 178 q 187 124 172 139 q 222 100 201 109 q 271 92 244 92 "},"ɼ":{"x_min":92,"x_max":494,"ha":501,"o":"m 494 620 l 487 620 q 418 627 466 627 q 220 538 311 627 l 220 -279 l 92 -279 l 92 758 l 220 758 l 220 645 q 442 758 347 758 q 494 753 469 758 l 494 620 "},"ﺢ":{"x_min":54,"x_max":973,"ha":973,"o":"m 973 0 l 905 0 q 747 49 795 0 q 700 213 700 99 l 700 381 q 476 359 576 378 q 309 304 377 340 q 203 210 240 267 q 167 75 167 153 q 244 -97 167 -31 q 444 -163 322 -163 q 610 -141 536 -163 q 739 -85 684 -120 l 746 -85 l 746 -221 q 620 -269 686 -251 q 445 -288 554 -288 q 291 -263 362 -288 q 167 -193 220 -239 q 84 -78 114 -146 q 54 76 54 -10 q 92 227 54 156 q 213 355 130 298 q 368 425 281 401 q 540 455 455 450 q 379 509 457 494 q 190 524 300 524 l 139 524 l 139 649 l 198 649 q 448 605 308 649 q 710 486 588 561 l 825 486 l 825 381 l 787 381 l 787 275 q 790 214 787 237 q 808 168 794 190 q 842 138 821 149 q 902 128 863 128 l 973 128 l 973 0 m 760 486 l 760 486 m 846 0 l 846 0 "},"ᵸ":{"x_min":66,"x_max":544,"ha":610,"o":"m 544 353 l 457 353 l 457 675 l 153 675 l 153 353 l 66 353 l 66 1010 l 153 1010 l 153 752 l 457 752 l 457 1010 l 544 1010 l 544 353 "},"ﻌ":{"x_min":-47,"x_max":671,"ha":671,"o":"m 671 0 l 558 0 q 437 26 493 0 q 335 88 381 52 q 233 26 288 52 q 111 0 178 0 l -47 0 l -47 128 l 114 128 q 188 136 157 128 q 241 158 219 145 q 205 185 232 164 q 141 242 177 206 q 72 321 103 278 q 41 399 41 364 q 71 475 41 443 q 145 527 101 506 q 245 557 193 549 q 335 566 296 566 q 429 557 378 566 q 524 529 479 548 q 600 479 570 509 q 630 401 630 448 q 596 321 630 365 q 528 244 563 276 q 461 185 487 205 q 426 160 435 166 q 474 141 437 154 q 555 128 511 128 l 671 128 l 671 0 m 426 276 q 489 328 462 303 q 517 368 517 352 q 498 403 517 389 q 451 423 479 416 q 389 433 423 431 q 335 436 356 436 q 202 417 251 436 q 154 369 154 399 q 183 326 154 354 q 244 277 213 299 q 303 236 280 251 q 335 216 327 221 q 368 236 343 221 q 426 276 392 252 "},"ﮔ":{"x_min":-47,"x_max":585,"ha":667,"o":"m 585 904 l 205 721 q 156 696 183 711 q 129 670 129 681 q 157 634 129 658 q 212 588 185 610 l 393 440 q 486 336 458 386 q 514 233 514 285 q 498 142 514 186 q 452 68 482 98 q 367 17 417 34 q 251 0 316 0 l -47 0 l -47 128 l 249 128 q 366 158 332 128 q 401 232 401 188 q 372 303 401 263 q 263 410 343 343 l 77 562 q 22 616 45 588 q -1 676 -1 644 q 26 750 -1 718 q 149 828 54 783 l 585 1038 l 585 904 m 559 1105 l 8 840 l 8 908 l 559 1173 l 559 1105 "},"ํ":{"x_min":-280,"x_max":-77,"ha":0,"o":"m -178 1027 q -106 996 -136 1027 q -77 923 -77 966 q -106 852 -77 882 q -178 823 -136 823 q -249 852 -219 823 q -280 923 -280 882 q -250 996 -280 966 q -178 1027 -220 1027 m -178 881 q -147 893 -160 881 q -135 923 -135 906 q -147 954 -135 941 q -178 967 -160 967 q -208 954 -195 967 q -222 923 -222 941 q -208 893 -222 906 q -178 881 -195 881 "},"ϴ":{"x_min":45,"x_max":938,"ha":983,"o":"m 938 504 q 816 117 938 255 q 491 -21 695 -21 q 165 117 285 -21 q 45 504 45 256 q 166 893 45 752 q 491 1031 283 1031 q 816 893 697 1031 q 938 504 938 754 m 792 605 q 715 810 775 732 q 491 915 634 915 q 267 810 348 915 q 191 605 207 734 l 792 605 m 798 484 l 185 484 q 256 217 189 319 q 491 95 337 95 q 726 217 646 95 q 798 484 793 319 "},"ʔ":{"x_min":24,"x_max":601,"ha":641,"o":"m 601 667 q 529 406 601 510 q 318 275 454 298 l 318 0 l 190 0 l 190 380 l 249 380 q 420 470 362 380 q 469 666 469 547 q 421 862 469 788 q 249 951 364 951 q 31 859 129 951 l 24 859 l 24 1002 q 247 1062 152 1062 q 517 948 426 1062 q 601 667 601 844 "},"ᾞ":{"x_min":0,"x_max":1134,"ha":1236,"o":"m 1134 0 l 1000 0 l 1000 495 l 534 495 l 534 0 l 400 0 l 400 1010 l 534 1010 l 534 614 l 1000 614 l 1000 1010 l 1134 1010 l 1134 0 m 542 1364 q 375 1153 528 1153 q 251 1205 307 1153 q 157 1263 191 1263 q 95 1150 101 1263 l 0 1150 q 40 1293 4 1237 q 166 1361 84 1361 q 288 1309 229 1361 q 383 1255 348 1255 q 447 1364 442 1255 l 542 1364 m 341 991 q 306 879 341 929 q 212 811 270 825 l 212 886 q 276 985 276 894 l 211 985 l 211 1110 l 341 1110 l 341 991 m 837 -283 l 698 -283 l 731 -63 l 804 -63 l 837 -283 "},"Ᾰ":{"x_min":-7,"x_max":840,"ha":833,"o":"m -7 0 l 333 1010 l 499 1010 l 840 0 l 698 0 l 607 282 l 220 282 l 129 0 l -7 0 m 569 397 l 413 872 l 258 397 l 569 397 m 640 1362 q 625 1256 640 1303 q 585 1175 611 1208 q 515 1121 554 1139 q 416 1104 477 1104 q 319 1122 361 1104 q 249 1175 277 1141 q 207 1257 221 1209 q 193 1362 193 1304 l 303 1362 q 331 1230 303 1270 q 416 1190 359 1190 q 500 1229 470 1190 q 530 1362 530 1269 l 640 1362 "},"҄":{"x_min":123,"x_max":636,"ha":0,"o":"m 636 905 l 572 905 q 547 975 572 942 q 488 1009 523 1009 q 356 956 443 1008 q 207 905 269 905 l 123 905 l 123 1009 l 207 1009 q 336 1049 255 1009 q 467 1089 416 1089 q 588 1036 541 1089 q 636 905 636 984 "},"ۢ":{"x_min":-175,"x_max":175,"ha":0,"o":"m 175 1013 q 148 943 175 968 q 79 918 121 918 q -12 972 13 918 q -175 807 -62 837 l -175 876 q -75 952 -105 892 q -31 1070 -53 1011 q 59 1138 0 1138 q 141 1102 108 1138 q 175 1013 175 1066 m 123 1010 q 107 1059 123 1038 q 65 1080 91 1080 q 18 1034 18 1080 q 76 974 18 974 q 123 1010 123 974 "},"ݞ":{"x_min":56,"x_max":742,"ha":842,"o":"m 742 -216 q 610 -268 690 -248 q 449 -288 531 -288 q 159 -198 263 -288 q 56 36 56 -109 q 92 179 56 117 q 194 283 129 241 q 134 346 167 298 q 102 449 102 393 q 177 642 102 568 q 373 716 253 716 q 466 708 423 716 q 518 699 510 700 l 518 571 l 511 571 q 454 583 493 575 q 379 591 414 591 q 256 550 299 591 q 214 446 214 510 q 238 375 214 409 q 287 328 262 341 l 611 444 l 611 326 l 324 224 q 207 147 246 197 q 169 37 169 98 q 243 -107 169 -52 q 447 -163 317 -163 q 602 -134 518 -163 q 734 -72 687 -106 l 742 -72 l 742 -216 m 327 957 l 227 957 l 227 1057 l 327 1057 l 327 957 m 527 957 l 427 957 l 427 1057 l 527 1057 l 527 957 m 427 816 l 327 816 l 327 916 l 427 916 l 427 816 "},"Ϋ":{"x_min":-7,"x_max":809,"ha":800,"o":"m 809 1010 l 468 447 l 468 0 l 334 0 l 334 432 l -7 1010 l 141 1010 l 401 564 l 666 1010 l 809 1010 m 609 1137 l 473 1137 l 473 1269 l 609 1269 l 609 1137 m 329 1137 l 193 1137 l 193 1269 l 329 1269 l 329 1137 "},"ː":{"x_min":165,"x_max":327,"ha":491,"o":"m 259 565 l 232 565 l 165 758 l 327 758 l 259 565 m 327 0 l 165 0 l 232 193 l 259 193 l 327 0 "},"ɋ":{"x_min":40,"x_max":910,"ha":770,"o":"m 678 0 l 550 0 l 550 77 q 441 3 495 27 q 323 -21 388 -21 q 116 83 193 -21 q 40 373 40 188 q 65 542 40 466 q 138 673 90 617 q 238 750 179 722 q 361 779 297 779 q 461 765 418 779 q 550 726 503 752 l 553 726 l 553 758 l 678 758 l 678 0 m 550 184 l 550 621 q 464 653 502 644 q 382 662 426 662 q 225 582 278 662 q 172 375 172 503 q 215 170 172 241 q 353 100 259 100 q 454 122 403 100 q 550 184 505 145 m 910 -277 q 811 -286 858 -286 q 617 -216 685 -286 q 550 -21 550 -147 l 550 0 l 678 0 l 678 -10 q 703 -121 678 -80 q 835 -173 734 -173 q 902 -163 860 -173 l 910 -163 l 910 -277 "},"҆":{"x_min":315,"x_max":445,"ha":0,"o":"m 445 1018 q 410 906 445 956 q 316 838 374 852 l 316 913 q 380 1012 380 921 l 315 1012 l 315 1137 l 445 1137 l 445 1018 "},"ö":{"x_min":39,"x_max":715,"ha":754,"o":"m 715 378 q 622 83 715 187 q 377 -21 530 -21 q 129 86 219 -21 q 39 378 39 194 q 132 673 39 568 q 377 779 225 779 q 622 674 530 779 q 715 378 715 569 m 583 378 q 529 597 583 525 q 377 669 476 669 q 224 597 278 669 q 171 378 171 525 q 224 162 171 236 q 377 89 278 89 q 529 161 475 89 q 583 378 583 233 m 585 884 l 449 884 l 449 1016 l 585 1016 l 585 884 m 305 884 l 169 884 l 169 1016 l 305 1016 l 305 884 "},"ẉ":{"x_min":20,"x_max":1011,"ha":1031,"o":"m 1011 758 l 818 0 l 700 0 l 515 584 l 331 0 l 214 0 l 20 758 l 153 758 l 286 171 l 466 758 l 571 758 l 756 171 l 883 758 l 1011 758 m 589 -259 l 444 -259 l 444 -127 l 589 -127 l 589 -259 "},"Ȧ":{"x_min":-7,"x_max":840,"ha":833,"o":"m -7 0 l 333 1010 l 499 1010 l 840 0 l 698 0 l 607 282 l 220 282 l 129 0 l -7 0 m 569 397 l 413 872 l 258 397 l 569 397 m 489 1137 l 344 1137 l 344 1269 l 489 1269 l 489 1137 "},"Ḽ":{"x_min":102,"x_max":688,"ha":691,"o":"m 688 0 l 102 0 l 102 1010 l 236 1010 l 236 119 l 688 119 l 688 0 m 637 -287 l 529 -287 l 403 -113 l 279 -287 l 174 -287 l 328 -30 l 482 -30 l 637 -287 "},"ڂ":{"x_min":54,"x_max":760,"ha":846,"o":"m 760 381 l 739 381 q 499 364 601 381 q 319 309 397 347 q 207 214 247 274 q 167 75 167 155 q 244 -97 167 -31 q 444 -163 322 -163 q 610 -141 536 -163 q 739 -85 684 -120 l 746 -85 l 746 -221 q 620 -269 686 -251 q 445 -288 554 -288 q 163 -188 272 -288 q 54 76 54 -89 q 92 227 54 154 q 213 355 130 299 q 368 425 281 401 q 540 455 455 450 q 379 509 457 494 q 190 524 300 524 l 139 524 l 139 649 l 198 649 q 448 605 308 649 q 710 486 588 561 l 760 486 l 760 381 m 622 901 l 522 901 l 522 1001 l 622 1001 l 622 901 m 622 760 l 522 760 l 522 860 l 622 860 l 622 760 "},"8":{"x_min":50,"x_max":708,"ha":758,"o":"m 550 774 q 504 887 550 842 q 378 933 459 933 q 257 892 304 933 q 210 782 210 851 q 234 697 210 732 q 306 635 258 663 q 370 603 327 624 q 448 571 413 583 q 528 664 507 617 q 550 774 550 712 m 569 268 q 544 367 569 331 q 450 442 520 404 q 388 470 427 455 q 302 505 350 485 q 215 413 245 468 q 186 288 186 358 q 241 137 186 197 q 380 78 296 78 q 517 129 465 78 q 569 268 569 180 m 379 -23 q 241 0 303 -23 q 136 63 180 21 q 72 160 94 104 q 50 278 50 216 q 93 429 50 360 q 220 539 137 498 l 220 543 q 109 638 145 586 q 74 767 74 689 q 160 957 74 881 q 378 1033 246 1033 q 599 960 516 1033 q 683 775 683 888 q 643 641 683 708 q 528 537 603 575 l 528 533 q 662 433 617 492 q 708 281 708 374 q 614 64 708 151 q 379 -23 520 -23 "},"ﻱ":{"x_min":62,"x_max":1152,"ha":1211,"o":"m 1152 574 l 1145 574 q 1034 625 1097 603 q 893 648 970 648 q 780 620 830 648 q 730 550 730 593 q 802 485 730 514 q 931 436 874 457 q 1004 405 965 423 q 1069 366 1043 386 q 1115 319 1098 345 q 1132 258 1132 294 q 967 65 1132 131 q 479 0 803 0 q 162 72 262 0 q 62 299 62 144 q 68 405 62 352 q 76 471 74 458 l 193 471 l 193 464 q 183 396 191 454 q 175 301 175 339 q 244 167 175 206 q 480 128 313 128 q 885 162 752 128 q 1019 257 1019 196 q 946 316 1019 288 q 818 364 874 343 q 744 397 781 379 q 679 437 707 415 q 634 487 651 459 q 617 551 617 515 q 695 706 617 640 q 895 773 774 773 q 1041 756 977 773 q 1152 718 1105 740 l 1152 574 m 465 -197 l 365 -197 l 365 -97 l 465 -97 l 465 -197 m 646 -197 l 546 -197 l 546 -97 l 646 -97 l 646 -197 "},"ѯ":{"x_min":21,"x_max":611,"ha":636,"o":"m 527 1137 l 372 880 l 218 880 l 64 1137 l 171 1137 l 297 963 l 421 1137 l 527 1137 m 611 -279 l 508 -279 q 463 -228 508 -228 q 391 -257 454 -228 q 252 -286 327 -286 q 98 -248 159 -286 q 21 -101 21 -199 q 118 55 21 3 q 284 93 189 93 q 465 219 465 93 q 404 323 465 296 q 278 340 366 340 l 189 340 l 189 450 l 257 450 q 387 462 353 450 q 449 560 449 485 q 293 667 449 667 q 67 596 153 667 l 59 596 l 59 733 q 286 776 182 776 q 481 731 402 776 q 579 570 579 676 q 544 462 579 509 q 450 401 509 416 l 450 396 q 595 210 595 346 q 497 33 595 94 q 295 -17 416 -17 q 201 -32 241 -17 q 151 -90 151 -52 q 186 -158 151 -135 q 252 -176 213 -176 q 374 -146 308 -176 q 470 -117 440 -117 q 569 -160 530 -117 q 611 -279 611 -206 "},"ƿ":{"x_min":92,"x_max":728,"ha":768,"o":"m 728 446 q 515 17 728 217 q 220 -194 429 -63 l 220 -279 l 92 -279 l 92 758 l 220 758 l 220 678 q 451 779 331 779 q 728 446 728 779 m 596 432 q 564 590 596 539 q 420 658 524 658 q 220 571 322 658 l 220 -76 q 442 96 377 29 q 596 432 596 253 "},"ﺅ":{"x_min":0,"x_max":515,"ha":579,"o":"m 515 125 q 467 -88 515 0 q 325 -221 420 -176 q 162 -273 239 -259 q 0 -288 85 -288 l 0 -160 q 141 -149 76 -160 q 265 -115 207 -137 q 364 -33 330 -85 q 398 104 398 19 q 355 87 388 98 q 292 77 321 77 q 110 139 175 77 q 46 291 46 201 q 112 470 46 394 q 260 546 179 546 q 444 428 373 546 q 515 125 515 311 m 389 231 q 381 281 389 250 q 356 345 372 313 q 318 396 341 374 q 269 418 295 418 q 192 379 222 418 q 163 296 163 341 q 199 230 163 256 q 298 205 236 205 q 352 214 327 205 q 389 231 378 223 m 373 659 l 145 659 l 145 723 l 195 723 q 168 751 179 731 q 158 791 158 770 q 189 867 158 835 q 275 900 221 900 q 328 895 311 900 q 353 889 346 891 l 353 820 l 348 820 q 316 830 339 824 q 277 836 294 836 q 232 823 247 836 q 218 791 218 811 q 249 742 218 761 q 322 723 280 723 l 373 723 l 373 659 "},"ญ":{"x_min":83,"x_max":1043,"ha":1156,"o":"m 83 450 q 162 688 83 598 q 388 779 241 779 q 622 698 549 779 q 696 437 696 617 l 696 121 l 914 121 l 914 758 l 1042 758 l 1042 0 l 568 0 l 568 437 q 523 608 568 559 q 388 658 479 658 q 216 542 245 658 l 346 542 l 346 452 q 225 252 225 406 l 225 237 q 273 246 246 246 q 364 208 326 246 q 403 118 403 171 q 364 27 403 65 q 273 -11 326 -11 q 145 37 193 -11 q 97 170 97 86 l 97 229 q 216 446 97 406 l 83 446 l 83 450 m 273 66 q 309 81 294 66 q 325 118 325 96 q 309 154 325 139 q 273 169 294 169 q 237 154 252 169 q 222 118 222 139 q 237 81 222 96 q 273 66 252 66 m 1043 -46 q 947 -227 1029 -166 q 740 -288 866 -288 q 610 -247 658 -288 q 563 -147 563 -207 q 593 -69 563 -100 q 670 -39 623 -39 q 745 -70 714 -39 q 777 -147 777 -101 q 756 -222 777 -190 q 955 -46 933 -211 l 1043 -46 m 670 -190 q 699 -178 687 -190 q 712 -147 712 -166 q 699 -117 712 -129 q 670 -106 686 -106 q 640 -117 651 -106 q 629 -147 629 -128 q 640 -178 629 -167 q 670 -190 652 -190 "},"ħ":{"x_min":8,"x_max":716,"ha":803,"o":"m 716 0 l 588 0 l 588 431 q 583 529 588 484 q 563 601 578 574 q 520 644 548 630 q 444 658 492 658 q 346 632 397 658 q 248 566 296 607 l 248 0 l 120 0 l 120 859 l 8 859 l 8 951 l 120 951 l 120 1055 l 247 1055 l 248 951 l 453 951 l 453 859 l 248 859 l 248 673 q 360 751 304 724 q 477 779 416 779 q 652 705 589 779 q 716 491 716 631 l 716 0 "},"ᶜ":{"x_min":54,"x_max":457,"ha":496,"o":"m 304 289 q 119 357 184 289 q 54 555 54 426 q 119 750 54 679 q 304 822 185 822 q 390 810 350 822 q 457 782 429 798 l 457 687 l 451 687 q 377 733 413 718 q 294 748 342 748 q 178 697 218 748 q 138 555 138 646 q 176 413 138 463 q 294 363 214 363 q 380 380 343 363 q 451 425 417 397 l 457 425 l 457 328 q 391 302 435 315 q 304 289 347 289 "},"ﻝ":{"x_min":62,"x_max":816,"ha":899,"o":"m 816 298 q 708 73 816 154 q 407 -8 600 -8 q 140 60 218 -8 q 62 291 62 128 q 68 401 62 344 q 76 463 75 457 l 193 463 l 193 456 q 183 388 191 446 q 175 293 175 330 q 184 210 175 241 q 216 159 193 178 q 286 129 240 138 q 408 120 332 120 q 541 136 485 120 q 633 178 597 152 q 686 239 669 206 q 703 307 703 271 l 703 1055 l 816 1055 l 816 298 "},"ἵ":{"x_min":-7,"x_max":375,"ha":317,"o":"m 223 0 l 95 0 l 95 758 l 223 758 l 223 0 m 375 1137 l 247 876 l 160 876 l 222 1137 l 375 1137 m 123 1012 l 58 1012 q 122 913 58 921 l 122 838 q 27 906 63 852 q -7 1018 -7 956 l -7 1137 l 123 1137 l 123 1012 "},"˙":{"x_min":307,"x_max":452,"ha":758,"o":"m 452 884 l 307 884 l 307 1016 l 452 1016 l 452 884 "},"„":{"x_min":-5,"x_max":530,"ha":552,"o":"m 530 192 l 352 -187 l 262 -187 l 368 192 l 530 192 m 263 192 l 85 -187 l -5 -187 l 101 192 l 263 192 "},"ӷ":{"x_min":92,"x_max":573,"ha":576,"o":"m 220 118 l 348 118 l 348 -229 l 220 -229 l 220 0 l 92 0 l 92 758 l 573 758 l 573 647 l 220 647 l 220 118 "},"δ":{"x_min":39,"x_max":715,"ha":754,"o":"m 715 372 q 623 81 715 184 q 377 -21 531 -21 q 129 81 220 -21 q 39 362 39 183 q 63 516 39 448 q 131 634 87 585 q 232 711 174 682 q 353 750 291 739 q 234 847 290 804 q 122 933 179 891 l 122 1055 l 648 1055 l 648 948 l 287 948 l 287 941 q 400 857 329 910 q 539 741 472 804 q 678 563 641 646 q 715 372 715 480 m 583 373 q 547 547 583 470 q 439 677 511 625 q 349 655 395 672 q 262 603 304 639 q 196 509 221 568 q 171 366 171 450 q 224 159 171 230 q 377 89 278 89 q 529 160 475 89 q 583 373 583 231 "},"ﯝ":{"x_min":-42,"x_max":599,"ha":579,"o":"m 515 125 q 467 -88 515 0 q 325 -221 420 -176 q 162 -273 239 -259 q 0 -288 85 -288 l 0 -160 q 141 -149 76 -160 q 265 -115 207 -137 q 364 -33 330 -85 q 398 104 398 19 q 355 87 388 98 q 292 77 321 77 q 110 139 175 77 q 46 291 46 201 q 112 470 46 394 q 260 546 179 546 q 444 428 373 546 q 515 125 515 311 m 389 231 q 381 281 389 250 q 356 345 372 313 q 318 396 341 374 q 269 418 295 418 q 192 379 222 418 q 163 296 163 341 q 199 230 163 256 q 298 205 236 205 q 352 214 327 205 q 389 231 378 223 m 599 659 l 371 659 l 371 723 l 421 723 q 394 751 405 731 q 384 791 384 770 q 415 867 384 835 q 501 900 447 900 q 554 895 537 900 q 579 889 572 891 l 579 820 l 574 820 q 542 830 565 824 q 503 836 520 836 q 458 823 473 836 q 444 791 444 811 q 475 742 444 761 q 548 723 506 723 l 599 723 l 599 659 m 294 642 l 208 660 q 85 607 146 625 q -42 585 25 589 l -42 645 q 53 657 8 648 q 142 687 98 667 q 81 726 107 698 q 55 793 55 754 q 86 869 55 839 q 171 900 118 900 q 252 869 218 900 q 287 790 287 838 q 274 742 287 767 q 251 708 262 717 l 294 700 l 294 642 m 193 725 q 217 752 208 737 q 226 791 226 768 q 209 823 226 811 q 174 836 193 836 q 134 824 150 836 q 119 791 119 813 q 138 751 119 768 q 193 725 157 734 "},"٢":{"x_min":45,"x_max":723,"ha":794,"o":"m 723 785 q 595 733 667 751 q 433 716 523 716 q 347 725 389 716 q 285 740 305 734 l 354 620 q 418 469 398 543 q 439 290 439 395 l 439 0 l 326 0 l 326 290 q 300 461 326 390 q 228 612 274 531 l 45 933 l 161 933 q 268 874 192 907 q 431 841 345 841 q 601 869 528 841 q 716 930 673 898 l 723 930 l 723 785 "},"מּ":{"x_min":58,"x_max":853,"ha":951,"o":"m 259 750 q 377 846 307 813 q 534 880 447 880 q 673 856 615 880 q 772 782 731 833 q 832 652 812 732 q 853 461 853 572 l 853 0 l 410 0 l 410 133 l 736 133 l 736 464 q 719 596 736 542 q 675 683 703 649 q 608 732 646 717 q 523 747 570 747 q 433 730 477 747 q 349 667 388 713 q 296 573 317 628 q 261 449 275 518 l 177 0 l 58 0 l 159 507 q 171 557 165 535 q 185 605 177 580 l 58 859 l 205 859 l 259 750 m 548 444 q 535 411 548 424 q 502 399 522 399 q 469 411 482 399 q 457 444 457 424 q 469 477 457 464 q 502 490 482 490 q 535 477 522 490 q 548 444 548 464 "},"ᵪ":{"x_min":0,"x_max":467,"ha":467,"o":"m 467 -282 l 370 -282 l 232 -20 l 91 -282 l 0 -282 l 186 66 l 4 413 l 100 413 l 235 156 l 373 413 l 465 413 l 281 70 l 467 -282 "},"ᶪ":{"x_min":-3,"x_max":238,"ha":217,"o":"m 238 288 q 191 156 238 201 q 63 111 144 111 q 31 112 49 111 q -3 116 13 113 l -3 192 l 1 192 q 24 188 11 190 q 47 186 36 186 q 103 194 81 186 q 136 220 125 203 q 149 259 146 237 q 153 296 153 281 l 153 303 l 68 303 l 68 1011 l 153 1011 l 153 361 l 238 361 l 238 288 "},"˞":{"x_min":-15.59375,"x_max":394,"ha":463,"o":"m 394 281 q 245 243 313 243 q 143 280 179 243 q 90 429 106 318 l 0 411 l -15 502 l 174 540 l 189 450 q 208 381 198 399 q 257 353 224 353 q 273 354 265 353 q 368 394 328 363 l 374 394 l 394 281 "},"ǥ":{"x_min":34,"x_max":735,"ha":768,"o":"m 735 -81 l 654 -81 q 334 -286 593 -286 q 113 -253 222 -286 l 113 -121 l 119 -121 q 214 -151 166 -140 q 344 -171 292 -171 q 508 -113 461 -171 q 529 -81 520 -98 l 34 -81 l 34 0 l 546 0 q 548 33 548 17 l 548 100 q 322 13 446 13 q 101 131 174 13 q 40 386 40 229 q 137 677 40 565 q 359 779 227 779 q 548 725 457 779 l 555 758 l 676 758 l 676 86 q 671 0 676 40 l 735 0 l 735 -81 m 548 205 l 548 621 q 379 664 459 664 q 216 577 270 664 q 172 388 172 505 q 351 131 172 131 q 548 205 459 131 "},"⅍":{"x_min":9,"x_max":994,"ha":1029,"o":"m 290 712 l 231 903 l 174 712 l 290 712 m 808 -13 q 707 -1 751 -13 q 633 29 663 10 l 633 133 l 649 133 q 685 106 666 118 q 724 85 704 94 q 765 73 745 77 q 803 69 785 69 q 875 88 851 69 q 900 138 900 107 q 887 177 900 162 q 848 201 875 193 q 804 212 828 207 q 757 224 781 217 q 712 242 734 231 q 674 269 690 252 q 647 310 657 286 q 637 368 637 334 q 650 428 637 400 q 687 477 663 456 q 744 510 711 498 q 815 522 776 522 q 898 512 858 522 q 975 486 939 503 l 975 385 l 958 385 q 929 406 945 396 q 895 423 913 416 q 857 434 877 430 q 819 439 837 439 q 755 421 779 439 q 731 375 731 404 q 737 343 731 355 q 757 323 744 331 q 790 310 771 315 q 835 298 810 305 q 907 276 877 289 q 956 246 937 264 q 984 204 975 228 q 994 148 994 180 q 982 86 994 115 q 946 35 970 57 q 888 0 923 13 q 808 -13 853 -13 m 9 492 l 182 1009 l 283 1009 l 458 492 l 361 492 l 315 629 l 147 629 l 103 492 l 9 492 m 871 1010 l 341 0 l 230 0 l 759 1010 l 871 1010 "},"р":{"x_min":92,"x_max":728,"ha":768,"o":"m 728 398 q 637 97 728 209 q 408 -15 546 -15 q 308 -2 352 -15 q 220 37 265 10 l 220 -279 l 92 -279 l 92 758 l 220 758 l 220 678 q 325 750 267 721 q 451 779 383 779 q 655 675 582 779 q 728 398 728 572 m 596 385 q 554 586 596 514 q 420 658 513 658 q 315 633 366 658 q 220 571 265 609 l 220 142 q 305 108 270 117 q 387 100 341 100 q 541 172 486 100 q 596 385 596 245 "},"Ö":{"x_min":45,"x_max":938,"ha":983,"o":"m 816 893 q 906 729 874 827 q 938 504 938 630 q 906 282 938 381 q 816 116 875 183 q 672 12 754 46 q 491 -21 590 -21 q 306 13 388 -21 q 165 116 224 48 q 76 282 107 183 q 45 504 45 380 q 76 728 45 632 q 166 893 108 824 q 307 996 224 961 q 491 1031 389 1031 q 676 995 594 1031 q 816 893 759 959 m 798 504 q 776 682 798 605 q 715 810 754 759 q 618 888 675 862 q 491 915 562 915 q 364 889 418 915 q 267 810 309 864 q 206 681 227 759 q 185 504 185 603 q 268 200 185 305 q 491 95 351 95 q 715 200 632 95 q 798 504 798 305 m 698 1137 l 562 1137 l 562 1269 l 698 1269 l 698 1137 m 418 1137 l 282 1137 l 282 1269 l 418 1269 l 418 1137 "},"֞":{"x_min":-231,"x_max":231,"ha":0,"o":"m 231 1124 q 108 1084 155 1124 q 60 967 60 1043 q 62 921 60 933 l 2 921 q 0 948 0 937 q 231 1185 0 1185 l 231 1124 m 0 1124 q -122 1084 -76 1124 q -171 967 -171 1043 q -168 921 -171 933 l -228 921 q -231 948 -231 937 q 0 1185 -231 1185 l 0 1124 "},"؂":{"x_min":47,"x_max":1611,"ha":1658,"o":"m 1611 -288 l 389 -288 q 47 -47 47 -288 q 116 105 47 49 q 261 154 177 154 q 471 60 384 154 q 583 -160 549 -22 l 1611 -160 l 1611 -288 m 469 -156 q 393 -30 447 -81 q 261 26 333 26 q 160 -54 160 26 q 278 -143 160 -117 q 469 -156 338 -156 "},"Θ":{"x_min":45,"x_max":938,"ha":983,"o":"m 816 893 q 906 729 874 827 q 938 504 938 630 q 906 282 938 381 q 816 116 875 183 q 672 12 754 46 q 491 -21 590 -21 q 306 13 388 -21 q 165 116 224 48 q 76 282 107 183 q 45 504 45 380 q 76 728 45 632 q 166 893 108 824 q 307 996 224 961 q 491 1031 389 1031 q 676 995 594 1031 q 816 893 759 959 m 798 504 q 776 682 798 605 q 715 810 754 759 q 618 888 675 862 q 491 915 562 915 q 364 889 418 915 q 267 810 309 864 q 206 681 227 759 q 185 504 185 603 q 268 200 185 305 q 491 95 351 95 q 715 200 632 95 q 798 504 798 305 m 690 484 l 293 484 l 293 605 l 690 605 l 690 484 "},"Ř":{"x_min":102,"x_max":884,"ha":862,"o":"m 884 0 l 709 0 l 389 402 l 236 402 l 236 0 l 102 0 l 102 1010 l 362 1010 q 507 1000 449 1010 q 619 956 566 991 q 703 869 672 922 q 734 736 734 815 q 677 550 734 625 q 524 439 621 475 l 884 0 m 594 725 q 578 803 594 769 q 530 859 562 837 q 463 886 501 878 q 369 894 425 894 l 236 894 l 236 514 l 354 514 q 458 524 411 514 q 536 566 504 534 q 580 633 566 594 q 594 725 594 672 m 643 1390 l 488 1133 l 334 1133 l 180 1390 l 287 1390 l 413 1216 l 537 1390 l 643 1390 "},"ﭰ":{"x_min":-47,"x_max":509,"ha":570,"o":"m 431 654 q 487 524 466 602 q 509 345 509 446 q 472 193 509 259 q 378 85 435 126 q 252 21 321 42 q 118 0 184 0 l -47 0 l -47 128 l 119 128 q 214 140 165 128 q 301 176 263 152 q 368 237 345 202 q 392 316 392 273 q 343 297 374 306 q 286 289 312 289 q 179 305 226 289 q 100 354 133 322 q 54 423 69 385 q 39 503 39 461 q 105 679 39 600 q 254 758 172 758 q 350 731 304 758 q 431 654 396 705 m 383 443 q 375 493 383 462 q 350 557 366 524 q 310 610 332 590 q 262 630 288 630 q 187 593 219 630 q 156 508 156 557 q 193 442 156 468 q 291 417 230 417 q 340 424 316 417 q 383 443 364 431 m 351 1010 l 251 1010 l 251 1110 l 351 1110 l 351 1010 m 351 869 l 251 869 l 251 969 l 351 969 l 351 869 m 170 1010 l 70 1010 l 70 1110 l 170 1110 l 170 1010 m 170 869 l 70 869 l 70 969 l 170 969 l 170 869 "},"ϙ":{"x_min":39,"x_max":715,"ha":754,"o":"m 715 378 q 623 83 715 187 q 440 -16 550 0 l 440 -279 l 312 -279 l 312 -16 q 129 86 200 2 q 39 378 39 194 q 120 659 39 551 q 377 779 211 779 q 635 659 545 779 q 715 378 715 552 m 583 378 q 377 669 583 669 q 171 378 171 669 q 377 88 171 88 q 583 378 583 88 "},"͂":{"x_min":-271,"x_max":271,"ha":0,"o":"m 271 1106 q 220 947 264 1000 q 104 895 176 895 q 39 907 68 895 q -19 947 9 920 q -70 990 -49 975 q -113 1005 -92 1004 q -160 974 -146 1005 q -176 892 -173 943 l -271 892 q -219 1049 -266 996 q -104 1103 -172 1103 q -41 1089 -70 1103 q 17 1050 -11 1076 q 69 1010 46 1024 q 112 997 93 997 q 159 1027 144 997 q 176 1106 173 1057 l 271 1106 "},"ᾝ":{"x_min":-1,"x_max":1113,"ha":1215,"o":"m 1113 0 l 979 0 l 979 495 l 513 495 l 513 0 l 379 0 l 379 1010 l 513 1010 l 513 614 l 979 614 l 979 1010 l 1113 1010 l 1113 0 m 381 1137 l 253 876 l 166 876 l 228 1137 l 381 1137 m 129 1012 l 64 1012 q 128 913 64 921 l 128 838 q 33 906 69 852 q -1 1018 -1 956 l -1 1137 l 129 1137 l 129 1012 m 816 -283 l 677 -283 l 710 -63 l 783 -63 l 816 -283 "},"ṅ":{"x_min":92,"x_max":688,"ha":775,"o":"m 688 0 l 560 0 l 560 431 q 554 529 560 484 q 535 601 549 574 q 492 644 520 630 q 416 658 464 658 q 318 632 369 658 q 220 566 268 607 l 220 0 l 92 0 l 92 758 l 220 758 l 220 673 q 332 751 276 724 q 449 779 388 779 q 624 705 561 779 q 688 491 688 631 l 688 0 m 507 884 l 362 884 l 362 1016 l 507 1016 l 507 884 "},"ᶼ":{"x_min":41,"x_max":570,"ha":451,"o":"m 570 116 q 503 111 535 111 q 374 157 419 111 q 329 289 329 204 l 329 303 l 41 303 l 41 365 l 306 740 l 52 740 l 52 810 l 409 810 l 409 749 l 142 374 l 414 374 l 414 302 q 429 217 414 240 q 519 186 451 186 q 564 192 536 186 l 570 192 l 570 116 "},"и":{"x_min":92,"x_max":691,"ha":783,"o":"m 691 0 l 565 0 l 565 565 l 207 0 l 92 0 l 92 758 l 218 758 l 218 201 l 571 758 l 691 758 l 691 0 "},"א":{"x_min":92,"x_max":847,"ha":935,"o":"m 244 859 l 523 461 q 672 577 629 507 q 716 764 716 646 l 716 859 l 833 859 l 833 764 q 770 522 833 618 q 584 373 708 426 l 847 0 l 694 0 l 358 479 q 255 370 291 437 q 219 194 219 303 l 219 0 l 102 0 l 102 194 q 148 409 102 317 q 295 569 195 500 l 92 859 l 244 859 "},"³":{"x_min":125,"x_max":568,"ha":685,"o":"m 568 561 q 547 475 568 513 q 494 414 527 437 q 417 378 458 389 q 321 368 375 368 q 217 378 266 368 q 125 407 169 388 l 125 526 l 136 526 q 213 482 161 502 q 319 462 265 462 q 413 486 376 462 q 451 560 451 511 q 421 633 451 609 q 321 657 392 657 l 227 657 l 227 751 l 311 751 q 402 776 370 751 q 435 847 435 802 q 407 912 435 888 q 320 937 379 937 q 223 915 275 937 q 146 871 171 894 l 135 871 l 135 989 q 229 1019 178 1007 q 333 1031 280 1031 q 494 983 436 1031 q 552 869 552 935 q 519 771 552 810 q 434 715 486 733 l 434 710 q 528 662 488 699 q 568 561 568 625 "},"Ṧ":{"x_min":53,"x_max":739,"ha":774,"o":"m 384 -18 q 197 4 274 -18 q 53 60 120 27 l 53 229 l 62 229 q 212 132 128 166 q 374 98 296 98 q 542 144 485 98 q 599 266 599 190 q 569 365 599 327 q 474 421 539 402 q 389 443 427 434 q 292 467 350 452 q 198 501 240 480 q 125 556 157 522 q 77 635 94 590 q 60 739 60 680 q 155 944 60 861 q 399 1028 251 1028 q 560 1011 484 1028 q 700 962 635 994 l 700 802 l 689 802 q 566 879 641 846 q 408 912 491 912 q 257 868 315 912 q 200 753 200 824 q 233 651 200 689 q 331 595 267 613 q 436 569 374 583 q 538 542 497 554 q 690 446 642 510 q 739 287 739 381 q 714 171 739 228 q 647 73 690 113 q 537 5 598 29 q 384 -18 476 -18 m 478 1271 l 333 1271 l 333 1390 l 478 1390 l 478 1271 m 638 1216 l 469 1099 l 342 1099 l 174 1216 l 286 1216 l 404 1155 l 523 1216 l 638 1216 "},"Ӿ":{"x_min":5,"x_max":800,"ha":806,"o":"m 800 0 l 646 0 l 400 404 l 150 0 l 5 0 l 286 443 l 34 443 l 34 546 l 301 546 l 15 1010 l 168 1010 l 409 613 l 654 1010 l 800 1010 l 503 546 l 792 546 l 792 443 l 525 443 l 800 0 "},"ن":{"x_min":62,"x_max":858,"ha":920,"o":"m 858 359 q 826 191 858 261 q 740 76 794 121 q 616 11 687 33 q 461 -10 546 -10 q 307 11 380 -10 q 180 76 234 32 q 93 192 125 122 q 62 359 62 262 q 70 494 62 428 q 81 570 79 561 l 204 570 l 204 558 q 185 470 195 532 q 175 358 175 409 q 259 183 175 249 q 458 118 343 118 q 659 182 574 118 q 745 358 745 247 q 734 470 745 409 q 716 558 724 532 l 716 570 l 839 570 q 849 494 840 561 q 858 359 858 428 m 511 663 l 411 663 l 411 763 l 511 763 l 511 663 "},"͘":{"x_min":307,"x_max":452,"ha":0,"o":"m 452 884 l 307 884 l 307 1016 l 452 1016 l 452 884 "},"˱":{"x_min":282,"x_max":472,"ha":758,"o":"m 472 -285 l 282 -162 l 282 -126 l 472 -4 l 472 -81 l 357 -144 l 472 -208 l 472 -285 "},"ᶣ":{"x_min":68,"x_max":466,"ha":534,"o":"m 466 115 l 381 115 l 381 359 q 227 289 301 289 q 103 345 145 289 q 68 481 68 396 l 68 810 l 153 810 l 153 521 q 169 407 153 438 q 249 370 189 370 q 381 431 308 370 l 381 810 l 466 810 l 466 115 "},"˨":{"x_min":102,"x_max":430,"ha":532,"o":"m 430 0 l 324 0 l 324 222 l 102 222 l 102 328 l 324 328 l 324 994 l 430 994 l 430 0 "},"؛":{"x_min":165,"x_max":326,"ha":492,"o":"m 326 0 l 165 0 l 165 193 l 326 193 l 326 0 m 165 585 q 189 695 165 652 q 245 766 214 739 q 295 799 271 789 q 325 811 319 808 l 325 718 q 310 712 320 716 q 286 696 301 709 q 259 659 272 684 q 247 594 247 633 l 326 594 l 326 437 l 165 437 l 165 585 "},"ḥ":{"x_min":92,"x_max":688,"ha":775,"o":"m 688 0 l 560 0 l 560 431 q 554 529 560 484 q 535 601 549 574 q 492 644 520 630 q 416 658 464 658 q 318 632 369 658 q 220 566 268 607 l 220 0 l 92 0 l 92 1055 l 220 1055 l 220 673 q 332 751 276 724 q 449 779 388 779 q 624 705 561 779 q 688 491 688 631 l 688 0 m 465 -259 l 320 -259 l 320 -127 l 465 -127 l 465 -259 "},"ฟ":{"x_min":41,"x_max":868,"ha":970,"o":"m 868 0 l 717 0 q 609 365 717 65 q 543 563 555 520 q 477 365 532 520 q 371 0 371 65 l 219 0 l 219 530 q 170 522 198 522 q 79 559 117 522 q 41 649 41 597 q 79 741 41 703 q 170 779 117 779 q 298 729 250 779 q 347 597 347 680 l 347 216 q 414 431 347 244 q 514 766 514 707 l 572 766 q 669 439 572 708 q 740 216 740 246 l 740 1118 l 868 1118 l 868 0 m 170 600 q 206 614 191 600 q 222 649 222 629 q 206 687 222 672 q 170 702 191 702 q 134 686 149 702 q 119 649 119 671 q 134 614 119 629 q 170 600 149 600 "},"Ἅ":{"x_min":-1,"x_max":913,"ha":899,"o":"m 66 0 l 406 1010 l 572 1010 l 913 0 l 771 0 l 680 282 l 293 282 l 202 0 l 66 0 m 642 397 l 486 872 l 331 397 l 642 397 m 381 1137 l 253 876 l 166 876 l 228 1137 l 381 1137 m 129 1012 l 64 1012 q 128 913 64 921 l 128 838 q 33 906 69 852 q -1 1018 -1 956 l -1 1137 l 129 1137 l 129 1012 "},"Ρ":{"x_min":102,"x_max":740,"ha":766,"o":"m 740 705 q 716 580 740 639 q 651 480 693 521 q 528 402 599 428 q 350 376 458 376 l 236 376 l 236 0 l 102 0 l 102 1010 l 355 1010 q 508 995 445 1010 q 619 946 571 980 q 708 848 676 908 q 740 705 740 789 m 600 701 q 582 792 600 753 q 527 855 564 831 q 452 885 495 876 q 347 894 410 894 l 236 894 l 236 491 l 327 491 q 459 504 409 491 q 542 551 509 517 q 586 617 572 581 q 600 701 600 653 "},"ῌ":{"x_min":102,"x_max":836,"ha":938,"o":"m 836 0 l 702 0 l 702 495 l 236 495 l 236 0 l 102 0 l 102 1010 l 236 1010 l 236 614 l 702 614 l 702 1010 l 836 1010 l 836 0 m 538 -283 l 399 -283 l 432 -63 l 505 -63 l 538 -283 "},"Ṙ":{"x_min":102,"x_max":884,"ha":862,"o":"m 884 0 l 709 0 l 389 402 l 236 402 l 236 0 l 102 0 l 102 1010 l 362 1010 q 507 1000 449 1010 q 619 956 566 991 q 703 869 672 922 q 734 736 734 815 q 677 550 734 625 q 524 439 621 475 l 884 0 m 594 725 q 578 803 594 769 q 530 859 562 837 q 463 886 501 878 q 369 894 425 894 l 236 894 l 236 514 l 354 514 q 458 524 411 514 q 536 566 504 534 q 580 633 566 594 q 594 725 594 672 m 480 1137 l 335 1137 l 335 1269 l 480 1269 l 480 1137 "},"ª":{"x_min":77,"x_max":592,"ha":685,"o":"m 592 385 l 479 385 l 479 446 q 444 420 466 436 q 401 395 422 404 q 347 375 374 382 q 273 368 320 368 q 133 424 189 368 q 77 570 77 481 q 106 684 77 640 q 189 755 135 729 q 317 789 240 779 q 479 804 394 799 l 479 816 q 467 873 479 851 q 435 907 456 895 q 386 922 415 918 q 326 926 357 926 q 218 910 273 926 q 138 885 164 894 l 128 885 l 128 1000 q 217 1020 157 1009 q 327 1031 276 1031 q 524 979 457 1031 q 592 810 592 927 l 592 385 m 479 544 l 479 710 q 377 701 435 707 q 284 686 318 696 q 218 648 243 674 q 194 576 194 622 q 223 499 194 525 q 312 473 253 473 q 404 495 363 473 q 479 544 445 517 "},"Ἓ":{"x_min":-1,"x_max":1038,"ha":1083,"o":"m 406 0 l 406 1010 l 1038 1010 l 1038 891 l 540 891 l 540 614 l 1004 614 l 1004 495 l 540 495 l 540 119 l 1038 119 l 1038 0 l 406 0 m 381 876 l 294 876 l 166 1137 l 319 1137 l 381 876 m 129 1012 l 64 1012 q 128 913 64 921 l 128 838 q 33 906 69 852 q -1 1018 -1 956 l -1 1137 l 129 1137 l 129 1012 "},"ᴄ":{"x_min":40,"x_max":617,"ha":641,"o":"m 393 -17 q 250 7 315 -17 q 138 79 185 31 q 65 203 91 128 q 40 377 40 277 q 66 549 40 477 q 138 671 93 622 q 249 748 183 721 q 393 775 316 775 q 513 757 455 775 q 617 716 571 739 l 617 574 l 609 574 q 574 600 595 585 q 522 630 553 614 q 460 653 496 643 q 391 664 424 664 q 232 589 292 664 q 172 377 172 514 q 230 168 172 243 q 391 94 288 94 q 509 119 453 94 q 609 186 566 145 l 617 186 l 617 42 q 569 21 598 33 q 518 2 541 8 q 459 -11 485 -6 q 393 -17 433 -17 "},"ﻅ":{"x_min":-47,"x_max":901,"ha":936,"o":"m 901 276 q 874 169 901 219 q 795 81 848 118 q 665 22 743 44 q 480 0 587 0 l -47 0 l -47 128 l 112 128 q 126 134 118 128 q 143 149 134 140 q 160 169 153 160 q 168 187 168 177 l 168 1055 l 281 1055 l 281 323 q 457 486 360 420 q 633 553 553 553 q 823 477 745 553 q 901 276 901 401 m 788 274 q 741 384 788 340 q 631 428 694 428 q 541 396 590 428 q 441 316 492 364 q 352 222 395 274 q 281 128 308 170 l 399 128 q 538 134 457 128 q 663 154 618 140 q 754 198 720 170 q 788 274 788 226 m 560 721 l 460 721 l 460 821 l 560 821 l 560 721 "},"ᶕ":{"x_min":37,"x_max":1154,"ha":731,"o":"m 691 386 q 603 102 691 214 q 340 -18 508 -18 q 121 66 199 -18 q 37 326 37 156 l 37 396 l 561 396 q 499 592 561 521 q 311 668 434 668 q 155 633 230 668 q 58 576 94 605 l 51 576 l 51 715 q 166 757 88 730 q 309 779 242 779 q 594 675 495 779 q 691 386 691 572 m 561 298 l 161 298 q 204 145 163 197 q 347 87 250 87 q 498 146 440 87 q 561 298 552 202 m 1154 31 q 1054 23 1102 23 q 860 92 928 23 q 793 287 793 161 l 793 396 l 921 396 l 921 299 q 946 188 921 229 q 1079 136 978 136 q 1146 145 1104 136 l 1154 145 l 1154 31 m 921 298 l 410 298 l 410 396 l 921 396 l 921 298 "},"š":{"x_min":46,"x_max":594,"ha":620,"o":"m 297 -18 q 155 2 221 -18 q 46 45 89 22 l 46 189 l 52 189 q 91 160 69 175 q 149 127 113 144 q 221 100 182 112 q 302 89 260 89 q 367 96 333 89 q 419 114 402 103 q 453 147 442 129 q 464 200 464 165 q 439 269 464 246 q 351 308 414 293 q 287 322 326 314 q 214 339 247 330 q 88 417 127 364 q 49 544 49 470 q 126 711 49 647 q 331 776 203 776 q 458 760 395 776 q 566 721 522 744 l 566 585 l 559 585 q 450 646 510 623 q 329 669 390 669 q 222 642 265 669 q 179 562 179 615 q 204 491 179 514 q 287 452 230 467 q 351 437 316 445 q 425 421 386 430 q 551 351 509 400 q 594 218 594 302 q 574 126 594 169 q 518 51 555 82 q 426 0 477 17 q 297 -18 374 -18 m 552 1137 l 397 880 l 243 880 l 89 1137 l 196 1137 l 322 963 l 446 1137 l 552 1137 "},"ڸ":{"x_min":62,"x_max":816,"ha":899,"o":"m 816 298 q 708 73 816 154 q 407 -8 600 -8 q 140 60 218 -8 q 62 291 62 128 q 68 401 62 344 q 76 463 75 457 l 193 463 l 193 456 q 183 388 191 446 q 175 293 175 330 q 184 210 175 241 q 216 159 193 178 q 286 129 240 138 q 408 120 332 120 q 541 136 485 120 q 633 178 597 152 q 686 239 669 206 q 703 307 703 271 l 703 1055 l 816 1055 l 816 298 m 364 -145 l 264 -145 l 264 -45 l 364 -45 l 364 -145 m 564 -145 l 464 -145 l 464 -45 l 564 -45 l 564 -145 m 464 -286 l 364 -286 l 364 -186 l 464 -186 l 464 -286 "},"ื":{"x_min":-716,"x_max":-162,"ha":0,"o":"m -162 822 l -716 822 q -667 935 -690 901 q -606 998 -644 970 q -525 1040 -568 1026 q -438 1055 -482 1055 q -398 1052 -424 1055 l -398 1115 l -321 1115 l -321 1029 q -239 969 -275 1007 l -239 1115 l -162 1115 l -162 822 m -271 898 q -334 956 -287 934 q -438 979 -382 979 q -541 956 -494 979 q -605 898 -589 934 l -271 898 "},"Ƕ":{"x_min":102,"x_max":1303,"ha":1390,"o":"m 1303 266 q 1220 65 1303 149 q 1005 -21 1134 -21 q 789 62 878 -21 q 701 264 701 145 l 701 495 l 236 495 l 236 0 l 102 0 l 102 1010 l 236 1010 l 236 614 l 701 614 l 701 1010 l 835 1010 l 835 325 q 866 167 835 220 q 1005 100 906 100 q 1143 167 1103 100 q 1175 326 1175 220 l 1175 758 l 1303 758 l 1303 266 "},"ﮊ":{"x_min":0,"x_max":447,"ha":503,"o":"m 447 126 q 409 -82 446 -2 q 276 -217 371 -162 q 128 -274 194 -260 q 0 -288 61 -288 l 0 -160 q 97 -151 44 -160 q 208 -115 151 -143 q 303 -23 276 -79 q 330 104 330 33 q 307 223 330 162 q 245 341 284 283 l 245 350 l 376 350 q 424 242 402 301 q 447 126 447 183 m 234 517 l 134 517 l 134 617 l 234 617 l 234 517 m 434 517 l 334 517 l 334 617 l 434 617 l 434 517 m 334 658 l 234 658 l 234 758 l 334 758 l 334 658 "},"1":{"x_min":153,"x_max":645,"ha":758,"o":"m 645 0 l 153 0 l 153 103 l 336 103 l 336 780 l 153 780 l 153 872 q 305 901 256 872 q 361 1013 354 930 l 466 1013 l 466 103 l 645 103 l 645 0 "},"ҍ":{"x_min":1,"x_max":666,"ha":695,"o":"m 666 234 q 583 61 666 123 q 357 0 500 0 l 92 0 l 92 830 l 1 830 l 1 920 l 92 920 l 92 1055 l 220 1055 l 220 920 l 317 920 l 317 830 l 220 830 l 220 463 l 360 463 q 479 456 443 463 q 587 410 539 446 q 666 234 666 352 m 534 233 q 519 300 534 274 q 418 356 491 349 q 314 360 382 360 l 220 360 l 220 102 l 312 102 q 481 129 436 102 q 534 233 534 162 "},"בֿ":{"x_min":41,"x_max":860,"ha":888,"o":"m 735 133 l 860 133 l 860 0 l 41 0 l 41 133 l 618 133 l 618 470 q 604 586 618 534 q 557 673 590 638 q 462 728 522 709 q 309 747 402 747 q 201 742 282 747 q 67 729 120 738 l 61 729 l 61 862 q 182 875 111 870 q 318 880 253 880 q 635 786 536 880 q 735 474 735 692 l 735 133 m 250 971 l 250 1027 l 432 1027 l 432 971 l 250 971 "},"צ":{"x_min":47,"x_max":765,"ha":821,"o":"m 638 163 q 619 205 638 185 q 555 249 600 224 l 368 353 q 115 559 184 457 q 47 797 47 662 l 47 859 l 179 859 l 179 797 q 240 591 179 659 q 427 451 301 523 q 535 551 501 492 q 576 690 570 610 l 589 859 l 723 859 l 704 674 q 650 515 695 585 q 527 395 605 444 l 619 344 q 728 260 691 304 q 765 159 765 215 q 715 40 765 81 q 593 0 665 0 l 71 0 l 71 129 l 587 129 q 626 137 614 129 q 638 163 638 146 "},"ᵈ":{"x_min":54,"x_max":479,"ha":547,"o":"m 479 303 l 394 303 l 394 354 q 325 307 375 337 q 242 289 286 289 q 67 439 108 289 q 54 552 54 488 q 118 753 54 676 q 268 825 178 825 q 394 790 332 825 l 394 1010 l 479 1010 l 479 303 m 394 426 l 394 719 q 282 747 336 747 q 142 554 142 747 q 262 370 142 370 q 394 426 328 370 "},"˕":{"x_min":104,"x_max":358,"ha":463,"o":"m 358 303 l 275 303 l 275 136 l 187 136 l 187 303 l 104 303 l 104 391 l 358 391 l 358 303 "},"ɩ":{"x_min":95,"x_max":223,"ha":317,"o":"m 223 0 l 95 0 l 95 758 l 223 758 l 223 0 "},"ǒ":{"x_min":39,"x_max":715,"ha":754,"o":"m 715 378 q 622 83 715 187 q 377 -21 530 -21 q 129 86 219 -21 q 39 378 39 194 q 132 673 39 568 q 377 779 225 779 q 622 674 530 779 q 715 378 715 569 m 583 378 q 529 597 583 525 q 377 669 476 669 q 224 597 278 669 q 171 378 171 525 q 224 162 171 236 q 377 89 278 89 q 529 161 475 89 q 583 378 583 233 m 607 1137 l 452 880 l 298 880 l 144 1137 l 251 1137 l 377 963 l 501 1137 l 607 1137 "},"ӡ":{"x_min":7,"x_max":584,"ha":617,"o":"m 584 81 q 230 -286 584 -286 q 7 -226 135 -286 l 7 -83 l 14 -83 q 232 -175 112 -175 q 452 81 452 -175 q 393 264 452 193 q 213 342 328 342 l 213 371 l 424 653 l 44 653 l 44 758 l 577 758 l 577 667 l 385 412 q 500 325 450 383 q 584 81 584 227 "},"ḽ":{"x_min":-75,"x_max":388,"ha":317,"o":"m 223 0 l 95 0 l 95 1055 l 223 1055 l 223 0 m 388 -287 l 280 -287 l 154 -113 l 30 -287 l -75 -287 l 79 -30 l 233 -30 l 388 -287 "},"ī":{"x_min":-22,"x_max":340,"ha":317,"o":"m 223 0 l 95 0 l 95 758 l 223 758 l 223 0 m 340 906 l -22 906 l -22 1011 l 340 1011 l 340 906 "},"ϯ":{"x_min":27,"x_max":547,"ha":574,"o":"m 547 651 l 354 651 l 354 0 l 157 68 l 157 95 l 226 95 l 226 651 l 120 651 l 53 551 l 27 551 l 27 758 l 226 758 l 226 1055 l 423 987 l 423 960 l 354 960 l 354 758 l 547 758 l 547 651 "},"̢":{"x_min":0,"x_max":361,"ha":0,"o":"m 361 -277 q 261 -286 309 -286 q 67 -216 135 -286 q 0 -21 0 -147 l 0 87 l 128 87 l 128 -9 q 153 -121 128 -79 q 286 -173 185 -173 q 353 -163 311 -173 l 361 -163 l 361 -277 "},"ӹ":{"x_min":92,"x_max":870,"ha":962,"o":"m 654 234 q 631 135 654 179 q 571 62 609 90 q 476 14 527 28 q 345 0 425 0 l 92 0 l 92 758 l 220 758 l 220 463 l 349 463 q 481 454 434 463 q 575 410 528 445 q 634 336 614 381 q 654 234 654 290 m 522 233 q 510 293 522 267 q 471 336 498 319 q 406 356 442 353 q 303 360 370 360 l 220 360 l 220 102 l 300 102 q 405 107 367 102 q 469 129 442 113 q 509 171 497 147 q 522 233 522 195 m 870 0 l 742 0 l 742 758 l 870 758 l 870 0 m 684 884 l 548 884 l 548 1016 l 684 1016 l 684 884 m 404 884 l 268 884 l 268 1016 l 404 1016 l 404 884 "},"Բ":{"x_min":90,"x_max":821.671875,"ha":874,"o":"m 455 1031 q 620 1005 550 1031 q 733 928 689 979 q 799 803 778 877 q 821 630 821 728 l 821 617 l 687 617 l 687 633 q 674 756 687 703 q 633 844 661 809 q 561 898 606 880 q 455 916 517 916 q 346 898 390 916 q 274 844 302 880 q 235 754 247 808 q 224 630 224 701 l 224 444 l 821 444 l 821 325 l 224 325 l 224 0 l 90 0 l 90 630 q 178 930 90 829 q 455 1031 267 1031 "},"ʲ":{"x_min":14,"x_max":255,"ha":323,"o":"m 255 896 l 158 896 l 158 985 l 255 985 l 255 896 m 255 288 q 209 157 255 204 q 80 111 164 111 q 14 116 48 111 l 14 192 l 18 192 q 63 186 48 186 q 124 196 98 186 q 166 262 159 211 q 170 323 170 287 l 170 740 l 78 740 l 78 811 l 255 811 l 255 288 "},"Ễ":{"x_min":102,"x_max":734,"ha":779,"o":"m 102 0 l 102 1010 l 734 1010 l 734 891 l 236 891 l 236 614 l 700 614 l 700 495 l 236 495 l 236 119 l 734 119 l 734 0 l 102 0 m 651 1099 l 536 1099 l 417 1159 l 299 1099 l 188 1099 l 356 1216 l 482 1216 l 651 1099 m 643 1389 q 597 1297 635 1333 q 505 1261 559 1261 q 455 1269 480 1261 q 411 1287 430 1278 q 372 1305 394 1296 q 337 1314 351 1314 q 304 1302 318 1314 q 287 1261 291 1291 l 196 1261 q 240 1351 202 1313 q 333 1389 278 1389 q 382 1381 360 1389 q 427 1362 405 1373 q 467 1343 450 1351 q 501 1336 483 1336 q 534 1348 519 1336 q 552 1389 548 1360 l 643 1389 "},"ˣ":{"x_min":7,"x_max":459,"ha":465,"o":"m 459 303 l 354 303 l 230 484 l 103 303 l 7 303 l 183 554 l 9 811 l 114 811 l 236 630 l 362 811 l 459 811 l 283 560 l 459 303 "},"ŏ":{"x_min":39,"x_max":715,"ha":754,"o":"m 715 378 q 622 83 715 187 q 377 -21 530 -21 q 129 86 219 -21 q 39 378 39 194 q 132 673 39 568 q 377 779 225 779 q 622 674 530 779 q 715 378 715 569 m 583 378 q 529 597 583 525 q 377 669 476 669 q 224 597 278 669 q 171 378 171 525 q 224 162 171 236 q 377 89 278 89 q 529 161 475 89 q 583 378 583 233 m 601 1109 q 586 1003 601 1050 q 546 922 572 955 q 476 868 515 886 q 377 851 438 851 q 280 869 322 851 q 210 922 238 888 q 168 1004 182 956 q 154 1109 154 1051 l 264 1109 q 292 977 264 1017 q 377 937 320 937 q 461 976 431 937 q 491 1109 491 1016 l 601 1109 "},"ý":{"x_min":4,"x_max":688,"ha":692,"o":"m 688 758 l 280 -279 l 143 -279 l 279 37 l 4 758 l 141 758 l 348 196 l 554 758 l 688 758 m 549 1137 l 363 883 l 263 883 l 384 1137 l 549 1137 "},"ﭥ":{"x_min":-47,"x_max":488,"ha":488,"o":"m 488 0 l 408 0 q 316 22 366 0 q 243 83 265 45 q 172 21 219 43 q 79 0 124 0 l -47 0 l -47 128 l 49 128 q 148 169 110 128 q 186 289 186 211 l 186 371 l 300 371 l 300 289 q 338 172 300 216 q 439 128 376 128 l 488 128 l 488 0 m 379 694 l 279 694 l 279 794 l 379 794 l 379 694 m 379 553 l 279 553 l 279 653 l 379 653 l 379 553 m 198 694 l 98 694 l 98 794 l 198 794 l 198 694 m 198 553 l 98 553 l 98 653 l 198 653 l 198 553 "},"ฤ":{"x_min":83,"x_max":695,"ha":787,"o":"m 695 -168 l 567 -168 l 567 437 q 523 608 567 559 q 387 658 479 658 q 216 541 245 658 l 346 541 l 346 451 q 225 252 225 405 l 225 238 q 273 246 246 246 q 364 208 326 246 q 403 118 403 171 q 364 27 403 65 q 273 -11 326 -11 q 145 37 193 -11 q 97 170 97 86 l 97 228 q 216 445 97 405 l 83 445 l 83 449 q 162 688 83 598 q 387 779 241 779 q 621 697 548 779 q 695 437 695 616 l 695 -168 m 273 66 q 309 81 294 66 q 325 118 325 96 q 309 154 325 139 q 273 169 294 169 q 237 154 252 169 q 222 118 222 139 q 237 81 222 96 q 273 66 252 66 "},"Ί":{"x_min":0,"x_max":606,"ha":669,"o":"m 606 0 l 214 0 l 214 103 l 343 103 l 343 907 l 214 907 l 214 1010 l 606 1010 l 606 907 l 477 907 l 477 103 l 606 103 l 606 0 m 215 1144 l 87 884 l 0 884 l 62 1144 l 215 1144 "},"ӛ":{"x_min":37,"x_max":691,"ha":731,"o":"m 691 386 q 603 102 691 214 q 340 -18 508 -18 q 121 66 199 -18 q 37 326 37 156 l 37 396 l 561 396 q 499 592 561 521 q 311 668 434 668 q 155 633 230 668 q 58 576 94 605 l 51 576 l 51 715 q 166 757 88 730 q 309 779 242 779 q 594 675 495 779 q 691 386 691 572 m 561 298 l 161 298 q 204 145 163 197 q 347 87 250 87 q 498 146 440 87 q 561 298 552 202 m 545 884 l 409 884 l 409 1016 l 545 1016 l 545 884 m 265 884 l 129 884 l 129 1016 l 265 1016 l 265 884 "},"՜":{"x_min":69,"x_max":454,"ha":522,"o":"m 454 893 q 441 835 454 862 q 405 787 428 807 q 350 753 381 766 q 282 740 319 740 q 191 724 222 737 q 161 678 161 711 q 174 637 161 659 q 211 589 188 615 l 144 522 q 86 606 104 565 q 69 685 69 648 q 81 746 69 718 q 117 793 94 773 q 170 824 139 812 q 236 838 200 835 q 326 856 295 841 q 357 901 357 871 q 344 943 357 921 q 308 989 331 966 l 376 1057 q 454 893 454 968 "},"ἒ":{"x_min":41,"x_max":613,"ha":632,"o":"m 613 44 q 480 -2 543 11 q 339 -17 417 -17 q 236 -5 289 -17 q 139 31 183 5 q 68 101 95 58 q 41 207 41 144 q 77 320 41 271 q 191 395 113 370 l 191 400 q 99 461 133 416 q 65 568 65 507 q 93 668 65 628 q 165 731 122 708 q 259 765 206 754 q 359 776 311 776 q 474 764 421 776 q 584 734 526 753 l 584 596 l 575 596 q 473 648 534 630 q 349 667 412 667 q 297 663 321 667 q 247 645 273 659 q 210 613 225 635 q 195 560 195 591 q 212 495 195 518 q 259 462 229 472 q 320 452 286 453 q 385 451 354 451 l 446 451 l 446 338 l 356 338 q 287 335 318 338 q 227 320 255 332 q 186 284 202 308 q 171 219 171 259 q 187 157 171 181 q 228 119 204 132 q 284 99 252 106 q 350 93 316 93 q 487 117 417 93 q 604 185 558 141 l 613 185 l 613 44 m 554 876 l 467 876 l 339 1137 l 492 1137 l 554 876 m 302 1018 q 267 906 302 956 q 173 838 231 852 l 173 913 q 237 1012 237 921 l 172 1012 l 172 1137 l 302 1137 l 302 1018 "}," ":{"x_min":0,"x_max":0,"ha":347,"o":"m 0 0 l 0 0 "},"‴":{"x_min":-34,"x_max":694,"ha":659,"o":"m 260 1010 l 58 590 l -34 590 l 97 1010 l 260 1010 m 478 1010 l 276 590 l 184 590 l 315 1010 l 478 1010 m 694 1010 l 492 590 l 400 590 l 531 1010 l 694 1010 "},"ἑ":{"x_min":41,"x_max":613,"ha":632,"o":"m 613 44 q 480 -2 543 11 q 339 -17 417 -17 q 236 -5 289 -17 q 139 31 183 5 q 68 101 95 58 q 41 207 41 144 q 77 320 41 271 q 191 395 113 370 l 191 400 q 99 461 133 416 q 65 568 65 507 q 93 668 65 628 q 165 731 122 708 q 259 765 206 754 q 359 776 311 776 q 474 764 421 776 q 584 734 526 753 l 584 596 l 575 596 q 473 648 534 630 q 349 667 412 667 q 297 663 321 667 q 247 645 273 659 q 210 613 225 635 q 195 560 195 591 q 212 495 195 518 q 259 462 229 472 q 320 452 286 453 q 385 451 354 451 l 446 451 l 446 338 l 356 338 q 287 335 318 338 q 227 320 255 332 q 186 284 202 308 q 171 219 171 259 q 187 157 171 181 q 228 119 204 132 q 284 99 252 106 q 350 93 316 93 q 487 117 417 93 q 604 185 558 141 l 613 185 l 613 44 m 424 1012 l 359 1012 q 423 913 359 921 l 423 838 q 328 906 364 852 q 294 1018 294 956 l 294 1137 l 424 1137 l 424 1012 "},"ᴝ":{"x_min":87,"x_max":865,"ha":952,"o":"m 865 308 q 797 139 865 201 q 578 71 723 71 l 87 71 l 87 199 l 518 199 q 687 223 641 199 q 744 342 744 253 q 652 538 744 434 l 87 538 l 87 666 l 844 666 l 844 538 l 759 538 q 865 308 865 418 "},"Ь":{"x_min":102,"x_max":783,"ha":809,"o":"m 783 312 q 754 179 783 239 q 677 82 726 120 q 555 19 620 38 q 387 0 490 0 l 102 0 l 102 1010 l 236 1010 l 236 614 l 391 614 q 559 602 494 614 q 682 545 624 590 q 758 446 734 505 q 783 312 783 387 m 643 310 q 626 399 643 361 q 573 462 609 438 q 487 492 536 487 q 349 498 438 498 l 236 498 l 236 115 l 346 115 q 485 123 436 115 q 570 157 533 132 q 625 219 608 184 q 643 310 643 255 "},"ƽ":{"x_min":22,"x_max":595,"ha":636,"o":"m 595 210 q 495 32 595 92 q 295 -17 413 -17 q 22 44 148 -17 l 22 185 l 30 185 q 284 93 130 93 q 407 119 362 93 q 465 219 465 153 q 407 321 465 295 q 279 340 368 340 l 93 340 l 93 647 l 25 647 l 25 758 l 575 758 l 575 647 l 221 647 l 221 450 l 322 450 q 515 403 452 450 q 595 210 595 346 "},"̅":{"x_min":-390,"x_max":390,"ha":0,"o":"m 390 1126 l -390 1126 l -390 1213 l 390 1213 l 390 1126 "},"ؔ":{"x_min":-253,"x_max":254,"ha":0,"o":"m 254 1248 q 148 1125 254 1125 q 64 1152 94 1125 q -12 1125 30 1125 l -253 1125 l -253 1183 l -12 1183 q 39 1243 39 1183 l 39 1275 l 101 1275 l 101 1234 q 142 1183 101 1183 q 193 1251 193 1183 l 193 1322 l 254 1322 l 254 1248 "},"̸":{"x_min":-255,"x_max":255,"ha":0,"o":"m 255 1055 l -140 -220 l -255 -220 l 138 1055 l 255 1055 "},"ᾯ":{"x_min":0,"x_max":1235,"ha":1259,"o":"m 1235 0 l 856 0 l 856 262 q 937 318 897 287 q 1004 387 977 349 q 1051 477 1035 429 q 1067 605 1067 526 q 1049 726 1067 669 q 994 825 1031 784 q 902 890 958 866 q 774 915 846 915 q 645 891 700 915 q 550 824 589 867 q 495 726 514 785 q 476 605 476 667 q 493 478 476 531 q 541 386 511 424 q 611 318 571 348 q 692 262 651 287 l 692 0 l 314 0 l 314 118 l 579 118 l 579 202 q 485 270 529 230 q 408 362 441 311 q 355 475 374 413 q 336 605 336 536 q 365 775 336 699 q 452 909 394 850 q 590 998 507 965 q 774 1031 673 1031 q 955 999 874 1031 q 1093 910 1037 967 q 1177 775 1148 853 q 1207 605 1207 697 q 1188 474 1207 535 q 1138 362 1169 412 q 1062 271 1106 312 q 969 202 1019 231 l 969 118 l 1235 118 l 1235 0 m 542 1364 q 375 1153 528 1153 q 251 1205 307 1153 q 157 1263 191 1263 q 95 1150 101 1263 l 0 1150 q 40 1293 4 1237 q 166 1361 84 1361 q 288 1309 229 1361 q 383 1255 348 1255 q 447 1364 442 1255 l 542 1364 m 341 985 l 276 985 q 340 886 276 894 l 340 811 q 245 879 281 825 q 211 991 211 929 l 211 1110 l 341 1110 l 341 985 m 843 -283 l 704 -283 l 737 -63 l 810 -63 l 843 -283 "},"¤":{"x_min":44.46875,"x_max":717.203125,"ha":758,"o":"m 717 185 l 645 113 l 500 257 q 443 230 469 238 q 380 222 416 222 q 317 232 348 222 q 261 257 285 242 l 115 112 l 44 186 l 188 330 q 162 389 171 357 q 153 449 153 420 q 162 508 153 478 q 188 566 171 539 l 44 713 l 117 785 l 262 640 q 318 666 287 657 q 380 676 349 676 q 446 665 415 676 q 499 641 477 654 l 643 785 l 717 714 l 572 567 q 599 511 590 538 q 608 449 608 484 q 598 387 608 418 q 572 330 588 355 l 717 185 m 510 449 q 471 542 510 503 q 380 582 433 582 q 288 543 327 582 q 250 449 250 504 q 288 355 250 394 q 380 316 326 316 q 471 354 432 316 q 510 449 510 393 "},"ﮂ":{"x_min":62,"x_max":582,"ha":650,"o":"m 437 450 q 543 330 505 388 q 582 219 582 272 q 566 139 582 180 q 520 68 550 97 q 434 17 484 35 q 319 0 384 0 l 62 0 l 62 128 l 317 128 q 428 152 388 128 q 469 218 469 177 q 443 281 469 247 q 376 353 417 316 q 286 425 334 390 q 176 502 238 460 l 176 648 l 182 648 q 308 556 228 615 q 437 450 387 497 m 169 -216 l 69 -216 l 69 -116 l 169 -116 l 169 -216 m 350 -216 l 250 -216 l 250 -116 l 350 -116 l 350 -216 "},"p":{"x_min":92,"x_max":728,"ha":768,"o":"m 728 398 q 637 97 728 209 q 408 -15 546 -15 q 308 -2 352 -15 q 220 37 265 10 l 220 -279 l 92 -279 l 92 758 l 220 758 l 220 678 q 325 750 267 721 q 451 779 383 779 q 655 675 582 779 q 728 398 728 572 m 596 385 q 554 586 596 514 q 420 658 513 658 q 315 633 366 658 q 220 571 265 609 l 220 142 q 305 108 270 117 q 387 100 341 100 q 541 172 486 100 q 596 385 596 245 "},"ﬞ":{"x_min":-224,"x_max":223,"ha":0,"o":"m 223 1229 q 208 1123 223 1170 q 168 1042 194 1075 q 98 988 137 1006 q 0 971 60 971 q -97 989 -55 971 q -167 1042 -139 1008 q -209 1124 -195 1076 q -224 1229 -224 1171 l -114 1229 q -85 1097 -114 1137 q 0 1057 -57 1057 q 83 1096 53 1057 q 113 1229 113 1136 l 223 1229 "},"Ἤ":{"x_min":-1,"x_max":1113,"ha":1215,"o":"m 1113 0 l 979 0 l 979 495 l 513 495 l 513 0 l 379 0 l 379 1010 l 513 1010 l 513 614 l 979 614 l 979 1010 l 1113 1010 l 1113 0 m 381 1137 l 253 876 l 166 876 l 228 1137 l 381 1137 m 129 1018 q 94 906 129 956 q 0 838 58 852 l 0 913 q 64 1012 64 921 l -1 1012 l -1 1137 l 129 1137 l 129 1018 "},"Ѹ":{"x_min":45,"x_max":1606,"ha":1599,"o":"m 738 893 q 819 728 791 826 q 848 504 848 630 q 819 279 848 377 q 737 114 790 181 q 611 13 685 48 q 446 -21 537 -21 q 280 13 354 -21 q 154 116 206 48 q 73 280 102 183 q 45 504 45 378 q 72 724 45 626 q 151 889 99 821 q 278 994 203 957 q 446 1031 352 1031 q 612 995 539 1031 q 738 893 686 959 m 708 504 q 689 678 708 602 q 637 807 671 755 q 555 887 603 860 q 446 915 507 915 q 337 887 385 915 q 254 807 288 860 q 202 679 220 755 q 185 504 185 603 q 203 329 185 405 q 256 200 222 253 q 338 121 290 148 q 446 95 387 95 q 555 122 506 95 q 637 201 603 149 q 689 329 671 253 q 708 504 708 405 m 1606 758 l 1211 -279 l 1075 -279 l 1202 37 l 933 758 l 1069 758 l 1271 197 l 1472 758 l 1606 758 "},"ٷ":{"x_min":-42,"x_max":599,"ha":579,"o":"m 515 125 q 467 -88 515 0 q 325 -221 420 -176 q 162 -273 239 -259 q 0 -288 85 -288 l 0 -160 q 141 -149 76 -160 q 265 -115 207 -137 q 364 -33 330 -85 q 398 104 398 19 q 355 87 388 98 q 292 77 321 77 q 110 139 175 77 q 46 291 46 201 q 112 470 46 394 q 260 546 179 546 q 444 428 373 546 q 515 125 515 311 m 389 231 q 381 281 389 250 q 356 345 372 313 q 318 396 341 374 q 269 418 295 418 q 192 379 222 418 q 163 296 163 341 q 199 230 163 256 q 298 205 236 205 q 352 214 327 205 q 389 231 378 223 m 599 659 l 371 659 l 371 723 l 421 723 q 394 751 405 731 q 384 791 384 770 q 415 867 384 835 q 501 900 447 900 q 554 895 537 900 q 579 889 572 891 l 579 820 l 574 820 q 542 830 565 824 q 503 836 520 836 q 458 823 473 836 q 444 791 444 811 q 475 742 444 761 q 548 723 506 723 l 599 723 l 599 659 m 294 642 l 208 660 q 85 607 146 625 q -42 585 25 589 l -42 645 q 53 657 8 648 q 142 687 98 667 q 81 726 107 698 q 55 793 55 754 q 86 869 55 839 q 171 900 118 900 q 252 869 218 900 q 287 790 287 838 q 274 742 287 767 q 251 708 262 717 l 294 700 l 294 642 m 193 725 q 217 752 208 737 q 226 791 226 768 q 209 823 226 811 q 174 836 193 836 q 134 824 150 836 q 119 791 119 813 q 138 751 119 768 q 193 725 157 734 "},"ۂ":{"x_min":68,"x_max":723,"ha":723,"o":"m 723 0 q 533 140 567 0 q 505 217 519 194 q 443 255 483 255 q 313 130 387 255 q 200 -119 254 30 l 68 -119 l 68 -112 q 231 214 178 134 q 442 366 331 366 q 640 201 589 366 q 673 142 655 156 q 723 128 691 128 l 723 0 m 528 541 l 300 541 l 300 605 l 350 605 q 323 633 334 613 q 313 673 313 652 q 344 749 313 717 q 430 782 376 782 q 483 777 466 782 q 508 771 501 773 l 508 702 l 503 702 q 471 712 494 706 q 432 718 449 718 q 387 705 402 718 q 373 673 373 693 q 404 624 373 643 q 477 605 435 605 l 528 605 l 528 541 "},"ⱡ":{"x_min":13.59375,"x_max":384.40625,"ha":397,"o":"m 263 0 l 135 0 l 135 326 l 13 326 l 13 417 l 135 417 l 135 516 l 13 516 l 13 607 l 135 607 l 135 1055 l 263 1055 l 263 607 l 384 607 l 384 516 l 263 516 l 263 417 l 384 417 l 384 326 l 263 326 l 263 0 "},"ﭩ":{"x_min":-47,"x_max":488,"ha":488,"o":"m 488 0 l 408 0 q 316 22 366 0 q 243 83 265 45 q 172 21 219 43 q 79 0 124 0 l -47 0 l -47 128 l 49 128 q 148 169 110 128 q 186 289 186 211 l 186 371 l 300 371 l 300 289 q 338 172 300 216 q 439 128 376 128 l 488 128 l 488 0 m 422 665 q 362 575 422 605 q 253 553 316 553 l 58 553 l 58 615 l 113 615 q 128 631 128 625 l 128 971 l 184 971 l 184 701 q 312 778 254 778 q 391 746 360 778 q 422 665 422 714 m 365 663 q 349 700 365 685 q 312 716 334 716 q 191 615 263 716 l 223 615 q 365 663 365 615 "},"Ӭ":{"x_min":29,"x_max":788,"ha":833,"o":"m 788 508 q 660 125 788 268 q 328 -18 533 -18 q 164 0 241 -18 q 29 43 87 16 l 29 192 l 39 192 q 163 122 88 148 q 324 96 238 96 q 562 202 470 96 q 654 483 654 308 l 161 483 l 161 600 l 647 600 q 545 830 631 746 q 324 914 459 914 q 168 888 241 914 q 42 816 95 862 l 32 816 l 32 965 q 165 1009 86 990 q 329 1028 244 1028 q 667 892 547 1028 q 788 508 788 757 m 573 1123 l 437 1123 l 437 1255 l 573 1255 l 573 1123 m 293 1123 l 157 1123 l 157 1255 l 293 1255 l 293 1123 "},"῭":{"x_min":118,"x_max":643,"ha":758,"o":"m 643 884 l 513 884 l 513 1016 l 643 1016 l 643 884 m 444 944 l 357 944 l 229 1204 l 382 1204 l 444 944 m 248 884 l 118 884 l 118 1016 l 248 1016 l 248 884 "},"ђ":{"x_min":8,"x_max":718,"ha":803,"o":"m 718 336 q 717 259 718 297 q 715 182 716 221 q 687 -24 714 62 q 614 -165 661 -110 q 509 -247 567 -222 q 381 -273 451 -273 q 358 -273 367 -273 q 324 -271 349 -273 l 324 -164 l 331 -164 q 348 -164 338 -164 q 363 -164 358 -164 q 535 -78 488 -164 q 588 230 581 7 q 589 279 589 253 q 590 335 590 304 q 589 377 590 352 q 588 432 589 402 q 582 529 587 487 q 562 601 577 571 q 519 643 546 629 q 445 658 492 658 q 347 632 397 658 q 249 566 297 606 l 249 0 l 121 0 l 121 861 l 8 861 l 8 951 l 121 951 l 121 1055 l 249 1055 l 249 951 l 500 951 l 500 861 l 249 861 l 249 673 q 359 750 301 722 q 478 779 416 779 q 574 761 531 779 q 647 711 617 744 q 696 620 678 677 q 715 492 715 564 q 716 423 715 460 q 718 336 718 387 "},"ϕ":{"x_min":39,"x_max":715,"ha":754,"o":"m 715 378 q 623 82 715 187 q 440 -17 550 0 l 440 -279 l 312 -279 l 312 -16 q 129 86 200 2 q 39 378 39 194 q 102 631 39 528 q 312 773 173 749 l 312 1055 l 440 1055 l 440 774 q 623 674 550 756 q 715 378 715 569 m 583 378 q 440 660 583 618 l 440 97 q 529 161 494 113 q 583 378 583 233 m 312 98 l 312 659 q 171 378 171 614 q 312 98 171 142 "},"y":{"x_min":4,"x_max":688,"ha":692,"o":"m 688 758 l 280 -279 l 143 -279 l 279 37 l 4 758 l 141 758 l 348 196 l 554 758 l 688 758 "},"ⱨ":{"x_min":92,"x_max":762,"ha":775,"o":"m 688 0 l 560 0 l 560 431 q 554 529 560 484 q 535 601 549 574 q 492 644 520 630 q 416 658 464 658 q 318 632 369 658 q 220 566 268 607 l 220 0 l 92 0 l 92 1055 l 220 1055 l 220 673 q 332 751 276 724 q 449 779 388 779 q 624 705 561 779 q 688 491 688 631 l 688 0 m 643 110 l 762 110 l 762 -182 l 643 -182 l 643 110 "},"‗":{"x_min":-11,"x_max":769,"ha":758,"o":"m 769 -143 l -11 -143 l -11 -56 l 769 -56 l 769 -143 m 769 -286 l -11 -286 l -11 -199 l 769 -199 l 769 -286 "},"ﱢ":{"x_min":0,"x_max":416,"ha":0,"o":"m 294 1226 q 244 1237 266 1226 q 213 1266 222 1249 q 179 1217 207 1240 q 112 1194 152 1194 q 30 1223 60 1194 q 0 1308 0 1253 q 1 1347 0 1326 q 3 1377 2 1368 l 68 1377 l 68 1372 q 65 1345 67 1364 q 64 1309 64 1326 q 76 1271 64 1285 q 112 1258 88 1258 q 158 1283 141 1258 q 176 1361 176 1309 l 176 1409 l 240 1409 l 240 1367 q 255 1309 240 1328 q 293 1290 270 1290 q 336 1308 321 1290 q 352 1366 352 1327 q 350 1405 352 1389 q 348 1430 348 1422 l 348 1435 l 412 1435 q 414 1413 412 1428 q 416 1365 416 1399 q 382 1262 416 1298 q 294 1226 348 1226 m 408 1135 l 20 1069 l 20 1137 l 408 1202 l 408 1135 "},"ﬦ":{"x_min":102,"x_max":1056,"ha":1154,"o":"m 1056 0 l 102 0 l 102 880 l 629 880 q 968 781 873 880 q 1056 474 1056 690 l 1056 0 m 939 133 l 939 470 q 871 682 939 620 q 626 747 801 747 l 219 747 l 219 133 l 939 133 "},"ḓ":{"x_min":40,"x_max":676,"ha":768,"o":"m 676 0 l 548 0 l 548 77 q 496 35 518 52 q 445 6 474 19 q 389 -13 418 -6 q 321 -21 360 -21 q 207 4 259 -21 q 118 80 154 30 q 60 203 80 130 q 40 373 40 277 q 65 545 40 472 q 136 673 91 618 q 237 750 178 722 q 360 779 295 779 q 459 766 417 779 q 548 727 501 753 l 548 1055 l 676 1055 l 676 0 m 548 184 l 548 621 q 462 653 500 644 q 381 662 425 662 q 227 588 283 662 q 172 375 172 514 q 214 170 172 241 q 351 100 257 100 q 452 122 401 100 q 548 184 503 145 m 637 -287 l 529 -287 l 403 -113 l 279 -287 l 174 -287 l 328 -30 l 482 -30 l 637 -287 "},"ƅ":{"x_min":0,"x_max":728,"ha":768,"o":"m 728 391 q 653 113 728 228 q 411 -21 565 -21 q 220 35 313 -21 l 211 0 l 92 0 l 92 778 l 0 876 l 0 898 l 197 1055 l 220 1055 l 220 678 q 451 779 331 779 q 669 652 597 779 q 728 391 728 549 m 596 381 q 421 658 596 658 q 220 571 320 658 l 220 137 q 387 94 308 94 q 596 381 596 94 "},"ë":{"x_min":40,"x_max":694,"ha":731,"o":"m 421 -17 q 140 85 240 -17 q 40 374 40 187 q 136 669 40 560 q 390 779 233 779 q 515 758 460 779 q 609 694 569 738 q 672 588 650 651 q 694 435 694 526 l 694 366 l 170 366 q 236 163 170 233 q 419 94 302 94 q 502 103 461 94 q 575 128 542 113 q 633 158 609 143 q 672 186 656 173 l 680 186 l 680 46 q 624 24 657 37 q 564 4 591 11 q 497 -11 527 -6 q 421 -17 467 -17 m 570 464 q 557 552 568 515 q 526 615 546 590 q 469 659 504 644 q 383 674 434 674 q 296 658 332 674 q 232 614 261 643 q 188 548 203 584 q 170 464 174 512 l 570 464 m 596 884 l 460 884 l 460 1016 l 596 1016 l 596 884 m 316 884 l 180 884 l 180 1016 l 316 1016 l 316 884 "},"б":{"x_min":45,"x_max":723,"ha":764,"o":"m 630 646 q 698 532 674 601 q 723 372 723 463 q 695 210 723 285 q 619 85 667 136 q 511 5 570 32 q 381 -21 451 -21 q 251 3 310 -21 q 149 80 191 28 q 71 241 97 144 q 45 481 45 338 q 49 585 45 532 q 68 711 53 637 q 105 832 82 776 q 165 926 128 888 q 292 1007 214 977 q 498 1048 369 1036 q 595 1056 543 1052 q 675 1062 647 1059 l 675 944 q 599 938 639 941 q 508 931 559 935 q 364 907 439 926 q 252 850 290 889 q 206 766 223 820 q 183 646 189 712 q 290 707 233 682 q 414 732 347 732 q 531 711 476 732 q 630 646 587 690 m 593 365 q 538 550 593 486 q 384 615 484 615 q 277 596 329 615 q 181 548 226 578 q 178 507 179 531 q 177 465 177 484 q 195 273 177 347 q 248 157 214 199 q 313 104 279 119 q 387 90 347 90 q 538 163 484 90 q 593 365 593 237 "},"Ẏ":{"x_min":-7,"x_max":809,"ha":800,"o":"m 809 1010 l 468 447 l 468 0 l 334 0 l 334 432 l -7 1010 l 141 1010 l 401 564 l 666 1010 l 809 1010 m 492 1137 l 347 1137 l 347 1269 l 492 1269 l 492 1137 "},"ṝ":{"x_min":36,"x_max":547,"ha":501,"o":"m 494 621 l 487 621 q 457 626 472 625 q 418 627 441 627 q 316 604 367 627 q 220 538 265 582 l 220 0 l 92 0 l 92 758 l 220 758 l 220 645 q 341 732 289 707 q 442 758 393 758 q 471 756 462 758 q 494 753 481 755 l 494 621 m 370 -259 l 225 -259 l 225 -127 l 370 -127 l 370 -259 m 547 905 l 36 905 l 36 1010 l 547 1010 l 547 905 "},"ӌ":{"x_min":65,"x_max":662,"ha":754,"o":"m 662 0 l 580 0 l 580 -182 l 461 -182 l 461 110 l 534 110 l 534 295 q 306 254 408 254 q 134 307 196 254 q 65 485 65 366 l 65 758 l 193 758 l 193 551 q 219 414 193 454 q 349 365 251 365 q 534 394 441 365 l 534 758 l 662 758 l 662 0 "},"ﮛ":{"x_min":62,"x_max":1344,"ha":1344,"o":"m 1344 0 l 1263 0 q 1159 19 1210 0 q 1074 73 1108 38 q 988 17 1040 35 q 869 0 937 0 l 555 0 q 184 88 306 0 q 62 340 62 176 q 68 429 62 393 q 76 475 74 466 l 193 475 l 193 468 q 182 414 189 453 q 175 348 175 376 q 194 261 175 300 q 259 191 213 221 q 375 144 305 161 q 555 128 445 128 l 867 128 q 981 155 943 128 q 1019 232 1019 182 q 982 303 1019 261 q 867 410 945 346 l 681 562 q 627 616 650 589 q 604 676 604 644 q 641 758 604 723 q 753 828 678 792 l 1189 1038 l 1189 905 l 809 722 q 760 696 788 712 q 733 671 733 681 q 758 638 733 660 q 816 589 784 615 l 997 440 q 1101 332 1070 379 q 1132 233 1132 285 q 1132 229 1132 231 q 1132 224 1132 226 q 1168 154 1132 180 q 1261 128 1204 128 l 1344 128 l 1344 0 m 1175 1105 l 625 840 l 625 908 l 1175 1173 l 1175 1105 m 1283 0 l 1283 0 m 712 1074 l 612 1074 l 612 1174 l 712 1174 l 712 1074 m 893 1074 l 793 1074 l 793 1174 l 893 1174 l 893 1074 "},"ʋ":{"x_min":87,"x_max":686,"ha":773,"o":"m 686 567 q 626 164 686 300 q 345 -21 545 -21 q 163 52 234 -21 q 87 272 87 131 l 87 758 l 215 758 l 215 315 q 346 89 215 89 q 526 245 476 89 q 558 538 558 345 q 467 677 558 677 q 366 654 410 677 l 360 654 l 360 762 q 500 779 418 779 q 631 721 579 779 q 686 567 686 662 "},"₰":{"x_min":3,"x_max":685,"ha":724,"o":"m 685 -118 q 623 -244 683 -197 q 473 -286 566 -286 q 343 -273 407 -286 l 343 -152 l 349 -152 q 457 -171 413 -171 q 553 -92 552 -171 q 548 -61 553 -76 l 458 257 q 296 -17 379 117 l 206 134 l 136 0 l 3 0 l 199 355 l 286 191 q 412 420 319 247 l 298 831 q 294 881 294 849 q 353 1015 294 967 q 500 1062 408 1062 q 685 880 685 1062 q 644 671 685 801 q 544 421 604 540 l 676 -63 q 685 -118 684 -92 m 563 859 q 500 947 563 947 q 423 866 423 947 q 426 830 423 843 l 492 601 q 563 859 563 766 "},"ﻓ":{"x_min":-47,"x_max":509,"ha":570,"o":"m 431 654 q 487 524 466 602 q 509 345 509 446 q 472 193 509 259 q 378 85 435 126 q 252 21 321 42 q 118 0 184 0 l -47 0 l -47 128 l 119 128 q 214 140 165 128 q 301 176 263 152 q 368 237 345 202 q 392 316 392 273 q 343 297 374 306 q 286 289 312 289 q 179 305 226 289 q 100 354 133 322 q 54 423 69 385 q 39 503 39 461 q 105 679 39 600 q 254 758 172 758 q 350 731 304 758 q 431 654 396 705 m 383 443 q 375 493 383 462 q 350 557 366 524 q 310 610 332 590 q 262 630 288 630 q 187 593 219 630 q 156 508 156 557 q 193 442 156 468 q 291 417 230 417 q 340 424 316 417 q 383 443 364 431 m 263 869 l 163 869 l 163 969 l 263 969 l 263 869 "},"ц":{"x_min":92,"x_max":761,"ha":794,"o":"m 761 -182 l 642 -182 l 642 0 l 92 0 l 92 758 l 220 758 l 220 110 l 558 110 l 558 758 l 686 758 l 686 110 l 761 110 l 761 -182 "},"w":{"x_min":20,"x_max":1011,"ha":1031,"o":"m 1011 758 l 818 0 l 700 0 l 515 584 l 331 0 l 214 0 l 20 758 l 153 758 l 286 171 l 466 758 l 571 758 l 756 171 l 883 758 l 1011 758 "},"о":{"x_min":39,"x_max":715,"ha":754,"o":"m 715 378 q 622 83 715 187 q 377 -21 530 -21 q 129 86 219 -21 q 39 378 39 194 q 132 673 39 568 q 377 779 225 779 q 622 674 530 779 q 715 378 715 569 m 583 378 q 529 597 583 525 q 377 669 476 669 q 224 597 278 669 q 171 378 171 525 q 224 162 171 236 q 377 89 278 89 q 529 161 475 89 q 583 378 583 233 "},"᷅":{"x_min":68,"x_max":814,"ha":0,"o":"m 814 905 l 303 905 l 303 1010 l 814 1010 l 814 905 m 354 905 l 253 905 l 68 1159 l 232 1159 l 354 905 "},"Д":{"x_min":12,"x_max":923,"ha":950,"o":"m 923 -229 l 795 -229 l 795 3 l 140 3 l 140 -229 l 12 -229 l 12 119 l 67 119 q 209 498 155 263 q 263 1010 263 732 l 827 1010 l 827 119 l 923 119 l 923 -229 m 693 119 l 693 894 l 388 894 q 327 449 378 648 q 197 119 276 249 l 693 119 "},"אּ":{"x_min":92,"x_max":847,"ha":935,"o":"m 244 859 l 523 461 q 672 577 629 507 q 716 764 716 646 l 716 859 l 833 859 l 833 764 q 770 522 833 618 q 584 373 708 426 l 847 0 l 694 0 l 358 479 q 255 370 291 437 q 219 194 219 303 l 219 0 l 102 0 l 102 194 q 148 409 102 317 q 295 569 195 500 l 92 859 l 244 859 m 393 133 q 360 145 373 133 q 348 178 348 158 q 360 211 348 198 q 393 224 373 224 q 426 211 413 224 q 439 178 439 198 q 426 145 439 158 q 393 133 413 133 "},"ﭴ":{"x_min":-47,"x_max":869,"ha":916,"o":"m 869 312 q 439 105 701 211 q 57 0 176 0 l -47 0 l -47 128 l 60 128 q 325 185 155 128 q 616 306 495 243 q 428 387 557 347 q 164 428 300 428 l 85 428 l 85 553 l 171 553 q 445 505 296 553 q 733 370 593 457 l 869 440 l 869 312 m 688 -146 l 588 -146 l 588 -46 l 688 -46 l 688 -146 m 688 -287 l 588 -287 l 588 -187 l 688 -187 l 688 -287 "},"Ḯ":{"x_min":51,"x_max":467,"ha":518,"o":"m 455 0 l 63 0 l 63 103 l 192 103 l 192 907 l 63 907 l 63 1010 l 455 1010 l 455 907 l 326 907 l 326 103 l 455 103 l 455 0 m 436 1390 l 302 1243 l 215 1243 l 285 1390 l 436 1390 m 467 1091 l 331 1091 l 331 1216 l 467 1216 l 467 1091 m 187 1091 l 51 1091 l 51 1216 l 187 1216 l 187 1091 "},"Ӂ":{"x_min":-9,"x_max":1252,"ha":1242,"o":"m 1252 0 l 1086 0 l 750 464 l 685 464 l 685 0 l 551 0 l 551 464 l 485 464 l 148 0 l -9 0 l 372 520 q 294 592 327 549 q 230 735 262 636 q 172 857 203 823 q 55 891 142 891 l 28 891 l 28 1010 l 62 1010 q 238 966 176 1010 q 342 806 301 923 q 362 748 352 776 q 379 702 372 719 q 451 594 409 629 q 551 554 492 559 l 551 1010 l 685 1010 l 685 553 q 789 592 747 559 q 863 701 832 625 q 885 759 875 732 q 901 806 895 787 q 1005 966 942 922 q 1180 1010 1068 1010 l 1215 1010 l 1215 891 l 1187 891 q 1069 856 1100 891 q 1010 735 1037 822 q 945 600 981 645 q 866 528 908 555 l 1252 0 m 841 1362 q 826 1256 841 1303 q 786 1175 812 1208 q 716 1121 755 1139 q 617 1104 678 1104 q 520 1122 562 1104 q 450 1175 478 1141 q 408 1257 422 1209 q 394 1362 394 1304 l 504 1362 q 532 1230 504 1270 q 617 1190 560 1190 q 701 1229 671 1190 q 731 1362 731 1269 l 841 1362 "},"Ḁ":{"x_min":-7,"x_max":840,"ha":833,"o":"m -7 0 l 333 1010 l 499 1010 l 840 0 l 698 0 l 607 282 l 220 282 l 129 0 l -7 0 m 569 397 l 413 872 l 258 397 l 569 397 m 537 -165 q 501 -251 537 -217 q 414 -286 466 -286 q 326 -251 362 -286 q 291 -165 291 -216 q 326 -78 291 -113 q 414 -44 362 -44 q 501 -78 466 -44 q 537 -165 537 -112 m 478 -165 q 460 -116 478 -136 q 414 -96 442 -96 q 367 -116 385 -96 q 350 -165 350 -136 q 367 -214 350 -194 q 414 -234 385 -234 q 460 -214 442 -234 q 478 -165 478 -194 "},"͌":{"x_min":-274,"x_max":275,"ha":0,"o":"m 268 1257 q 228 1134 263 1181 q 101 1076 184 1076 q -13 1117 52 1076 q -116 1159 -80 1159 q -179 1076 -168 1159 l -274 1076 q -232 1198 -269 1149 q -107 1257 -188 1257 q 14 1217 -48 1257 q 109 1178 77 1178 q 158 1208 137 1178 q 173 1257 175 1235 l 268 1257 m 275 1076 q 235 953 270 1000 q 108 895 191 895 q -6 936 59 895 q -109 978 -73 978 q -172 895 -161 978 l -267 895 q -225 1017 -262 968 q -100 1076 -181 1076 q 21 1036 -41 1076 q 116 997 84 997 q 165 1027 144 997 q 180 1076 182 1054 l 275 1076 "},"Ĵ":{"x_min":6,"x_max":549,"ha":579,"o":"m 483 262 q 401 57 483 129 q 184 -14 320 -14 q 97 -8 151 -14 q 6 5 42 -2 l 6 135 l 13 135 q 82 113 41 125 q 166 102 123 102 q 265 116 228 102 q 320 156 302 130 q 343 223 338 184 q 349 314 349 262 l 349 903 l 135 903 l 135 1010 l 483 1010 l 483 262 m 549 1133 l 441 1133 l 315 1306 l 191 1133 l 86 1133 l 240 1390 l 394 1390 l 549 1133 "},"Ҕ":{"x_min":102,"x_max":752,"ha":791,"o":"m 752 108 q 653 -189 752 -86 q 398 -286 560 -286 q 273 -266 343 -286 q 222 -247 250 -259 l 175 -226 l 175 -82 l 182 -82 q 400 -175 280 -175 q 571 -86 514 -175 q 620 108 620 -12 q 571 303 620 227 q 400 394 514 394 q 236 341 321 394 l 236 0 l 102 0 l 102 1010 l 700 1010 l 700 891 l 236 891 l 236 473 q 398 505 322 505 q 653 402 560 505 q 752 108 752 293 "},"ฒ":{"x_min":86,"x_max":1097,"ha":1211,"o":"m 1097 0 l 977 0 q 758 157 879 123 l 758 138 q 719 27 758 66 q 614 -11 680 -11 q 521 21 556 -11 q 487 108 487 53 q 523 201 487 163 q 630 247 560 239 l 630 436 q 503 669 630 580 l 412 600 l 319 669 q 212 451 212 589 q 242 260 212 369 q 267 122 251 233 q 385 255 378 227 q 285 380 285 282 q 322 471 285 433 q 412 509 359 509 q 503 469 466 509 q 540 372 540 430 q 497 236 540 308 q 375 95 455 164 q 270 0 294 25 l 142 0 l 142 58 q 114 245 142 114 q 86 450 86 377 q 146 670 86 598 q 320 782 206 743 l 412 711 l 503 782 q 758 437 758 714 l 758 240 q 969 123 879 211 l 969 758 l 1097 758 l 1097 0 m 414 330 q 450 344 435 330 q 466 379 466 359 q 451 416 466 401 q 414 432 436 432 q 378 416 393 432 q 364 379 364 401 q 378 344 364 359 q 414 330 393 330 m 630 118 l 630 170 q 566 108 566 161 q 596 66 566 66 q 630 118 630 66 "},"٦":{"x_min":62,"x_max":733,"ha":794,"o":"m 733 0 l 616 0 l 553 267 q 526 422 534 350 q 519 586 519 494 l 519 744 q 460 726 498 734 q 373 719 422 719 q 202 738 293 719 q 62 788 111 757 l 62 933 l 68 933 q 197 872 113 901 q 374 844 281 844 q 514 868 446 844 q 632 936 582 893 l 632 587 q 640 422 632 494 q 666 279 648 351 l 733 0 "},"г":{"x_min":92,"x_max":573,"ha":576,"o":"m 573 647 l 220 647 l 220 0 l 92 0 l 92 758 l 573 758 l 573 647 "},"ấ":{"x_min":39,"x_max":801,"ha":729,"o":"m 514 186 l 514 397 q 399 385 468 392 q 287 365 330 378 q 204 318 237 350 q 171 228 171 285 q 207 130 171 163 q 314 97 243 97 q 422 122 374 97 q 514 186 471 148 m 514 80 q 472 48 498 69 q 421 15 446 27 q 356 -11 388 -2 q 268 -21 325 -21 q 179 -3 221 -21 q 105 46 137 14 q 57 123 75 77 q 39 219 39 169 q 72 354 39 298 q 177 441 105 409 q 327 482 240 471 q 514 499 413 493 l 514 523 q 500 595 514 567 q 462 637 486 622 q 403 657 438 652 q 330 663 368 663 q 227 649 286 663 q 108 612 167 636 l 101 612 l 101 741 q 202 763 136 751 q 332 776 267 776 q 463 763 410 776 q 559 719 517 751 q 621 638 601 688 q 642 518 642 589 l 642 0 l 514 0 l 514 80 m 593 880 l 485 880 l 359 1053 l 235 880 l 130 880 l 284 1137 l 438 1137 l 593 880 m 801 1137 l 653 957 l 566 957 l 649 1137 l 801 1137 "},"ݧ":{"x_min":62,"x_max":858,"ha":920,"o":"m 858 359 q 826 191 858 261 q 740 76 794 121 q 616 11 687 33 q 461 -10 546 -10 q 307 11 380 -10 q 180 76 234 32 q 93 192 125 122 q 62 359 62 262 q 70 494 62 428 q 81 570 79 561 l 204 570 l 204 558 q 185 470 195 532 q 175 358 175 409 q 259 183 175 249 q 458 118 343 118 q 659 182 574 118 q 745 358 745 247 q 734 470 745 409 q 716 558 724 532 l 716 570 l 839 570 q 849 494 840 561 q 858 359 858 428 m 511 663 l 411 663 l 411 763 l 511 763 l 511 663 m 424 -216 l 324 -216 l 324 -116 l 424 -116 l 424 -216 m 605 -216 l 505 -216 l 505 -116 l 605 -116 l 605 -216 "},"Ŀ":{"x_min":102,"x_max":688,"ha":691,"o":"m 688 0 l 102 0 l 102 1010 l 236 1010 l 236 119 l 688 119 l 688 0 m 594 352 l 436 352 l 436 533 l 594 533 l 594 352 "},"ﺀ":{"x_min":72,"x_max":472,"ha":530,"o":"m 472 117 l 103 3 l 103 130 l 207 162 q 112 219 153 173 q 72 323 72 266 q 132 471 72 418 q 279 524 193 524 q 371 519 336 524 q 421 511 406 514 l 421 385 l 412 385 q 354 395 395 389 q 285 401 313 401 q 213 379 241 401 q 185 324 185 358 q 229 249 185 281 q 352 207 274 217 l 472 244 l 472 117 "},"ը":{"x_min":92,"x_max":688,"ha":775,"o":"m 560 0 l 560 431 q 554 529 560 484 q 535 601 549 574 q 492 644 520 630 q 416 658 464 658 q 318 632 369 658 q 220 566 268 607 l 220 -174 l 688 -174 l 688 -287 l 92 -287 l 92 758 l 220 758 l 220 673 q 332 751 277 724 q 449 779 388 779 q 549 760 505 779 q 624 705 594 741 q 671 615 655 669 q 688 491 688 561 l 688 0 l 560 0 "},"ᾙ":{"x_min":0,"x_max":923,"ha":1025,"o":"m 923 0 l 789 0 l 789 495 l 323 495 l 323 0 l 189 0 l 189 1010 l 323 1010 l 323 614 l 789 614 l 789 1010 l 923 1010 l 923 0 m 130 1012 l 65 1012 q 129 913 65 921 l 129 838 q 34 906 70 852 q 0 1018 0 956 l 0 1137 l 130 1137 l 130 1012 m 626 -283 l 487 -283 l 520 -63 l 593 -63 l 626 -283 "},"ئ":{"x_min":62,"x_max":1152,"ha":1211,"o":"m 1152 574 l 1145 574 q 1034 625 1097 603 q 893 648 970 648 q 780 620 830 648 q 730 550 730 593 q 802 485 730 514 q 931 436 874 457 q 1004 405 965 423 q 1069 366 1043 386 q 1115 319 1098 345 q 1132 258 1132 294 q 967 65 1132 131 q 479 0 803 0 q 162 72 262 0 q 62 299 62 144 q 68 405 62 352 q 76 471 74 458 l 193 471 l 193 464 q 183 396 191 454 q 175 301 175 339 q 244 167 175 206 q 480 128 313 128 q 885 162 752 128 q 1019 257 1019 196 q 946 316 1019 288 q 818 364 874 343 q 744 397 781 379 q 679 437 707 415 q 634 487 651 459 q 617 551 617 515 q 695 706 617 640 q 895 773 774 773 q 1041 756 977 773 q 1152 718 1105 740 l 1152 574 m 471 589 l 243 589 l 243 653 l 293 653 q 266 681 277 661 q 256 721 256 700 q 287 797 256 765 q 373 830 319 830 q 426 825 409 830 q 451 819 444 821 l 451 750 l 446 750 q 414 760 437 754 q 375 766 392 766 q 330 753 345 766 q 316 721 316 741 q 347 672 316 691 q 420 653 378 653 l 471 653 l 471 589 "},"Յ":{"x_min":30,"x_max":866,"ha":911,"o":"m 102 594 l 422 594 q 527 605 481 594 q 606 639 573 617 q 655 694 638 661 q 672 769 672 727 q 654 835 672 808 q 607 880 637 863 q 538 904 577 897 q 453 912 498 912 q 368 904 407 912 q 302 879 330 896 q 258 835 274 862 q 243 769 243 808 l 243 752 l 103 752 l 103 767 q 124 874 103 826 q 188 956 145 922 q 297 1009 231 990 q 453 1028 363 1028 q 611 1009 543 1028 q 723 957 678 991 q 789 875 767 923 q 812 767 812 827 q 800 691 812 725 q 767 630 788 657 q 719 583 747 603 q 661 547 692 562 q 744 516 706 535 q 809 468 781 497 q 851 399 836 439 q 866 307 866 359 q 831 162 866 224 q 739 59 797 100 q 606 0 682 19 q 447 -21 531 -21 q 275 0 352 -21 q 144 59 198 19 q 59 162 89 100 q 30 307 30 223 l 30 327 l 170 327 l 170 307 q 185 222 170 261 q 235 155 201 183 q 323 110 269 126 q 451 95 376 95 q 573 109 521 95 q 659 150 625 123 q 709 213 692 176 q 726 296 726 250 q 710 375 726 341 q 662 431 695 409 q 576 464 629 453 q 447 475 523 475 l 102 475 l 102 594 "},"ᵳ":{"x_min":-115,"x_max":477,"ha":484,"o":"m 477 629 l 470 629 q 364 647 421 647 q 250 611 284 647 q 220 476 220 578 l 220 0 l 92 0 l 92 478 q 346 758 92 758 q 477 745 405 758 l 477 629 m 427 479 q 376 320 420 373 q 260 268 332 268 q 195 280 224 268 q 136 320 165 293 q 85 363 106 348 q 42 378 63 377 q -4 347 9 378 q -20 265 -17 316 l -115 265 q -63 422 -110 369 q 51 476 -16 476 q 114 462 85 476 q 173 423 144 449 q 225 383 202 397 q 268 370 249 370 q 315 400 300 370 q 332 479 329 430 l 427 479 "},"ʟ":{"x_min":92,"x_max":573,"ha":576,"o":"m 573 0 l 92 0 l 92 758 l 220 758 l 220 111 l 573 111 l 573 0 "},"Ǟ":{"x_min":-7,"x_max":840,"ha":833,"o":"m -7 0 l 333 1010 l 499 1010 l 840 0 l 698 0 l 607 282 l 220 282 l 129 0 l -7 0 m 569 397 l 413 872 l 258 397 l 569 397 m 670 1306 l 159 1306 l 159 1390 l 670 1390 l 670 1306 m 623 1091 l 487 1091 l 487 1216 l 623 1216 l 623 1091 m 343 1091 l 207 1091 l 207 1216 l 343 1216 l 343 1091 "},"ۧ":{"x_min":-257,"x_max":259,"ha":0,"o":"m 259 793 l -130 793 q -257 862 -257 793 q -161 939 -257 911 q -105 960 -119 951 q -43 1018 -88 971 q 11 1056 -8 1056 q 68 1006 34 1056 l 68 942 q 13 1000 32 1000 q -19 968 7 1000 q -74 917 -51 931 q -152 886 -100 900 q -194 869 -194 876 q -147 857 -194 857 l 259 857 l 259 793 "},"Җ":{"x_min":-9,"x_max":1261,"ha":1287,"o":"m 1261 -229 l 1133 -229 l 1133 0 l 1086 0 l 749 464 l 685 464 l 685 0 l 551 0 l 551 464 l 485 464 l 148 0 l -9 0 l 372 520 q 230 736 278 580 q 176 854 203 826 q 55 891 140 891 l 28 891 l 28 1010 l 62 1010 q 242 963 180 1010 q 342 806 303 918 l 362 748 q 379 702 370 722 q 551 554 436 564 l 551 1010 l 685 1010 l 685 553 q 863 702 807 565 q 900 806 874 731 q 1001 964 938 918 q 1179 1010 1063 1010 l 1214 1010 l 1214 891 l 1186 891 q 1066 854 1103 891 q 1010 736 1038 825 q 865 528 965 593 l 1165 118 l 1261 118 l 1261 -229 "},"€":{"x_min":-19,"x_max":727,"ha":758,"o":"m 641 449 l 622 355 l 202 355 q 301 173 232 240 q 498 98 380 98 q 717 160 624 98 l 727 160 l 727 29 q 497 -18 611 -18 q 196 88 311 -18 q 58 355 91 185 l -19 355 l 0 449 l 47 449 q 45 504 45 476 q 45 543 45 523 l -19 543 l 0 637 l 56 637 q 196 917 87 814 q 499 1028 314 1028 q 727 979 619 1028 l 727 848 l 716 848 q 498 913 620 913 q 293 830 373 913 q 198 637 224 758 l 679 637 l 660 543 l 186 543 q 185 504 185 523 q 187 449 185 476 l 641 449 "},"ﮑ":{"x_min":-47,"x_max":739,"ha":739,"o":"m 739 0 l 659 0 q 555 19 606 0 q 470 73 504 38 q 384 17 436 35 q 265 0 333 0 l -47 0 l -47 128 l 263 128 q 377 155 339 128 q 415 232 415 182 q 378 303 415 261 q 263 410 341 346 l 77 562 q 23 616 46 589 q 0 676 0 644 q 41 761 0 726 q 149 828 83 797 l 585 1038 l 585 905 l 205 722 q 156 696 184 712 q 129 670 129 681 q 154 637 129 660 q 212 588 179 615 l 393 440 q 498 331 469 377 q 528 233 528 285 l 528 224 q 564 154 528 180 q 657 128 600 128 l 739 128 l 739 0 m 667 0 l 667 0 "},"։":{"x_min":165,"x_max":327,"ha":491,"o":"m 327 565 l 165 565 l 165 758 l 327 758 l 327 565 m 327 0 l 165 0 l 165 193 l 327 193 l 327 0 "},"Ἀ":{"x_min":-7,"x_max":840,"ha":833,"o":"m -7 0 l 333 1010 l 499 1010 l 840 0 l 698 0 l 607 282 l 220 282 l 129 0 l -7 0 m 569 397 l 413 872 l 258 397 l 569 397 m 246 1018 q 211 906 246 956 q 117 838 175 852 l 117 913 q 181 1012 181 921 l 116 1012 l 116 1137 l 246 1137 l 246 1018 "},"С":{"x_min":45,"x_max":811,"ha":834,"o":"m 497 -18 q 315 15 398 -18 q 171 114 232 48 q 78 278 111 179 q 45 503 45 376 q 77 724 45 630 q 171 889 109 819 q 314 992 231 956 q 499 1028 396 1028 q 594 1020 550 1028 q 676 1001 638 1013 q 743 976 709 991 q 811 942 777 960 l 811 780 l 800 780 q 754 819 782 796 q 687 864 726 842 q 603 899 648 885 q 498 913 557 913 q 376 886 433 913 q 275 808 318 860 q 208 679 232 757 q 185 503 185 601 q 210 325 185 400 q 278 198 235 250 q 377 123 320 148 q 498 98 434 98 q 605 112 556 98 q 693 148 655 126 q 758 191 731 169 q 800 229 785 213 l 811 229 l 811 68 q 748 39 777 53 q 676 11 718 24 q 595 -10 632 -3 q 497 -18 557 -18 "},"Ӓ":{"x_min":-7,"x_max":840,"ha":833,"o":"m -7 0 l 333 1010 l 499 1010 l 840 0 l 698 0 l 607 282 l 220 282 l 129 0 l -7 0 m 569 397 l 413 872 l 258 397 l 569 397 m 620 1123 l 484 1123 l 484 1255 l 620 1255 l 620 1123 m 340 1123 l 204 1123 l 204 1255 l 340 1255 l 340 1123 "},"ᵄ":{"x_min":68,"x_max":472,"ha":526,"o":"m 472 661 q 379 512 472 555 q 153 475 315 483 l 153 458 q 276 364 153 364 q 426 398 344 364 l 431 398 l 431 312 q 276 289 350 289 q 68 461 68 289 l 68 809 l 153 809 l 153 755 q 214 798 171 770 q 317 823 262 823 q 428 776 385 823 q 472 661 472 729 m 384 656 q 287 744 384 744 q 153 683 220 744 l 153 543 q 230 550 208 547 q 305 563 279 555 q 384 656 384 587 "},"Ὕ":{"x_min":0,"x_max":1194,"ha":1186,"o":"m 1194 1010 l 853 447 l 853 0 l 719 0 l 719 432 l 378 1010 l 526 1010 l 786 564 l 1051 1010 l 1194 1010 m 382 1137 l 254 876 l 167 876 l 229 1137 l 382 1137 m 130 1012 l 65 1012 q 129 913 65 921 l 129 838 q 34 906 70 852 q 0 1018 0 956 l 0 1137 l 130 1137 l 130 1012 "},"ẳ":{"x_min":39,"x_max":642,"ha":729,"o":"m 514 186 l 514 397 q 399 385 468 392 q 287 365 330 378 q 204 318 237 350 q 171 228 171 285 q 207 130 171 163 q 314 97 243 97 q 422 122 374 97 q 514 186 471 148 m 514 80 q 472 48 498 69 q 421 15 446 27 q 356 -11 388 -2 q 268 -21 325 -21 q 179 -3 221 -21 q 105 46 137 14 q 57 123 75 77 q 39 219 39 169 q 72 354 39 298 q 177 441 105 409 q 327 482 240 471 q 514 499 413 493 l 514 523 q 500 595 514 567 q 462 637 486 622 q 403 657 438 652 q 330 663 368 663 q 227 649 286 663 q 108 612 167 636 l 101 612 l 101 741 q 202 763 136 751 q 332 776 267 776 q 463 763 410 776 q 559 719 517 751 q 621 638 601 688 q 642 518 642 589 l 642 0 l 514 0 l 514 80 m 585 1089 q 524 914 585 978 q 361 851 464 851 q 198 914 258 851 q 138 1089 138 978 l 248 1089 q 276 970 248 1004 q 361 937 305 937 q 446 970 417 937 q 475 1089 475 1004 l 585 1089 m 463 1151 q 444 1092 463 1115 q 388 1058 425 1070 l 388 1020 l 326 1020 l 326 1089 q 366 1106 352 1095 q 380 1139 380 1118 q 368 1166 380 1156 q 339 1176 356 1176 q 310 1173 320 1176 q 286 1165 300 1170 l 285 1165 l 285 1225 q 316 1232 295 1229 q 359 1236 336 1236 q 433 1212 403 1236 q 463 1151 463 1189 "},"เ":{"x_min":114,"x_max":420,"ha":461,"o":"m 242 237 q 290 246 263 246 q 381 208 343 246 q 420 118 420 171 q 381 27 420 65 q 290 -11 343 -11 q 162 37 210 -11 q 114 170 114 86 l 114 758 l 242 758 l 242 237 m 291 66 q 327 81 312 66 q 343 118 343 96 q 327 154 343 139 q 291 169 312 169 q 254 154 269 169 q 239 118 239 139 q 254 81 239 96 q 291 66 269 66 "},"ڍ":{"x_min":62,"x_max":582,"ha":650,"o":"m 437 450 q 543 330 505 388 q 582 219 582 272 q 566 139 582 180 q 520 68 550 97 q 434 17 484 35 q 319 0 384 0 l 62 0 l 62 128 l 317 128 q 428 152 388 128 q 469 218 469 177 q 443 281 469 247 q 376 353 417 316 q 286 425 334 390 q 176 502 238 460 l 176 648 l 182 648 q 308 556 228 615 q 437 450 387 497 m 169 -216 l 69 -216 l 69 -116 l 169 -116 l 169 -216 m 350 -216 l 250 -216 l 250 -116 l 350 -116 l 350 -216 "},"ᴹ":{"x_min":68,"x_max":647,"ha":715,"o":"m 647 303 l 557 303 l 557 885 l 380 489 l 325 489 l 151 885 l 151 303 l 68 303 l 68 979 l 189 979 l 354 602 l 521 979 l 647 979 l 647 303 "},"պ":{"x_min":87,"x_max":1075,"ha":1167,"o":"m 215 758 l 215 319 q 218 222 215 263 q 235 153 222 180 q 274 113 248 126 q 342 100 299 100 q 426 124 381 100 q 519 193 470 148 q 518 221 519 205 q 517 258 517 237 l 517 758 l 645 758 l 645 319 q 648 222 645 263 q 665 153 652 180 q 704 113 678 126 q 772 100 729 100 q 858 125 813 100 q 947 191 904 150 l 947 758 l 1075 758 l 1075 -279 l 947 -279 l 947 84 q 847 6 896 33 q 739 -21 798 -21 q 620 9 671 -21 q 541 109 568 40 q 485 52 512 77 q 429 12 457 28 q 371 -12 401 -4 q 309 -21 342 -21 q 220 -5 261 -21 q 150 43 179 10 q 103 130 120 77 q 87 259 87 183 l 87 758 l 215 758 "},"¶":{"x_min":39,"x_max":666,"ha":758,"o":"m 666 -246 l 571 -246 l 571 923 l 444 923 l 444 -246 l 349 -246 l 349 402 q 124 489 209 405 q 39 712 39 573 q 127 931 39 852 q 379 1010 215 1010 l 666 1010 l 666 -246 "},"ﻔ":{"x_min":-47,"x_max":700,"ha":700,"o":"m 700 0 l 588 0 q 461 18 524 0 q 347 61 398 36 q 235 17 290 34 q 104 0 180 0 l -47 0 l -47 128 l 107 128 q 193 135 160 128 q 234 144 227 143 q 214 157 230 147 q 177 189 198 167 q 138 245 156 212 q 121 322 121 279 q 182 496 121 426 q 343 566 244 566 q 502 496 436 566 q 568 323 568 427 q 551 245 568 281 q 513 188 534 210 q 477 156 492 165 q 458 143 463 146 q 509 133 470 138 q 585 128 548 128 l 700 128 l 700 0 m 400 232 q 439 271 423 251 q 455 322 455 291 q 424 400 455 365 q 343 436 393 436 q 265 401 296 436 q 234 322 234 367 q 251 273 234 296 q 289 233 269 249 q 326 206 312 214 q 345 195 340 197 q 366 206 351 198 q 400 232 380 215 m 399 695 l 299 695 l 299 795 l 399 795 l 399 695 "},"Ụ":{"x_min":90,"x_max":821,"ha":911,"o":"m 455 -21 q 299 2 366 -21 q 186 71 233 25 q 111 198 133 124 q 90 379 90 272 l 90 1010 l 224 1010 l 224 380 q 232 262 224 310 q 267 176 241 214 q 341 115 294 136 q 455 94 387 94 q 567 115 518 94 q 643 176 616 136 q 677 262 668 215 q 687 376 687 308 l 687 1010 l 821 1010 l 821 379 q 799 199 821 274 q 724 71 778 124 q 612 2 676 25 q 455 -21 548 -21 m 524 -259 l 379 -259 l 379 -127 l 524 -127 l 524 -259 "},"­":{"x_min":61,"x_max":444,"ha":505,"o":"m 444 380 l 61 380 l 61 503 l 444 503 l 444 380 "},"خ":{"x_min":54,"x_max":760,"ha":846,"o":"m 760 381 l 739 381 q 499 364 601 381 q 319 309 397 347 q 207 214 247 274 q 167 75 167 155 q 244 -97 167 -31 q 444 -163 322 -163 q 610 -141 536 -163 q 739 -85 684 -120 l 746 -85 l 746 -221 q 620 -269 686 -251 q 445 -288 554 -288 q 163 -188 272 -288 q 54 76 54 -89 q 92 227 54 154 q 213 355 130 299 q 368 425 281 401 q 540 455 455 450 q 379 509 457 494 q 190 524 300 524 l 139 524 l 139 649 l 198 649 q 448 605 308 649 q 710 486 588 561 l 760 486 l 760 381 m 622 732 l 522 732 l 522 832 l 622 832 l 622 732 "},"ḳ":{"x_min":92,"x_max":720,"ha":692,"o":"m 720 0 l 552 0 l 269 365 l 220 316 l 220 0 l 92 0 l 92 1055 l 220 1055 l 220 437 l 519 758 l 678 758 l 366 441 l 720 0 m 453 -259 l 308 -259 l 308 -127 l 453 -127 l 453 -259 "},"ѫ":{"x_min":3,"x_max":850,"ha":853,"o":"m 850 0 l 696 0 q 631 195 681 127 q 491 302 588 254 l 491 0 l 363 0 l 363 302 q 221 195 264 254 q 157 0 171 127 l 3 0 q 112 269 53 184 q 297 415 172 354 l 83 758 l 770 758 l 556 415 q 740 269 681 354 q 850 0 800 184 m 573 653 l 280 653 l 427 418 l 573 653 "},"Ѝ":{"x_min":102,"x_max":829,"ha":931,"o":"m 829 0 l 695 0 l 695 801 l 238 0 l 102 0 l 102 1010 l 236 1010 l 236 221 l 686 1010 l 829 1010 l 829 0 m 542 1136 l 441 1136 l 256 1390 l 420 1390 l 542 1136 "},"̯":{"x_min":-223,"x_max":224,"ha":0,"o":"m 224 -284 l 114 -284 q 0 -112 114 -112 q -113 -284 -113 -112 l -223 -284 q -166 -97 -223 -166 q 0 -26 -107 -26 q 169 -97 109 -26 q 224 -284 224 -163 "},"ᶹ":{"x_min":68,"x_max":468,"ha":534,"o":"m 468 683 q 428 414 468 504 q 240 290 374 290 q 118 338 166 290 q 68 485 68 392 l 68 810 l 153 810 l 153 515 q 241 364 153 364 q 361 468 328 364 q 383 664 383 535 q 322 757 383 757 q 254 741 283 757 l 250 741 l 250 814 q 344 825 289 825 q 432 787 396 825 q 468 683 468 747 "},"ǲ":{"x_min":102,"x_max":1539,"ha":1567,"o":"m 899 503 q 842 254 899 365 q 692 80 786 143 q 536 16 615 32 q 334 0 457 0 l 102 0 l 102 1010 l 332 1010 q 555 988 474 1010 q 693 929 636 967 q 845 758 791 865 q 899 503 899 651 m 759 506 q 720 704 759 622 q 605 833 681 787 q 490 879 551 865 q 338 894 429 894 l 236 894 l 236 116 l 338 116 q 495 130 428 116 q 618 183 562 144 q 723 309 688 230 q 759 506 759 388 m 1539 0 l 983 0 l 983 94 l 1379 653 l 999 653 l 999 758 l 1532 758 l 1532 667 l 1133 107 l 1539 107 l 1539 0 "},"͞":{"x_min":-117,"x_max":959,"ha":0,"o":"m 959 1010 l -117 1010 l -117 1114 l 959 1114 l 959 1010 "},"Ƨ":{"x_min":35,"x_max":721,"ha":774,"o":"m 721 60 q 389 -18 560 -18 q 126 73 226 -18 q 35 287 35 156 q 235 542 35 481 q 442 595 304 559 q 574 753 574 631 q 506 875 574 832 q 365 912 449 912 q 84 802 204 912 l 74 802 l 74 962 q 374 1028 208 1028 q 608 954 511 1028 q 714 739 714 872 q 648 556 714 626 q 481 467 590 495 q 299 421 420 453 q 175 266 175 386 q 246 134 175 178 q 399 98 305 98 q 711 229 572 98 l 721 229 l 721 60 "},"У":{"x_min":-1,"x_max":808,"ha":799,"o":"m 808 1010 l 441 159 q 389 73 418 106 q 329 24 360 41 q 268 2 298 7 q 207 -3 238 -3 q 143 -1 180 -3 q 97 0 107 0 l 97 126 l 106 126 q 137 122 116 124 q 189 121 158 121 q 225 122 204 121 q 262 132 245 124 q 299 157 282 142 q 330 208 316 173 l 353 262 l -1 1010 l 147 1010 l 421 415 l 669 1010 l 808 1010 "},"ᾢ":{"x_min":43,"x_max":963,"ha":1006,"o":"m 963 339 q 947 209 963 279 q 901 93 931 139 q 820 10 869 41 q 696 -21 771 -21 q 582 12 633 -21 q 507 91 530 45 l 498 91 q 421 11 473 44 q 309 -21 370 -21 q 187 10 238 -21 q 104 93 135 41 q 58 205 73 142 q 43 339 43 269 q 83 560 43 463 q 205 758 124 657 l 357 758 l 357 746 q 221 568 269 668 q 173 339 173 468 q 179 256 173 300 q 200 174 185 213 q 245 113 216 138 q 317 88 273 88 q 401 113 371 88 q 440 168 431 139 l 440 566 l 566 566 l 566 168 q 580 142 570 159 q 602 115 590 126 q 635 95 617 102 q 688 88 653 88 q 761 113 732 88 q 805 174 790 138 q 826 253 820 211 q 833 339 833 295 q 784 569 833 468 q 649 746 735 671 l 649 758 l 800 758 q 921 563 880 658 q 963 339 963 468 m 689 876 l 602 876 l 474 1137 l 627 1137 l 689 876 m 437 1018 q 402 906 437 956 q 308 838 366 852 l 308 913 q 372 1012 372 921 l 307 1012 l 307 1137 l 437 1137 l 437 1018 m 573 -283 l 434 -283 l 467 -63 l 540 -63 l 573 -283 "},"ү":{"x_min":5,"x_max":688,"ha":692,"o":"m 688 758 l 406 37 l 406 -279 l 280 -279 l 280 37 l 5 758 l 142 758 l 349 200 l 554 758 l 688 758 "},"ڱ":{"x_min":62,"x_max":1201,"ha":1283,"o":"m 865 128 q 982 158 948 128 q 1017 232 1017 188 q 988 303 1017 262 q 879 409 960 343 l 693 562 q 639 616 662 589 q 616 676 616 644 q 643 750 616 718 q 765 828 670 782 l 1201 1038 l 1201 904 l 821 721 q 773 696 800 711 q 746 670 746 681 q 774 634 746 658 q 829 588 803 610 l 1009 440 q 1102 336 1074 386 q 1130 233 1130 285 q 1114 142 1130 186 q 1068 68 1098 98 q 983 17 1033 34 q 867 0 932 0 l 554 0 q 184 88 306 0 q 62 340 62 176 q 69 429 62 393 q 77 475 76 466 l 193 475 l 193 468 q 182 414 189 453 q 175 348 175 376 q 194 261 175 300 q 259 191 213 221 q 375 144 305 161 q 555 128 445 128 l 865 128 m 1175 1105 l 625 840 l 625 908 l 1175 1173 l 1175 1105 m 712 1074 l 612 1074 l 612 1174 l 712 1174 l 712 1074 m 893 1074 l 793 1074 l 793 1174 l 893 1174 l 893 1074 "},"Ί":{"x_min":0,"x_max":611,"ha":674,"o":"m 611 0 l 219 0 l 219 103 l 348 103 l 348 907 l 219 907 l 219 1010 l 611 1010 l 611 907 l 482 907 l 482 103 l 611 103 l 611 0 m 165 1010 l 131 750 l 33 750 l 0 1010 l 165 1010 "},"͢":{"x_min":-117,"x_max":663,"ha":0,"o":"m 663 -157 l 574 -285 l 574 -202 l -117 -202 l -117 -114 l 574 -114 l 574 -30 l 663 -157 "},"ᴎ":{"x_min":92,"x_max":691,"ha":783,"o":"m 691 0 l 565 0 l 565 565 l 207 0 l 92 0 l 92 758 l 218 758 l 218 201 l 571 758 l 691 758 l 691 0 "},"Ģ":{"x_min":45,"x_max":861,"ha":927,"o":"m 525 -20 q 329 12 418 -20 q 176 111 240 45 q 78 277 112 178 q 45 505 45 376 q 79 724 45 627 q 177 889 113 821 q 329 992 239 956 q 526 1028 419 1028 q 624 1020 577 1028 q 713 1000 671 1013 q 789 972 747 990 q 857 941 831 954 l 857 779 l 845 779 q 793 821 820 801 q 717 864 766 841 q 624 898 677 884 q 510 912 571 912 q 274 802 364 912 q 185 509 185 692 q 208 332 185 408 q 277 203 232 256 q 381 123 320 150 q 519 96 442 96 q 632 104 576 96 q 727 128 688 112 l 727 390 l 495 390 l 495 508 l 861 508 l 861 66 q 792 37 835 55 q 711 9 749 20 q 622 -12 662 -5 q 525 -20 582 -20 m 384 -286 l 476 -104 l 641 -104 l 477 -286 l 384 -286 "},"ᾇ":{"x_min":40,"x_max":678,"ha":770,"o":"m 678 0 l 550 0 l 550 77 q 441 3 495 27 q 323 -21 388 -21 q 116 83 193 -21 q 40 373 40 188 q 65 542 40 466 q 138 673 90 617 q 238 750 179 722 q 361 779 297 779 q 461 765 418 779 q 550 726 503 752 l 553 726 l 553 758 l 678 758 l 678 0 m 550 184 l 550 621 q 464 653 502 644 q 382 662 426 662 q 225 582 278 662 q 172 375 172 503 q 215 170 172 241 q 353 100 259 100 q 454 122 403 100 q 550 184 505 145 m 650 1364 q 483 1153 636 1153 q 359 1205 415 1153 q 265 1263 299 1263 q 203 1150 209 1263 l 108 1150 q 148 1293 112 1237 q 274 1361 192 1361 q 396 1309 337 1361 q 491 1255 456 1255 q 555 1364 550 1255 l 650 1364 m 449 985 l 384 985 q 448 886 384 894 l 448 811 q 353 879 389 825 q 319 991 319 929 l 319 1110 l 449 1110 l 449 985 m 448 -283 l 309 -283 l 342 -63 l 415 -63 l 448 -283 "},"؟":{"x_min":57,"x_max":601,"ha":659,"o":"m 601 845 l 593 845 q 496 892 556 869 q 368 915 436 915 q 243 877 291 915 q 195 762 195 839 q 215 669 195 710 q 272 593 235 628 q 351 533 300 566 q 440 478 402 501 l 440 271 l 319 271 l 319 425 q 220 490 267 457 q 137 563 174 523 q 79 654 101 602 q 57 772 57 706 q 136 960 57 889 q 355 1031 216 1031 q 486 1016 417 1031 q 601 983 555 1001 l 601 845 m 446 0 l 308 0 l 308 143 l 446 143 l 446 0 "},"ǌ":{"x_min":92,"x_max":1049,"ha":1140,"o":"m 688 0 l 560 0 l 560 431 q 554 529 560 484 q 535 601 549 574 q 492 644 520 630 q 416 658 464 658 q 318 632 369 658 q 220 566 268 607 l 220 0 l 92 0 l 92 758 l 220 758 l 220 673 q 332 751 276 724 q 449 779 388 779 q 624 705 561 779 q 688 491 688 631 l 688 0 m 1048 -20 q 978 -218 1048 -150 q 786 -286 909 -286 q 739 -283 765 -286 q 688 -277 713 -281 l 688 -164 l 695 -164 q 728 -170 710 -167 q 762 -173 746 -173 q 845 -160 813 -173 q 894 -120 878 -147 q 914 -59 909 -96 q 920 31 920 -21 l 920 652 l 784 652 l 784 758 l 1048 758 l 1048 -20 m 1049 885 l 904 885 l 904 1017 l 1049 1017 l 1049 885 "},"ớ":{"x_min":39,"x_max":775,"ha":781,"o":"m 715 378 q 622 83 715 187 q 377 -21 530 -21 q 129 86 219 -21 q 39 378 39 194 q 132 673 39 568 q 377 779 225 779 q 442 773 411 779 q 502 758 473 768 l 562 758 q 648 780 623 758 q 673 850 673 802 q 665 906 673 875 q 650 952 658 937 l 650 959 l 758 959 q 771 903 767 927 q 775 845 775 879 q 736 730 775 773 q 624 673 697 686 q 691 547 668 622 q 715 378 715 473 m 583 378 q 529 597 583 525 q 377 669 476 669 q 224 597 278 669 q 171 378 171 525 q 224 162 171 236 q 377 89 278 89 q 529 161 475 89 q 583 378 583 233 m 590 1137 l 404 883 l 304 883 l 425 1137 l 590 1137 "},"ٿ":{"x_min":62,"x_max":1059,"ha":1121,"o":"m 560 120 q 736 135 661 120 q 860 183 811 151 q 926 253 906 214 q 946 340 946 292 q 938 402 946 361 q 928 460 931 442 l 928 467 l 1045 467 q 1053 406 1048 444 q 1059 331 1059 369 q 935 79 1059 167 q 559 -8 812 -8 q 185 80 309 -8 q 62 331 62 168 q 67 406 62 369 q 76 467 72 444 l 193 467 l 193 460 q 182 402 189 442 q 175 340 175 361 q 194 253 175 292 q 260 183 213 213 q 385 135 309 151 q 560 120 460 120 m 701 694 l 601 694 l 601 794 l 701 794 l 701 694 m 701 553 l 601 553 l 601 653 l 701 653 l 701 553 m 520 694 l 420 694 l 420 794 l 520 794 l 520 694 m 520 553 l 420 553 l 420 653 l 520 653 l 520 553 "},"á":{"x_min":39,"x_max":642,"ha":729,"o":"m 514 186 l 514 397 q 399 385 468 392 q 287 365 330 378 q 204 318 237 350 q 171 228 171 285 q 207 130 171 163 q 314 97 243 97 q 422 122 374 97 q 514 186 471 148 m 514 80 q 472 48 498 69 q 421 15 446 27 q 356 -11 388 -2 q 268 -21 325 -21 q 179 -3 221 -21 q 105 46 137 14 q 57 123 75 77 q 39 219 39 169 q 72 354 39 298 q 177 441 105 409 q 327 482 240 471 q 514 499 413 493 l 514 523 q 500 595 514 567 q 462 637 486 622 q 403 657 438 652 q 330 663 368 663 q 227 649 286 663 q 108 612 167 636 l 101 612 l 101 741 q 202 763 136 751 q 332 776 267 776 q 463 763 410 776 q 559 719 517 751 q 621 638 601 688 q 642 518 642 589 l 642 0 l 514 0 l 514 80 m 567 1137 l 381 883 l 281 883 l 402 1137 l 567 1137 "},"ﯼ":{"x_min":62,"x_max":1152,"ha":1211,"o":"m 1152 574 l 1145 574 q 1034 625 1097 603 q 893 648 970 648 q 780 620 830 648 q 730 550 730 593 q 802 485 730 514 q 931 436 874 457 q 1004 405 965 423 q 1069 366 1043 386 q 1115 319 1098 345 q 1132 258 1132 294 q 967 65 1132 131 q 479 0 803 0 q 162 72 262 0 q 62 299 62 144 q 68 405 62 352 q 76 471 74 458 l 193 471 l 193 464 q 183 396 191 454 q 175 301 175 339 q 244 167 175 206 q 480 128 313 128 q 885 162 752 128 q 1019 257 1019 196 q 946 316 1019 288 q 818 364 874 343 q 744 397 781 379 q 679 437 707 415 q 634 487 651 459 q 617 551 617 515 q 695 706 617 640 q 895 773 774 773 q 1041 756 977 773 q 1152 718 1105 740 l 1152 574 "},"ӆ":{"x_min":10,"x_max":795,"ha":771,"o":"m 795 110 l 671 -182 l 552 -182 l 635 0 l 551 0 l 551 651 l 291 651 l 286 543 q 282 448 285 509 q 244 155 274 244 q 170 39 219 83 q 61 -1 125 -1 q 35 0 52 -1 q 10 0 18 0 l 10 111 l 16 111 q 27 110 20 111 q 38 110 35 110 q 98 132 75 110 q 170 481 156 190 q 175 612 172 521 l 180 758 l 679 758 l 679 110 l 795 110 "},"ᵡ":{"x_min":0,"x_max":467,"ha":467,"o":"m 467 115 l 370 115 l 232 377 l 91 115 l 0 115 l 186 463 l 4 811 l 100 811 l 235 554 l 373 811 l 465 811 l 281 468 l 467 115 "},"K":{"x_min":102,"x_max":839,"ha":817,"o":"m 839 0 l 664 0 l 294 470 l 236 403 l 236 0 l 102 0 l 102 1010 l 236 1010 l 236 545 l 651 1010 l 815 1010 l 395 558 l 839 0 "},"Y":{"x_min":-7,"x_max":809,"ha":800,"o":"m 809 1010 l 468 447 l 468 0 l 334 0 l 334 432 l -7 1010 l 141 1010 l 401 564 l 666 1010 l 809 1010 "},"E":{"x_min":102,"x_max":734,"ha":779,"o":"m 102 0 l 102 1010 l 734 1010 l 734 891 l 236 891 l 236 614 l 700 614 l 700 495 l 236 495 l 236 119 l 734 119 l 734 0 l 102 0 "},"Ƥ":{"x_min":0,"x_max":862,"ha":888,"o":"m 862 705 q 773 480 862 568 q 472 376 668 376 l 358 376 l 358 0 l 224 0 l 224 894 q 144 883 168 894 q 109 825 109 868 q 132 724 109 768 l 132 718 l 16 718 q 0 831 0 777 q 58 965 0 920 q 224 1010 116 1010 l 478 1010 q 741 946 650 1010 q 862 705 862 864 m 722 701 q 649 855 722 807 q 469 894 590 894 l 358 894 l 358 491 l 449 491 q 664 551 605 491 q 722 701 722 609 "},"Ï":{"x_min":51,"x_max":467,"ha":518,"o":"m 455 0 l 63 0 l 63 103 l 192 103 l 192 907 l 63 907 l 63 1010 l 455 1010 l 455 907 l 326 907 l 326 103 l 455 103 l 455 0 m 467 1137 l 331 1137 l 331 1269 l 467 1269 l 467 1137 m 187 1137 l 51 1137 l 51 1269 l 187 1269 l 187 1137 "},"ῶ":{"x_min":43,"x_max":963,"ha":1006,"o":"m 963 339 q 947 209 963 279 q 901 93 931 139 q 820 10 869 41 q 696 -21 771 -21 q 582 12 633 -21 q 507 91 530 45 l 498 91 q 421 11 473 44 q 309 -21 370 -21 q 187 10 238 -21 q 104 93 135 41 q 58 205 73 142 q 43 339 43 269 q 83 560 43 463 q 205 758 124 657 l 357 758 l 357 746 q 221 568 269 668 q 173 339 173 468 q 179 256 173 300 q 200 174 185 213 q 245 113 216 138 q 317 88 273 88 q 401 113 371 88 q 440 168 431 139 l 440 566 l 566 566 l 566 168 q 580 142 570 159 q 602 115 590 126 q 635 95 617 102 q 688 88 653 88 q 761 113 732 88 q 805 174 790 138 q 826 253 820 211 q 833 339 833 295 q 784 569 833 468 q 649 746 735 671 l 649 758 l 800 758 q 921 563 880 658 q 963 339 963 468 m 786 1106 q 735 947 779 1000 q 619 895 691 895 q 554 907 583 895 q 495 947 524 920 q 444 990 465 975 q 401 1005 422 1004 q 354 974 368 1005 q 339 892 341 943 l 244 892 q 295 1049 248 996 q 410 1103 342 1103 q 473 1089 444 1103 q 532 1050 503 1076 q 584 1010 561 1024 q 627 997 608 997 q 674 1027 659 997 q 691 1106 688 1057 l 786 1106 "},"ứ":{"x_min":87,"x_max":909,"ha":842,"o":"m 682 0 l 554 0 l 554 84 q 442 5 495 32 q 324 -21 389 -21 q 231 -4 275 -21 q 155 46 187 11 q 104 135 122 82 q 87 266 87 189 l 87 758 l 215 758 l 215 326 q 219 225 215 265 q 239 156 223 186 q 281 113 254 127 q 358 100 308 100 q 457 126 404 100 q 554 191 510 153 l 554 758 l 695 758 q 781 780 756 758 q 807 850 807 802 q 799 905 807 874 q 784 951 792 936 l 784 958 l 892 958 q 905 902 901 926 q 909 844 909 878 q 850 710 909 755 q 683 666 792 666 l 682 666 l 682 0 m 588 1137 l 402 883 l 302 883 l 423 1137 l 588 1137 "},"ȴ":{"x_min":54,"x_max":583,"ha":591,"o":"m 583 -99 q 379 -286 583 -286 q 205 -200 275 -286 q 121 -286 138 -266 l 54 -199 q 140 -111 91 -156 q 94 110 94 -17 l 94 1055 l 222 1055 l 222 110 q 246 -25 222 47 q 314 36 308 32 q 408 66 356 66 q 536 23 489 66 q 583 -99 583 -19 m 472 -99 q 410 -45 472 -45 q 301 -120 375 -45 q 390 -175 340 -175 q 472 -99 472 -175 "},"Ɖ":{"x_min":16,"x_max":927,"ha":970,"o":"m 927 503 q 870 254 927 365 q 720 80 814 143 q 565 15 645 30 q 362 0 485 0 l 130 0 l 130 502 l 16 502 l 16 599 l 130 599 l 130 1010 l 360 1010 q 583 988 502 1010 q 721 929 664 967 q 873 758 819 865 q 927 503 927 651 m 787 506 q 748 704 787 622 q 633 833 709 787 q 518 879 579 865 q 366 894 457 894 l 264 894 l 264 599 l 486 599 l 486 502 l 264 502 l 264 116 l 366 116 q 523 130 456 116 q 646 183 590 145 q 751 309 716 230 q 787 506 787 388 "},"ⱴ":{"x_min":4,"x_max":712,"ha":716,"o":"m 371 164 l 579 758 l 712 758 l 426 0 l 336 0 l 122 389 l 44 349 l 4 431 l 82 471 q 61 542 68 506 q 54 616 54 578 q 68 686 54 656 q 105 734 82 715 q 157 761 127 752 q 217 771 186 771 q 275 762 247 771 q 323 736 302 753 q 357 692 344 718 q 370 632 370 666 q 359 573 370 600 q 330 525 349 547 q 284 483 311 503 q 224 444 257 463 l 371 164 m 268 622 q 255 663 268 647 q 217 679 242 679 q 180 663 197 679 q 164 611 164 647 q 169 567 164 587 q 184 523 174 546 q 246 569 225 546 q 268 622 268 592 "},"ᶈ":{"x_min":92,"x_max":728,"ha":768,"o":"m 728 398 q 637 97 728 209 q 408 -15 546 -15 q 308 -2 352 -15 q 220 37 265 10 l 220 -279 l 92 -279 l 92 758 l 220 758 l 220 678 q 325 750 267 721 q 451 779 383 779 q 655 675 582 779 q 728 398 728 572 m 596 385 q 554 586 596 514 q 420 658 513 658 q 315 633 366 658 q 220 571 265 609 l 220 142 q 305 108 270 117 q 387 100 341 100 q 541 172 486 100 q 596 385 596 245 m 682 -21 q 612 -218 682 -150 q 420 -286 543 -286 q 373 -283 399 -286 q 322 -277 347 -281 l 322 -163 l 329 -163 q 362 -169 344 -166 q 396 -173 380 -173 q 479 -160 447 -173 q 528 -120 512 -148 q 549 -63 543 -96 q 554 -9 554 -30 l 554 175 l 682 175 l 682 -21 "},"ᴇ":{"x_min":92,"x_max":593,"ha":632,"o":"m 593 0 l 92 0 l 92 758 l 593 758 l 593 652 l 220 652 l 220 468 l 567 468 l 567 362 l 220 362 l 220 106 l 593 106 l 593 0 "},"ݘ":{"x_min":54,"x_max":760,"ha":846,"o":"m 760 381 l 739 381 q 499 364 601 381 q 319 309 397 347 q 207 214 247 274 q 167 75 167 155 q 244 -97 167 -31 q 444 -163 322 -163 q 610 -141 536 -163 q 739 -85 684 -120 l 746 -85 l 746 -221 q 620 -269 686 -251 q 445 -288 554 -288 q 163 -188 272 -288 q 54 76 54 -89 q 92 227 54 154 q 213 355 130 299 q 368 425 281 401 q 540 455 455 450 q 379 509 457 494 q 190 524 300 524 l 139 524 l 139 649 l 198 649 q 448 605 308 649 q 710 486 588 561 l 760 486 l 760 381 m 414 -16 l 314 -16 l 314 84 l 414 84 l 414 -16 m 614 -16 l 514 -16 l 514 84 l 614 84 l 614 -16 m 514 125 l 414 125 l 414 225 l 514 225 l 514 125 "},"ể":{"x_min":40,"x_max":771,"ha":731,"o":"m 421 -17 q 140 85 240 -17 q 40 374 40 187 q 136 669 40 560 q 390 779 233 779 q 515 758 460 779 q 609 694 569 738 q 672 588 650 651 q 694 435 694 526 l 694 366 l 170 366 q 236 163 170 233 q 419 94 302 94 q 502 103 461 94 q 575 128 542 113 q 633 158 609 143 q 672 186 656 173 l 680 186 l 680 46 q 624 24 657 37 q 564 4 591 11 q 497 -11 527 -6 q 421 -17 467 -17 m 570 464 q 557 552 568 515 q 526 615 546 590 q 469 659 504 644 q 383 674 434 674 q 296 658 332 674 q 232 614 261 643 q 188 548 203 584 q 170 464 174 512 l 570 464 m 620 880 l 512 880 l 386 1053 l 262 880 l 157 880 l 311 1137 l 465 1137 l 620 880 m 771 1170 q 748 1100 771 1127 q 682 1060 726 1074 l 682 1014 l 607 1014 l 607 1096 q 654 1117 638 1104 q 671 1157 671 1130 q 658 1186 671 1173 q 623 1200 645 1200 q 589 1196 602 1200 q 561 1187 577 1193 l 559 1187 l 559 1258 q 596 1266 571 1262 q 647 1271 621 1271 q 736 1241 701 1271 q 771 1170 771 1212 "},"ͦ":{"x_min":-170,"x_max":168,"ha":0,"o":"m 168 1037 q 128 897 168 950 q 0 838 83 838 q -130 896 -85 838 q -170 1037 -170 949 q -130 1177 -170 1124 q 0 1237 -85 1237 q 128 1177 83 1237 q 168 1037 168 1123 m 102 1037 q 0 1182 102 1182 q -77 1146 -51 1182 q -104 1037 -104 1111 q 0 893 -104 893 q 102 1037 102 893 "},"ϋ":{"x_min":87,"x_max":686,"ha":773,"o":"m 686 272 q 608 51 686 124 q 386 -21 530 -21 q 165 50 244 -21 q 87 272 87 122 l 87 758 l 215 758 l 215 315 q 221 213 215 255 q 246 144 227 171 q 298 102 265 115 q 386 89 330 89 q 475 102 440 89 q 527 145 509 116 q 552 219 547 176 q 558 315 558 261 l 558 758 l 686 758 l 686 272 m 595 884 l 459 884 l 459 1016 l 595 1016 l 595 884 m 315 884 l 179 884 l 179 1016 l 315 1016 l 315 884 "},"ﺙ":{"x_min":62,"x_max":1059,"ha":1121,"o":"m 560 120 q 736 135 661 120 q 860 183 811 151 q 926 253 906 214 q 946 340 946 292 q 938 402 946 361 q 928 460 931 442 l 928 467 l 1045 467 q 1053 406 1048 444 q 1059 331 1059 369 q 935 79 1059 167 q 559 -8 812 -8 q 185 80 309 -8 q 62 331 62 168 q 67 406 62 369 q 76 467 72 444 l 193 467 l 193 460 q 182 402 189 442 q 175 340 175 361 q 194 253 175 292 q 260 183 213 213 q 385 135 309 151 q 560 120 460 120 m 508 553 l 408 553 l 408 653 l 508 653 l 508 553 m 708 553 l 608 553 l 608 653 l 708 653 l 708 553 m 608 694 l 508 694 l 508 794 l 608 794 l 608 694 "},"ἶ":{"x_min":-109,"x_max":433,"ha":317,"o":"m 223 0 l 95 0 l 95 758 l 223 758 l 223 0 m 433 1364 q 266 1153 419 1153 q 142 1205 198 1153 q 48 1263 82 1263 q -14 1150 -7 1263 l -109 1150 q -68 1293 -104 1237 q 57 1361 -24 1361 q 179 1309 120 1361 q 274 1255 239 1255 q 338 1364 333 1255 l 433 1364 m 232 991 q 197 879 232 929 q 103 811 161 825 l 103 886 q 167 985 167 894 l 102 985 l 102 1110 l 232 1110 l 232 991 "},"ן":{"x_min":20,"x_max":405,"ha":503,"o":"m 405 -279 l 288 -279 l 288 584 q 255 712 288 677 q 140 747 223 747 q 77 740 111 747 q 26 729 43 733 l 20 729 l 20 862 q 89 875 43 870 q 173 880 135 880 q 347 811 290 880 q 405 603 405 743 l 405 -279 "},"b":{"x_min":92,"x_max":728,"ha":768,"o":"m 596 381 q 554 587 596 517 q 421 658 513 658 q 316 633 369 658 q 220 571 263 608 l 220 137 q 305 103 268 113 q 387 94 342 94 q 540 163 484 94 q 596 381 596 232 m 728 391 q 637 92 728 205 q 411 -21 547 -21 q 306 -5 350 -21 q 220 35 262 9 l 211 0 l 92 0 l 92 1055 l 220 1055 l 220 678 q 324 750 268 722 q 451 779 380 779 q 654 676 580 779 q 728 391 728 573 "},"ﬂ":{"x_min":20,"x_max":643,"ha":737,"o":"m 643 0 l 515 0 l 515 952 q 470 955 496 954 q 427 957 443 957 q 273 920 317 957 q 230 789 230 884 l 230 758 l 394 758 l 394 652 l 234 652 l 234 0 l 106 0 l 106 652 l 20 652 l 20 758 l 106 758 l 106 791 q 127 911 106 860 q 188 995 149 961 q 285 1045 226 1028 q 412 1062 344 1062 q 501 1057 453 1062 q 576 1050 549 1052 l 643 1055 l 643 0 "},"ɢ":{"x_min":39,"x_max":660,"ha":747,"o":"m 660 45 q 404 -21 511 -21 q 127 93 222 -21 q 39 380 39 198 q 134 667 39 559 q 405 779 233 779 q 657 712 524 779 l 657 589 l 648 589 q 393 670 514 670 q 171 383 171 670 q 214 175 171 245 q 400 88 270 88 q 532 112 473 88 l 532 275 l 381 275 l 381 382 l 660 382 l 660 45 "},"Ʈ":{"x_min":-1,"x_max":811,"ha":811,"o":"m 811 891 l 472 891 l 472 0 q 503 -132 472 -90 q 632 -174 535 -174 q 698 -165 659 -174 l 706 -165 l 706 -278 q 607 -287 654 -287 q 411 -218 479 -287 q 338 0 338 -144 l 338 891 l -1 891 l -1 1010 l 811 1010 l 811 891 "},"Ὢ":{"x_min":0,"x_max":1255,"ha":1279,"o":"m 1255 0 l 876 0 l 876 262 q 957 318 917 287 q 1024 387 997 349 q 1071 477 1055 429 q 1087 605 1087 526 q 1069 726 1087 669 q 1014 825 1051 784 q 922 890 978 866 q 794 915 866 915 q 665 891 720 915 q 570 824 609 867 q 515 726 534 785 q 496 605 496 667 q 513 478 496 531 q 561 386 531 424 q 631 318 591 348 q 712 262 671 287 l 712 0 l 334 0 l 334 118 l 599 118 l 599 202 q 505 270 549 230 q 428 362 461 311 q 375 475 394 413 q 356 605 356 536 q 385 775 356 699 q 472 909 414 850 q 610 998 527 965 q 794 1031 693 1031 q 975 999 894 1031 q 1113 910 1057 967 q 1197 775 1168 853 q 1227 605 1227 697 q 1208 474 1227 535 q 1158 362 1189 412 q 1082 271 1126 312 q 989 202 1039 231 l 989 118 l 1255 118 l 1255 0 m 382 876 l 295 876 l 167 1137 l 320 1137 l 382 876 m 130 1018 q 95 906 130 956 q 1 838 59 852 l 1 913 q 65 1012 65 921 l 0 1012 l 0 1137 l 130 1137 l 130 1018 "},"Ḡ":{"x_min":45,"x_max":861,"ha":927,"o":"m 525 -20 q 329 12 418 -20 q 176 111 240 45 q 78 277 112 178 q 45 505 45 376 q 79 724 45 627 q 177 889 113 821 q 329 992 239 956 q 526 1028 419 1028 q 624 1020 577 1028 q 713 1000 671 1013 q 789 972 747 990 q 857 941 831 954 l 857 779 l 845 779 q 793 821 820 801 q 717 864 766 841 q 624 898 677 884 q 510 912 571 912 q 274 802 364 912 q 185 509 185 692 q 208 332 185 408 q 277 203 232 256 q 381 123 320 150 q 519 96 442 96 q 632 104 576 96 q 727 128 688 112 l 727 390 l 495 390 l 495 508 l 861 508 l 861 66 q 792 37 835 55 q 711 9 749 20 q 622 -12 662 -5 q 525 -20 582 -20 m 747 1151 l 236 1151 l 236 1256 l 747 1256 l 747 1151 "},"ﭢ":{"x_min":62,"x_max":1059,"ha":1121,"o":"m 560 120 q 736 135 661 120 q 860 183 811 151 q 926 253 906 214 q 946 340 946 292 q 938 402 946 361 q 928 460 931 442 l 928 467 l 1045 467 q 1053 406 1048 444 q 1059 331 1059 369 q 935 79 1059 167 q 559 -8 812 -8 q 185 80 309 -8 q 62 331 62 168 q 67 406 62 369 q 76 467 72 444 l 193 467 l 193 460 q 182 402 189 442 q 175 340 175 361 q 194 253 175 292 q 260 183 213 213 q 385 135 309 151 q 560 120 460 120 m 701 694 l 601 694 l 601 794 l 701 794 l 701 694 m 701 553 l 601 553 l 601 653 l 701 653 l 701 553 m 520 694 l 420 694 l 420 794 l 520 794 l 520 694 m 520 553 l 420 553 l 420 653 l 520 653 l 520 553 "},"ȭ":{"x_min":39,"x_max":715,"ha":754,"o":"m 715 378 q 622 83 715 187 q 377 -21 530 -21 q 129 86 219 -21 q 39 378 39 194 q 132 673 39 568 q 377 779 225 779 q 622 674 530 779 q 715 378 715 569 m 583 378 q 529 597 583 525 q 377 669 476 669 q 224 597 278 669 q 171 378 171 525 q 224 162 171 236 q 377 89 278 89 q 529 161 475 89 q 583 378 583 233 m 650 1167 l 108 1167 l 108 1271 l 650 1271 l 650 1167 m 650 1106 q 483 895 636 895 q 359 947 415 895 q 265 1005 299 1005 q 203 892 209 1005 l 108 892 q 148 1035 112 979 q 274 1103 192 1103 q 396 1051 337 1103 q 491 997 456 997 q 555 1106 550 997 l 650 1106 "},"Ŋ":{"x_min":102,"x_max":825,"ha":927,"o":"m 700 -7 l 227 870 l 227 0 l 102 0 l 102 1010 l 292 1010 l 700 251 l 700 1010 l 825 1010 l 825 -18 q 755 -216 825 -147 q 564 -286 686 -286 q 517 -283 543 -286 q 466 -277 491 -281 l 466 -164 l 473 -164 q 506 -170 488 -167 q 540 -173 523 -173 q 669 -131 637 -173 q 700 -7 700 -89 "},"ُ":{"x_min":0,"x_max":336,"ha":0,"o":"m 336 1178 l 250 1196 q 127 1143 188 1161 q 0 1121 67 1125 l 0 1181 q 95 1193 50 1184 q 184 1223 140 1203 q 123 1262 149 1234 q 97 1329 97 1290 q 128 1405 97 1375 q 213 1436 160 1436 q 294 1405 260 1436 q 329 1326 329 1374 q 316 1278 329 1303 q 293 1244 304 1253 l 336 1236 l 336 1178 m 235 1261 q 259 1288 250 1273 q 268 1327 268 1304 q 251 1359 268 1347 q 216 1372 235 1372 q 176 1360 192 1372 q 161 1327 161 1349 q 180 1287 161 1304 q 235 1261 199 1270 "},"ﻴ":{"x_min":-47,"x_max":488,"ha":488,"o":"m 488 0 l 408 0 q 316 22 366 0 q 243 83 265 45 q 172 21 219 43 q 79 0 124 0 l -47 0 l -47 128 l 49 128 q 148 169 110 128 q 186 289 186 211 l 186 371 l 300 371 l 300 289 q 338 172 300 216 q 439 128 376 128 l 488 128 l 488 0 m 122 -210 l 22 -210 l 22 -110 l 122 -110 l 122 -210 m 303 -210 l 203 -210 l 203 -110 l 303 -110 l 303 -210 "},"۾":{"x_min":0,"x_max":750,"ha":821,"o":"m 750 229 q 690 60 750 128 q 529 -11 628 -11 q 377 37 445 -11 q 298 127 323 75 q 185 -134 257 -38 q 0 -288 108 -245 l 0 -148 q 180 88 112 -104 q 224 234 199 138 q 270 373 248 326 q 478 524 341 524 q 666 444 587 524 q 750 229 750 361 m 588 -244 l 538 -244 l 538 -48 l 588 -48 l 588 -244 m 487 -244 l 437 -244 l 437 -48 l 487 -48 l 487 -244 m 637 222 q 603 335 637 285 q 493 395 562 395 q 407 363 440 395 q 374 280 374 332 q 412 164 374 212 q 520 114 454 114 q 604 143 571 114 q 637 222 637 172 "},"Ẋ":{"x_min":5,"x_max":800,"ha":806,"o":"m 800 0 l 646 0 l 400 404 l 150 0 l 5 0 l 326 504 l 15 1010 l 168 1010 l 409 613 l 654 1010 l 800 1010 l 483 512 l 800 0 m 492 1137 l 347 1137 l 347 1269 l 492 1269 l 492 1137 "},"ď":{"x_min":40,"x_max":1000,"ha":954,"o":"m 676 0 l 548 0 l 548 77 q 496 35 518 52 q 445 6 474 19 q 389 -13 418 -6 q 321 -21 360 -21 q 207 4 259 -21 q 118 80 154 30 q 60 203 80 130 q 40 373 40 277 q 65 545 40 472 q 136 673 91 618 q 237 750 178 722 q 360 779 295 779 q 459 766 417 779 q 548 727 501 753 l 548 1055 l 676 1055 l 676 0 m 548 184 l 548 621 q 462 653 500 644 q 381 662 425 662 q 227 588 283 662 q 172 375 172 514 q 214 170 172 241 q 351 100 257 100 q 452 122 401 100 q 548 184 503 145 m 1000 1055 l 837 713 l 751 713 l 847 1055 l 1000 1055 "},"ﻺ":{"x_min":35.75,"x_max":986,"ha":986,"o":"m 906 0 q 771 41 828 0 q 689 166 714 83 q 540 43 628 87 q 354 0 451 0 q 228 4 286 0 q 160 9 169 8 l 160 144 l 166 144 q 246 133 187 138 q 355 128 306 128 q 387 131 377 128 q 401 136 398 134 l 35 1004 l 166 1004 l 516 178 q 611 266 572 201 q 650 390 650 332 l 650 1055 l 763 1055 l 763 382 q 768 291 763 331 q 792 210 773 252 q 835 151 807 174 q 904 128 863 128 l 986 128 l 986 0 l 906 0 m 846 0 l 846 0 m 442 -286 l 214 -286 l 214 -222 l 264 -222 q 237 -193 248 -213 q 227 -153 227 -174 q 258 -77 227 -109 q 344 -45 290 -45 q 397 -49 380 -45 q 422 -56 415 -53 l 422 -125 l 417 -125 q 385 -114 408 -120 q 346 -109 363 -109 q 301 -121 316 -109 q 287 -153 287 -133 q 318 -202 287 -183 q 391 -222 349 -222 l 442 -222 l 442 -286 "},"ṯ":{"x_min":13,"x_max":524,"ha":465,"o":"m 321 -15 q 158 44 216 -15 q 100 231 100 103 l 100 652 l 14 652 l 14 758 l 100 758 l 100 976 l 228 976 l 228 758 l 463 758 l 463 652 l 228 652 l 228 291 q 230 202 228 233 q 245 143 232 170 q 283 107 257 119 q 352 96 308 96 q 413 105 384 96 q 455 120 442 114 l 463 120 l 463 6 q 389 -9 426 -3 q 321 -15 352 -15 m 524 -240 l 13 -240 l 13 -135 l 524 -135 l 524 -240 "},"ŧ":{"x_min":21,"x_max":469,"ha":471,"o":"m 328 -15 q 165 44 223 -15 q 107 231 107 103 l 107 361 l 21 361 l 21 453 l 107 453 l 107 652 l 21 652 l 21 758 l 107 758 l 107 976 l 235 976 l 235 758 l 469 758 l 469 652 l 235 652 l 235 453 l 418 453 l 418 361 l 235 361 l 235 291 q 237 202 235 233 q 252 143 239 170 q 289 107 264 119 q 359 96 315 96 q 419 105 390 96 q 461 120 448 114 l 469 120 l 469 6 q 396 -9 433 -3 q 328 -15 359 -15 "},"ﺧ":{"x_min":-47,"x_max":869,"ha":916,"o":"m 869 312 q 439 105 701 211 q 57 0 176 0 l -47 0 l -47 128 l 60 128 q 325 185 155 128 q 616 306 495 243 q 428 387 557 347 q 164 428 300 428 l 85 428 l 85 553 l 171 553 q 445 505 296 553 q 733 370 593 457 l 869 440 l 869 312 m 446 671 l 346 671 l 346 771 l 446 771 l 446 671 "},"À":{"x_min":-7,"x_max":840,"ha":833,"o":"m -7 0 l 333 1010 l 499 1010 l 840 0 l 698 0 l 607 282 l 220 282 l 129 0 l -7 0 m 569 397 l 413 872 l 258 397 l 569 397 m 520 1136 l 419 1136 l 234 1390 l 398 1390 l 520 1136 "},"Ώ":{"x_min":1,"x_max":951,"ha":975,"o":"m 951 0 l 572 0 l 572 262 q 653 318 613 287 q 720 387 693 349 q 767 477 751 429 q 783 605 783 526 q 765 726 783 669 q 710 825 747 784 q 618 890 674 866 q 490 915 562 915 q 361 891 416 915 q 266 824 305 867 q 211 726 230 785 q 192 605 192 667 q 209 478 192 531 q 257 386 227 424 q 327 318 287 348 q 408 262 367 287 l 408 0 l 30 0 l 30 118 l 295 118 l 295 202 q 201 270 245 230 q 124 362 157 311 q 71 475 90 413 q 52 605 52 536 q 81 775 52 699 q 168 909 110 850 q 306 998 223 965 q 490 1031 389 1031 q 671 999 590 1031 q 809 910 753 967 q 893 775 864 853 q 923 605 923 697 q 904 474 923 535 q 854 362 885 412 q 778 271 822 312 q 685 202 735 231 l 685 118 l 951 118 l 951 0 m 216 1144 l 88 884 l 1 884 l 63 1144 l 216 1144 "},"ᴧ":{"x_min":4,"x_max":688,"ha":692,"o":"m 688 0 l 555 0 l 341 571 l 137 0 l 4 0 l 287 758 l 402 758 l 688 0 "},"̟":{"x_min":-127,"x_max":127,"ha":0,"o":"m 44 -285 l -44 -285 l -44 -202 l -127 -202 l -127 -114 l -44 -114 l -44 -30 l 44 -30 l 44 -114 l 127 -114 l 127 -202 l 44 -202 l 44 -285 "},"'":{"x_min":71,"x_max":222,"ha":293,"o":"m 222 1055 l 192 662 l 100 662 l 71 1055 l 222 1055 "},"؁":{"x_min":47,"x_max":2105,"ha":2153,"o":"m 2105 -84 q 1948 -288 2105 -207 l 1907 -219 q 1992 -143 1992 -174 q 1974 -128 1992 -128 q 1757 -159 1923 -128 q 1494 -211 1625 -185 q 1011 -288 1083 -288 q 918 -265 965 -288 q 846 -204 867 -241 q 669 -288 796 -288 q 492 -172 583 -288 q 444 -128 457 -128 q 393 -173 423 -128 q 332 -242 374 -201 q 214 -288 285 -288 q 47 -114 47 -288 q 65 0 47 -64 l 175 0 l 175 -6 q 159 -104 159 -54 q 214 -160 159 -160 q 279 -117 249 -160 q 343 -42 306 -81 q 450 0 382 0 q 541 -37 502 0 q 604 -115 553 -50 q 667 -160 639 -160 q 759 -120 726 -160 q 789 -25 789 -83 l 789 0 l 903 0 l 903 -25 q 1042 -160 903 -160 q 1213 -138 1098 -160 q 1473 -88 1343 -113 q 1742 -34 1607 -61 q 2001 0 1928 0 q 2105 -84 2105 0 "},"סּ":{"x_min":14,"x_max":930,"ha":1015,"o":"m 250 724 l 250 417 q 275 260 250 320 q 342 167 301 200 q 432 124 383 135 q 531 114 481 114 q 629 125 577 114 q 720 167 680 136 q 788 256 763 202 q 813 417 813 311 q 786 576 813 517 q 718 669 760 636 q 624 712 676 701 q 517 724 571 724 l 250 724 m 14 859 l 517 859 q 682 835 609 859 q 812 757 755 812 q 899 618 869 702 q 930 417 930 533 q 897 214 930 299 q 812 78 865 128 q 685 2 757 26 q 531 -21 613 -21 q 378 3 451 -21 q 250 78 304 27 q 164 214 196 130 q 133 417 133 298 l 133 724 l 14 724 l 14 859 m 577 444 q 564 411 577 424 q 531 399 551 399 q 498 411 511 399 q 486 444 486 424 q 498 477 486 464 q 531 490 511 490 q 564 477 551 490 q 577 444 577 464 "},"˾":{"x_min":124,"x_max":635,"ha":758,"o":"m 635 -285 l 124 -285 l 124 -30 l 228 -30 l 228 -181 l 635 -181 l 635 -285 "},"ڻ":{"x_min":62,"x_max":858,"ha":920,"o":"m 858 359 q 826 191 858 261 q 740 76 794 121 q 616 11 687 33 q 461 -10 546 -10 q 307 11 380 -10 q 180 76 234 32 q 93 192 125 122 q 62 359 62 262 q 70 494 62 428 q 81 570 79 561 l 204 570 l 204 558 q 185 470 195 532 q 175 358 175 409 q 259 183 175 249 q 458 118 343 118 q 659 182 574 118 q 745 358 745 247 q 734 470 745 409 q 716 558 724 532 l 716 570 l 839 570 q 849 494 840 561 q 858 359 858 428 m 664 775 q 604 685 664 715 q 495 663 558 663 l 300 663 l 300 725 l 355 725 q 370 741 370 735 l 370 1081 l 426 1081 l 426 811 q 554 888 496 888 q 633 856 602 888 q 664 775 664 824 m 607 773 q 591 810 607 795 q 554 826 576 826 q 433 725 505 826 l 465 725 q 607 773 607 725 "},"Պ":{"x_min":24,"x_max":866,"ha":956,"o":"m 370 355 l 370 912 q 271 882 311 903 q 205 824 230 860 q 169 740 180 789 q 158 629 158 691 l 158 619 l 24 619 l 24 629 q 126 930 24 829 q 444 1031 228 1031 q 634 1005 554 1031 q 765 928 714 979 q 841 802 817 877 q 866 630 866 727 l 866 0 l 732 0 l 732 633 q 719 745 732 696 q 679 829 706 794 q 608 885 651 865 q 504 913 565 906 l 504 355 l 370 355 "},"ﭗ":{"x_min":62,"x_max":1302,"ha":1302,"o":"m 1302 0 l 1222 0 q 1130 22 1180 0 q 1057 83 1079 45 q 975 22 1029 44 q 847 0 921 0 l 559 0 q 185 88 309 0 q 62 340 62 176 q 67 426 62 390 q 76 475 73 462 l 193 475 l 193 468 q 182 417 190 458 q 175 348 175 376 q 195 261 175 302 q 260 191 215 220 q 385 143 310 159 q 561 128 460 128 q 724 128 659 128 q 817 128 789 128 q 956 167 912 128 q 1001 289 1001 207 q 997 329 1001 307 q 992 360 993 352 l 992 371 l 1107 371 q 1111 326 1109 358 q 1114 283 1114 294 q 1149 173 1114 218 q 1253 128 1184 128 l 1302 128 l 1302 0 m 592 -145 l 492 -145 l 492 -45 l 592 -45 l 592 -145 m 792 -145 l 692 -145 l 692 -45 l 792 -45 l 792 -145 m 692 -286 l 592 -286 l 592 -186 l 692 -186 l 692 -286 "},"Ѿ":{"x_min":45,"x_max":1543,"ha":1588,"o":"m 1543 505 q 1411 111 1543 249 q 1063 -20 1286 -20 q 966 -12 1006 -20 q 877 9 933 -6 q 795 38 832 22 q 622 -12 710 3 q 525 -20 582 -20 q 176 111 302 -20 q 45 505 45 249 q 177 889 45 747 q 526 1028 306 1028 q 714 1000 621 1028 l 714 867 l 702 867 q 510 912 610 912 q 263 786 351 912 q 185 509 185 675 q 277 203 185 313 q 519 96 367 96 q 728 128 650 96 l 728 390 l 495 390 l 495 508 l 1095 508 l 1095 390 l 862 390 l 862 128 q 1069 96 939 96 q 1311 203 1221 96 q 1403 509 1403 313 q 1325 786 1403 676 q 1078 912 1238 912 q 887 867 979 912 l 876 867 l 876 1000 q 1062 1028 968 1028 q 1411 889 1282 1028 q 1543 505 1543 747 m 1104 1309 l 1043 1176 l 1020 1176 l 988 1245 l 837 1245 l 806 1176 l 783 1176 l 751 1245 l 600 1245 l 569 1176 l 546 1176 l 484 1309 l 1104 1309 "},"ṏ":{"x_min":39,"x_max":715,"ha":754,"o":"m 715 378 q 622 83 715 187 q 377 -21 530 -21 q 129 86 219 -21 q 39 378 39 194 q 132 673 39 568 q 377 779 225 779 q 622 674 530 779 q 715 378 715 569 m 583 378 q 529 597 583 525 q 377 669 476 669 q 224 597 278 669 q 171 378 171 525 q 224 162 171 236 q 377 89 278 89 q 529 161 475 89 q 583 378 583 233 m 587 1167 l 451 1167 l 451 1299 l 587 1299 l 587 1167 m 307 1167 l 171 1167 l 171 1299 l 307 1299 l 307 1167 m 650 1106 q 483 895 636 895 q 359 947 415 895 q 265 1005 299 1005 q 203 892 209 1005 l 108 892 q 148 1035 112 979 q 274 1103 192 1103 q 396 1051 337 1103 q 491 997 456 997 q 555 1106 550 997 l 650 1106 "},"ٴ":{"x_min":60,"x_max":288,"ha":0,"o":"m 288 1082 l 60 1082 l 60 1146 l 110 1146 q 83 1174 94 1154 q 73 1214 73 1193 q 104 1290 73 1258 q 190 1323 136 1323 q 243 1318 226 1323 q 268 1312 261 1314 l 268 1243 l 263 1243 q 231 1253 254 1247 q 192 1259 209 1259 q 147 1246 162 1259 q 133 1214 133 1234 q 164 1165 133 1184 q 237 1146 195 1146 l 288 1146 l 288 1082 "},"Ɠ":{"x_min":45,"x_max":1057,"ha":927,"o":"m 1057 1014 l 1050 1014 q 949 1038 1006 1038 q 857 926 857 1038 l 857 779 l 845 779 q 793 821 816 804 q 717 864 771 838 q 510 912 620 912 q 262 786 351 912 q 185 509 185 675 q 277 203 185 313 q 519 96 367 96 q 727 128 649 96 l 727 390 l 495 390 l 495 508 l 861 508 l 861 66 q 711 9 773 27 q 525 -20 608 -20 q 176 111 302 -20 q 45 505 45 249 q 177 889 45 747 q 526 1028 306 1028 q 714 1000 621 1028 q 772 979 743 991 q 943 1140 800 1140 q 1057 1123 998 1140 l 1057 1014 "},"Ć":{"x_min":45,"x_max":811,"ha":834,"o":"m 497 -18 q 315 15 398 -18 q 171 114 232 48 q 78 278 111 179 q 45 503 45 376 q 77 724 45 630 q 171 889 109 819 q 314 992 231 956 q 499 1028 396 1028 q 594 1020 550 1028 q 676 1001 638 1013 q 743 976 709 991 q 811 942 777 960 l 811 780 l 800 780 q 754 819 782 796 q 687 864 726 842 q 603 899 648 885 q 498 913 557 913 q 376 886 433 913 q 275 808 318 860 q 208 679 232 757 q 185 503 185 601 q 210 325 185 400 q 278 198 235 250 q 377 123 320 148 q 498 98 434 98 q 605 112 556 98 q 693 148 655 126 q 758 191 731 169 q 800 229 785 213 l 811 229 l 811 68 q 748 39 777 53 q 676 11 718 24 q 595 -10 632 -3 q 497 -18 557 -18 m 660 1390 l 474 1136 l 374 1136 l 495 1390 l 660 1390 "},"ẓ":{"x_min":33,"x_max":589,"ha":617,"o":"m 589 0 l 33 0 l 33 94 l 429 653 l 49 653 l 49 758 l 582 758 l 582 667 l 183 107 l 589 107 l 589 0 m 384 -259 l 239 -259 l 239 -127 l 384 -127 l 384 -259 "},"֗":{"x_min":-95,"x_max":96,"ha":0,"o":"m 96 1041 l 0 921 l -95 1041 l 0 1162 l 96 1041 "},"ﯚ":{"x_min":0,"x_max":617,"ha":617,"o":"m 617 0 l 496 0 q 416 -151 473 -93 q 271 -242 359 -210 q 124 -279 191 -271 q 0 -288 56 -288 l 0 -160 q 100 -154 44 -160 q 208 -133 155 -149 q 318 -78 280 -112 q 374 2 356 -45 q 211 41 274 10 q 110 115 148 71 q 59 205 73 158 q 46 291 46 253 q 112 469 46 393 q 260 546 178 546 q 444 428 373 546 q 515 128 515 311 l 617 128 l 617 0 m 202 199 q 274 154 227 174 q 398 129 321 134 q 358 341 394 264 q 269 418 323 418 q 192 379 222 418 q 163 296 163 341 q 169 251 163 276 q 202 199 176 226 m 579 0 l 579 0 m 382 853 l 288 659 l 222 659 l 129 853 l 202 853 l 255 721 l 309 853 l 382 853 "},"Ğ":{"x_min":45,"x_max":861,"ha":927,"o":"m 525 -20 q 329 12 418 -20 q 176 111 240 45 q 78 277 112 178 q 45 505 45 376 q 79 724 45 627 q 177 889 113 821 q 329 992 239 956 q 526 1028 419 1028 q 624 1020 577 1028 q 713 1000 671 1013 q 789 972 747 990 q 857 941 831 954 l 857 779 l 845 779 q 793 821 820 801 q 717 864 766 841 q 624 898 677 884 q 510 912 571 912 q 274 802 364 912 q 185 509 185 692 q 208 332 185 408 q 277 203 232 256 q 381 123 320 150 q 519 96 442 96 q 632 104 576 96 q 727 128 688 112 l 727 390 l 495 390 l 495 508 l 861 508 l 861 66 q 792 37 835 55 q 711 9 749 20 q 622 -12 662 -5 q 525 -20 582 -20 m 723 1362 q 708 1256 723 1303 q 668 1175 694 1208 q 598 1121 637 1139 q 499 1104 560 1104 q 402 1122 444 1104 q 332 1175 360 1141 q 290 1257 304 1209 q 276 1362 276 1304 l 386 1362 q 414 1230 386 1270 q 499 1190 442 1190 q 583 1229 553 1190 q 613 1362 613 1269 l 723 1362 "},"ꜙ":{"x_min":119,"x_max":464,"ha":582,"o":"m 464 724 l 119 724 l 119 798 l 464 798 l 464 724 m 225 934 q 244 981 225 961 q 292 1001 263 1001 q 338 981 319 1001 q 358 934 358 961 q 339 887 358 906 q 292 868 320 868 q 244 887 264 868 q 225 934 225 906 "},"ۗ":{"x_min":-349,"x_max":347,"ha":0,"o":"m 296 1267 l 256 1267 l 256 1308 l 296 1308 l 296 1267 m 223 1267 l 182 1267 l 182 1308 l 223 1308 l 223 1267 m 347 1057 q 305 952 347 990 q 204 918 267 918 q 112 940 141 918 q 27 918 84 918 q -73 956 -38 918 q -198 901 -110 920 q -272 870 -272 884 q -207 855 -272 855 l 282 855 l 282 793 l -184 793 q -281 803 -237 793 q -349 859 -349 821 q -285 926 -349 903 q -166 967 -246 940 q -103 1056 -103 998 l -103 1338 l -41 1338 l -41 1055 q 25 980 -41 980 q 81 1028 81 980 l 81 1035 l 143 1035 l 143 1028 q 157 997 143 1013 q 198 980 173 980 q 294 1045 289 980 q 251 1034 274 1034 q 159 1120 159 1034 q 184 1189 159 1156 q 245 1223 209 1223 q 325 1163 298 1223 q 347 1057 347 1117 m 289 1096 q 280 1142 289 1119 q 248 1171 268 1171 q 218 1155 231 1171 q 206 1122 206 1140 q 253 1086 206 1086 q 289 1096 274 1086 "},"Ї":{"x_min":51,"x_max":467,"ha":518,"o":"m 455 0 l 63 0 l 63 103 l 192 103 l 192 907 l 63 907 l 63 1010 l 455 1010 l 455 907 l 326 907 l 326 103 l 455 103 l 455 0 m 467 1137 l 331 1137 l 331 1269 l 467 1269 l 467 1137 m 187 1137 l 51 1137 l 51 1269 l 187 1269 l 187 1137 "},"Ź":{"x_min":41,"x_max":747,"ha":777,"o":"m 747 0 l 41 0 l 41 124 l 583 891 l 65 891 l 65 1010 l 733 1010 l 733 888 l 185 119 l 747 119 l 747 0 m 591 1390 l 405 1136 l 305 1136 l 426 1390 l 591 1390 "},"ʻ":{"x_min":-43,"x_max":228,"ha":293,"o":"m 228 1055 l 121 676 l -43 676 l 134 1055 l 228 1055 "},"ﺇ":{"x_min":55,"x_max":283,"ha":335,"o":"m 224 0 l 111 0 l 111 1055 l 224 1055 l 224 0 m 283 -286 l 55 -286 l 55 -222 l 105 -222 q 78 -193 89 -213 q 68 -153 68 -174 q 99 -77 68 -109 q 185 -45 131 -45 q 238 -49 221 -45 q 263 -56 256 -53 l 263 -125 l 258 -125 q 226 -114 249 -120 q 187 -109 204 -109 q 142 -121 157 -109 q 128 -153 128 -133 q 159 -202 128 -183 q 232 -222 190 -222 l 283 -222 l 283 -286 "},"ͯ":{"x_min":-169,"x_max":168,"ha":0,"o":"m 168 848 l 89 848 l -2 983 l -97 848 l -169 848 l -37 1035 l -168 1227 l -89 1227 l 2 1092 l 96 1227 l 168 1227 l 37 1040 l 168 848 "},"ؑ":{"x_min":-181,"x_max":180,"ha":0,"o":"m 180 1125 l 49 1125 q -91 1173 -62 1125 q -122 1113 -93 1142 q -181 1085 -150 1085 l -181 1139 q -139 1177 -154 1139 q -127 1239 -127 1207 l -87 1239 q 2 1189 -78 1189 q -35 1258 -35 1209 q 0 1337 -35 1307 q 82 1367 33 1367 q 160 1356 123 1367 l 160 1287 l 155 1287 q 84 1303 119 1303 q 25 1258 25 1303 q 62 1204 25 1223 q 129 1189 92 1189 l 180 1189 l 180 1125 "},"Ṁ":{"x_min":102,"x_max":968,"ha":1070,"o":"m 968 0 l 834 0 l 834 870 l 570 278 l 488 278 l 227 870 l 227 0 l 102 0 l 102 1010 l 284 1010 l 537 447 l 781 1010 l 968 1010 l 968 0 m 614 1137 l 469 1137 l 469 1269 l 614 1269 l 614 1137 "},"ɔ":{"x_min":24,"x_max":601,"ha":641,"o":"m 601 380 q 502 86 601 194 q 247 -17 409 -17 q 24 41 138 -17 l 24 184 l 31 184 q 118 127 68 153 q 249 94 184 94 q 420 184 362 94 q 469 380 469 261 q 421 575 469 501 q 249 664 364 664 q 31 572 129 664 l 24 572 l 24 715 q 122 755 55 730 q 247 775 192 775 q 502 678 409 775 q 601 380 601 575 "},"ᵎ":{"x_min":68,"x_max":166,"ha":233,"o":"m 159 303 l 74 303 l 74 811 l 159 811 l 159 303 m 166 129 l 68 129 l 68 218 l 166 218 l 166 129 "},"ʚ":{"x_min":41,"x_max":697,"ha":737,"o":"m 697 378 q 610 94 697 197 q 340 -17 518 -17 q 138 33 218 -17 q 41 210 41 94 q 184 396 41 346 l 184 401 q 91 462 126 416 q 57 570 57 509 q 154 731 57 676 q 348 776 232 776 q 610 657 516 776 q 697 378 697 548 m 565 377 q 515 574 565 497 q 343 666 456 666 q 187 560 187 666 q 248 462 187 485 q 378 450 282 450 l 447 450 l 447 340 l 357 340 q 231 323 269 340 q 171 219 171 296 q 345 94 171 94 q 516 182 459 94 q 565 377 565 257 "},"ῖ":{"x_min":-114,"x_max":428,"ha":317,"o":"m 223 0 l 95 0 l 95 758 l 223 758 l 223 0 m 428 1106 q 377 947 421 1000 q 261 895 333 895 q 196 907 225 895 q 137 947 166 920 q 86 990 107 975 q 43 1005 64 1004 q -3 974 10 1005 q -19 892 -16 943 l -114 892 q -62 1049 -109 996 q 52 1103 -15 1103 q 115 1089 86 1103 q 174 1050 145 1076 q 226 1010 203 1024 q 269 997 250 997 q 316 1027 301 997 q 333 1106 330 1057 l 428 1106 "},".":{"x_min":129,"x_max":291,"ha":421,"o":"m 291 0 l 129 0 l 129 193 l 291 193 l 291 0 "},"๛":{"x_min":98,"x_max":1411,"ha":1479,"o":"m 1411 329 q 1347 153 1396 215 q 1204 91 1299 91 q 1038 179 1087 91 l 974 109 l 878 216 l 782 109 l 721 179 q 417 -11 629 -11 q 189 86 280 -11 q 98 327 98 184 q 189 568 98 470 q 417 667 280 667 q 648 614 521 667 l 648 475 l 638 475 q 417 563 521 563 q 262 495 322 563 q 202 327 202 428 q 262 159 202 226 q 417 93 322 93 q 572 150 506 93 q 688 328 637 207 l 782 220 l 878 328 l 974 220 l 1070 328 q 1204 177 1098 177 q 1324 329 1303 177 l 1411 329 "},"ې":{"x_min":62,"x_max":1152,"ha":1211,"o":"m 1152 574 l 1145 574 q 1034 625 1097 603 q 893 648 970 648 q 780 620 830 648 q 730 550 730 593 q 802 485 730 514 q 931 436 874 457 q 1004 405 965 423 q 1069 366 1043 386 q 1115 319 1098 345 q 1132 258 1132 294 q 967 65 1132 131 q 479 0 803 0 q 162 72 262 0 q 62 299 62 144 q 68 405 62 352 q 76 471 74 458 l 193 471 l 193 464 q 183 396 191 454 q 175 301 175 339 q 244 167 175 206 q 480 128 313 128 q 885 162 752 128 q 1019 257 1019 196 q 946 316 1019 288 q 818 364 874 343 q 744 397 781 379 q 679 437 707 415 q 634 487 651 459 q 617 551 617 515 q 695 706 617 640 q 895 773 774 773 q 1041 756 977 773 q 1152 718 1105 740 l 1152 574 m 556 -146 l 456 -146 l 456 -46 l 556 -46 l 556 -146 m 556 -287 l 456 -287 l 456 -187 l 556 -187 l 556 -287 "},"า":{"x_min":37,"x_max":559,"ha":673,"o":"m 559 0 l 431 0 l 431 487 q 389 621 431 574 q 274 668 347 668 q 45 599 162 668 l 37 599 l 37 733 q 274 779 157 779 q 559 495 559 779 l 559 0 "},"Ѡ":{"x_min":45,"x_max":1543,"ha":1588,"o":"m 1543 505 q 1411 111 1543 249 q 1063 -20 1286 -20 q 966 -12 1006 -20 q 877 9 933 -6 q 795 38 832 22 q 622 -12 710 3 q 525 -20 582 -20 q 176 111 302 -20 q 45 505 45 249 q 177 889 45 747 q 526 1028 306 1028 q 714 1000 621 1028 l 714 867 l 702 867 q 510 912 610 912 q 263 786 351 912 q 185 509 185 675 q 277 203 185 313 q 519 96 367 96 q 728 128 650 96 l 728 390 l 495 390 l 495 508 l 1095 508 l 1095 390 l 862 390 l 862 128 q 1069 96 939 96 q 1311 203 1221 96 q 1403 509 1403 313 q 1325 786 1403 676 q 1078 912 1238 912 q 887 867 979 912 l 876 867 l 876 1000 q 1062 1028 968 1028 q 1411 889 1282 1028 q 1543 505 1543 747 "},"ǀ":{"x_min":209,"x_max":322,"ha":531,"o":"m 322 -266 l 209 -266 l 209 1055 l 322 1055 l 322 -266 "},"ʂ":{"x_min":46,"x_max":594,"ha":620,"o":"m 594 218 q 518 51 594 114 q 298 -18 435 -18 q 174 -2 233 -18 q 209 -133 174 -94 q 331 -173 244 -173 q 398 -163 356 -173 l 406 -163 l 406 -277 q 307 -286 354 -286 q 113 -216 181 -286 q 46 -21 46 -147 l 46 189 l 52 189 q 221 100 128 128 q 302 89 261 89 q 419 114 380 89 q 464 200 464 143 q 431 276 464 251 q 351 308 408 294 q 214 339 305 318 q 49 544 49 387 q 137 720 49 657 q 331 776 215 776 q 566 721 465 776 l 566 585 l 559 585 q 329 669 453 669 q 228 646 268 669 q 179 562 179 617 q 210 486 179 513 q 287 452 234 466 q 425 421 333 442 q 594 218 594 379 "},"ԝ":{"x_min":20,"x_max":1011,"ha":1031,"o":"m 1011 758 l 818 0 l 700 0 l 515 584 l 331 0 l 214 0 l 20 758 l 153 758 l 286 171 l 466 758 l 571 758 l 756 171 l 883 758 l 1011 758 "},"Ẫ":{"x_min":-7,"x_max":840,"ha":833,"o":"m -7 0 l 333 1010 l 499 1010 l 840 0 l 698 0 l 607 282 l 220 282 l 129 0 l -7 0 m 569 397 l 413 872 l 258 397 l 569 397 m 638 1099 l 523 1099 l 404 1159 l 286 1099 l 175 1099 l 343 1216 l 469 1216 l 638 1099 m 630 1389 q 584 1297 622 1333 q 492 1261 546 1261 q 442 1269 467 1261 q 398 1287 417 1278 q 359 1305 381 1296 q 324 1314 338 1314 q 291 1302 305 1314 q 274 1261 278 1291 l 183 1261 q 227 1351 189 1313 q 320 1389 265 1389 q 369 1381 347 1389 q 414 1362 392 1373 q 454 1343 437 1351 q 488 1336 470 1336 q 521 1348 506 1336 q 539 1389 535 1360 l 630 1389 "},"͕":{"x_min":-96,"x_max":94,"ha":0,"o":"m 94 -162 l -96 -285 l -96 -208 l 19 -144 l -96 -81 l -96 -4 l 94 -126 l 94 -162 "},"à":{"x_min":39,"x_max":642,"ha":729,"o":"m 514 186 l 514 397 q 399 385 468 392 q 287 365 330 378 q 204 318 237 350 q 171 228 171 285 q 207 130 171 163 q 314 97 243 97 q 422 122 374 97 q 514 186 471 148 m 514 80 q 472 48 498 69 q 421 15 446 27 q 356 -11 388 -2 q 268 -21 325 -21 q 179 -3 221 -21 q 105 46 137 14 q 57 123 75 77 q 39 219 39 169 q 72 354 39 298 q 177 441 105 409 q 327 482 240 471 q 514 499 413 493 l 514 523 q 500 595 514 567 q 462 637 486 622 q 403 657 438 652 q 330 663 368 663 q 227 649 286 663 q 108 612 167 636 l 101 612 l 101 741 q 202 763 136 751 q 332 776 267 776 q 463 763 410 776 q 559 719 517 751 q 621 638 601 688 q 642 518 642 589 l 642 0 l 514 0 l 514 80 m 452 883 l 351 883 l 166 1137 l 330 1137 l 452 883 "},"ﺐ":{"x_min":62,"x_max":1302,"ha":1302,"o":"m 1302 0 l 1222 0 q 1130 22 1180 0 q 1057 83 1079 45 q 975 22 1029 44 q 847 0 921 0 l 559 0 q 185 88 309 0 q 62 340 62 176 q 67 426 62 390 q 76 475 73 462 l 193 475 l 193 468 q 182 417 190 458 q 175 348 175 376 q 195 261 175 302 q 260 191 215 220 q 385 143 310 159 q 561 128 460 128 q 724 128 659 128 q 817 128 789 128 q 956 167 912 128 q 1001 289 1001 207 q 997 329 1001 307 q 992 360 993 352 l 992 371 l 1107 371 q 1111 326 1109 358 q 1114 283 1114 294 q 1149 173 1114 218 q 1253 128 1184 128 l 1302 128 l 1302 0 m 695 -216 l 595 -216 l 595 -116 l 695 -116 l 695 -216 "},"ฃ":{"x_min":41,"x_max":797,"ha":910,"o":"m 797 0 l 211 0 l 211 121 l 322 121 l 322 316 q 334 384 322 349 q 395 476 347 419 q 442 543 432 521 q 452 585 452 566 q 398 668 452 644 l 321 617 l 244 668 q 194 625 218 659 q 286 583 251 620 q 322 495 322 545 q 283 405 322 442 q 193 368 245 368 q 84 416 128 368 q 41 541 41 465 q 98 692 41 623 q 244 779 156 762 l 321 719 l 398 779 q 526 711 478 764 q 575 587 575 658 q 563 526 575 558 q 507 440 551 494 q 459 370 469 394 q 450 324 450 346 l 450 121 l 669 121 l 669 758 l 797 758 l 797 0 m 194 445 q 230 460 215 445 q 245 497 245 475 q 230 532 245 517 q 194 547 215 547 q 158 532 173 547 q 143 497 143 517 q 157 460 143 475 q 194 445 172 445 "},"₴":{"x_min":0,"x_max":741,"ha":758,"o":"m 0 543 l 0 637 l 499 637 q 525 658 517 649 q 559 753 559 696 q 503 868 559 824 q 356 912 447 912 q 203 879 276 912 q 84 803 130 846 l 74 803 l 74 963 q 210 1011 137 994 q 367 1028 284 1028 q 605 945 512 1028 q 699 739 699 862 q 672 637 699 680 l 741 637 l 741 543 l 561 543 q 472 499 523 521 q 360 449 406 470 l 741 449 l 741 355 l 201 355 q 175 259 175 323 q 230 140 175 183 q 393 98 285 98 q 550 132 468 98 q 696 229 632 166 l 706 229 l 706 60 q 564 4 639 27 q 382 -18 489 -18 q 231 5 291 -18 q 124 73 171 29 q 58 164 81 113 q 35 273 35 214 q 47 355 35 318 l 0 355 l 0 449 l 113 449 q 295 543 171 492 l 0 543 "},"̛":{"x_min":0,"x_max":225,"ha":0,"o":"m 0 1010 q 97 1032 72 1010 q 123 1102 123 1054 q 115 1157 123 1126 q 99 1203 108 1188 l 99 1210 l 208 1210 q 221 1154 217 1178 q 225 1096 225 1130 q 166 962 225 1007 q 0 918 108 918 l 0 1010 "},"۹":{"x_min":83,"x_max":733,"ha":794,"o":"m 733 0 l 616 0 l 553 195 q 525 315 532 260 q 519 456 519 371 l 519 464 q 441 407 489 427 q 335 387 393 387 q 158 458 233 387 q 83 639 83 529 q 105 763 83 708 q 167 857 128 819 q 257 913 205 894 q 363 933 309 933 q 463 914 414 933 q 549 861 511 895 q 609 779 587 826 q 632 670 632 732 l 632 466 q 639 318 632 367 q 666 206 646 269 l 733 0 m 518 586 l 518 652 q 471 760 518 716 q 365 805 425 805 q 244 760 291 805 q 197 643 197 715 q 237 551 197 588 q 334 515 277 515 q 437 534 386 515 q 518 586 488 553 "},"Ṕ":{"x_min":102,"x_max":740,"ha":766,"o":"m 740 705 q 716 580 740 639 q 651 480 693 521 q 528 402 599 428 q 350 376 458 376 l 236 376 l 236 0 l 102 0 l 102 1010 l 355 1010 q 508 995 445 1010 q 619 946 571 980 q 708 848 676 908 q 740 705 740 789 m 600 701 q 582 792 600 753 q 527 855 564 831 q 452 885 495 876 q 347 894 410 894 l 236 894 l 236 491 l 327 491 q 459 504 409 491 q 542 551 509 517 q 586 617 572 581 q 600 701 600 653 m 617 1390 l 431 1136 l 331 1136 l 452 1390 l 617 1390 "},"̳":{"x_min":-295,"x_max":295,"ha":0,"o":"m 295 -292 l -295 -292 l -295 -211 l 295 -211 l 295 -292 m 295 -129 l -295 -129 l -295 -48 l 295 -48 l 295 -129 "},"ҁ":{"x_min":40,"x_max":617,"ha":641,"o":"m 617 572 l 609 572 q 391 664 511 664 q 219 575 276 664 q 172 379 172 501 q 220 183 172 260 q 391 93 278 93 l 451 93 l 451 -279 l 323 -279 l 323 -12 q 111 119 186 11 q 40 380 40 223 q 123 661 40 557 q 393 775 214 775 q 617 715 488 775 l 617 572 "},"ی":{"x_min":62,"x_max":1152,"ha":1211,"o":"m 1152 574 l 1145 574 q 1034 625 1097 603 q 893 648 970 648 q 780 620 830 648 q 730 550 730 593 q 802 485 730 514 q 931 436 874 457 q 1004 405 965 423 q 1069 366 1043 386 q 1115 319 1098 345 q 1132 258 1132 294 q 967 65 1132 131 q 479 0 803 0 q 162 72 262 0 q 62 299 62 144 q 68 405 62 352 q 76 471 74 458 l 193 471 l 193 464 q 183 396 191 454 q 175 301 175 339 q 244 167 175 206 q 480 128 313 128 q 885 162 752 128 q 1019 257 1019 196 q 946 316 1019 288 q 818 364 874 343 q 744 397 781 379 q 679 437 707 415 q 634 487 651 459 q 617 551 617 515 q 695 706 617 640 q 895 773 774 773 q 1041 756 977 773 q 1152 718 1105 740 l 1152 574 "},"ꜞ":{"x_min":90,"x_max":217,"ha":307,"o":"m 212 1042 l 96 1042 l 96 1162 l 212 1162 l 212 1042 m 90 638 l 108 978 l 199 978 l 217 638 l 90 638 "},"ﮘ":{"x_min":-47,"x_max":585,"ha":667,"o":"m 585 904 l 205 721 q 156 696 183 711 q 129 670 129 681 q 157 634 129 658 q 212 588 185 610 l 393 440 q 486 336 458 386 q 514 233 514 285 q 498 142 514 186 q 452 68 482 98 q 367 17 417 34 q 251 0 316 0 l -47 0 l -47 128 l 249 128 q 366 158 332 128 q 401 232 401 188 q 372 303 401 263 q 263 410 343 343 l 77 562 q 22 616 45 588 q -1 676 -1 644 q 26 750 -1 718 q 149 828 54 783 l 585 1038 l 585 904 m 559 1105 l 8 840 l 8 908 l 559 1173 l 559 1105 m 221 -146 l 121 -146 l 121 -46 l 221 -46 l 221 -146 m 221 -287 l 121 -287 l 121 -187 l 221 -187 l 221 -287 "},"Ϣ":{"x_min":102,"x_max":1097,"ha":1199,"o":"m 1097 86 q 1019 -184 1097 -96 q 755 -279 936 -279 l 230 -279 l 230 -160 l 759 -160 q 954 -49 926 -160 q 963 33 963 -12 l 963 84 q 754 -21 857 -21 q 556 109 607 -21 q 324 -21 439 -21 q 165 43 222 -21 q 102 259 102 116 l 102 1010 l 236 1010 l 236 319 q 257 152 236 194 q 356 100 284 100 q 534 193 435 100 q 532 258 532 239 l 532 1010 l 666 1010 l 666 319 q 687 152 666 194 q 787 100 714 100 q 963 191 864 100 l 963 1010 l 1097 1010 l 1097 86 "},"e":{"x_min":40,"x_max":694,"ha":731,"o":"m 421 -17 q 140 85 240 -17 q 40 374 40 187 q 136 669 40 560 q 390 779 233 779 q 515 758 460 779 q 609 694 569 738 q 672 588 650 651 q 694 435 694 526 l 694 366 l 170 366 q 236 163 170 233 q 419 94 302 94 q 502 103 461 94 q 575 128 542 113 q 633 158 609 143 q 672 186 656 173 l 680 186 l 680 46 q 624 24 657 37 q 564 4 591 11 q 497 -11 527 -6 q 421 -17 467 -17 m 570 464 q 557 552 568 515 q 526 615 546 590 q 469 659 504 644 q 383 674 434 674 q 296 658 332 674 q 232 614 261 643 q 188 548 203 584 q 170 464 174 512 l 570 464 "},"շ":{"x_min":16,"x_max":594,"ha":617,"o":"m 594 -279 l 210 -279 q 131 -268 166 -279 q 70 -235 95 -257 q 30 -181 44 -213 q 16 -104 16 -148 q 21 -53 16 -78 q 38 -3 26 -28 q 70 47 50 20 q 118 104 89 73 q 186 171 147 135 q 276 251 225 206 q 358 327 325 293 q 412 392 392 360 q 441 455 433 423 q 450 528 450 487 q 438 590 450 564 q 405 634 426 617 q 357 660 384 652 q 300 669 330 669 q 178 646 238 669 q 70 586 118 624 l 63 586 l 63 722 q 112 743 84 733 q 170 760 139 752 q 234 771 201 767 q 297 776 266 776 q 415 758 362 776 q 504 709 467 741 q 560 633 540 678 q 580 532 580 588 q 573 449 580 487 q 545 371 567 411 q 483 286 524 332 q 374 179 442 241 q 290 102 325 136 q 229 43 254 69 q 188 -1 203 17 q 163 -37 172 -21 q 151 -68 154 -53 q 148 -99 148 -83 q 167 -148 148 -130 q 220 -166 186 -166 l 594 -166 l 594 -279 "},"ถ":{"x_min":86,"x_max":699,"ha":813,"o":"m 699 0 l 571 0 l 571 437 q 527 609 571 560 q 392 658 483 658 q 220 541 249 658 l 349 541 l 349 451 q 257 383 286 427 q 228 262 228 339 l 228 237 q 276 246 249 246 q 367 208 329 246 q 406 118 406 171 q 368 27 406 65 q 277 -11 330 -11 q 148 37 196 -11 q 100 170 100 86 l 100 252 q 220 445 100 402 l 86 445 l 86 449 q 165 688 86 598 q 392 779 244 779 q 625 697 552 779 q 699 437 699 616 l 699 0 m 276 66 q 312 81 297 66 q 328 118 328 96 q 312 154 328 139 q 276 169 297 169 q 240 154 255 169 q 225 118 225 139 q 240 81 225 96 q 276 66 255 66 "},"Ѓ":{"x_min":102,"x_max":702,"ha":705,"o":"m 702 891 l 236 891 l 236 0 l 102 0 l 102 1010 l 702 1010 l 702 891 m 632 1390 l 446 1136 l 346 1136 l 467 1390 l 632 1390 "},"ò":{"x_min":39,"x_max":715,"ha":754,"o":"m 715 378 q 622 83 715 187 q 377 -21 530 -21 q 129 86 219 -21 q 39 378 39 194 q 132 673 39 568 q 377 779 225 779 q 622 674 530 779 q 715 378 715 569 m 583 378 q 529 597 583 525 q 377 669 476 669 q 224 597 278 669 q 171 378 171 525 q 224 162 171 236 q 377 89 278 89 q 529 161 475 89 q 583 378 583 233 m 453 883 l 352 883 l 167 1137 l 331 1137 l 453 883 "},"ﺞ":{"x_min":54,"x_max":973,"ha":973,"o":"m 973 0 l 905 0 q 747 49 795 0 q 700 213 700 99 l 700 381 q 476 359 576 378 q 309 304 377 340 q 203 210 240 267 q 167 75 167 153 q 244 -97 167 -31 q 444 -163 322 -163 q 610 -141 536 -163 q 739 -85 684 -120 l 746 -85 l 746 -221 q 620 -269 686 -251 q 445 -288 554 -288 q 291 -263 362 -288 q 167 -193 220 -239 q 84 -78 114 -146 q 54 76 54 -10 q 92 227 54 156 q 213 355 130 298 q 368 425 281 401 q 540 455 455 450 q 379 509 457 494 q 190 524 300 524 l 139 524 l 139 649 l 198 649 q 448 605 308 649 q 710 486 588 561 l 825 486 l 825 381 l 787 381 l 787 275 q 790 214 787 237 q 808 168 794 190 q 842 138 821 149 q 902 128 863 128 l 973 128 l 973 0 m 760 486 l 760 486 m 846 0 l 846 0 m 458 8 l 358 8 l 358 108 l 458 108 l 458 8 "},"к":{"x_min":92,"x_max":702,"ha":692,"o":"m 702 0 l 543 0 l 283 349 l 220 349 l 220 0 l 92 0 l 92 758 l 220 758 l 220 428 q 304 448 269 428 q 363 526 339 468 q 379 565 370 543 q 394 605 388 588 q 476 723 423 689 q 615 758 530 758 l 650 758 l 650 648 l 620 648 q 540 625 567 648 q 495 545 513 603 q 450 453 476 486 q 393 402 424 420 l 702 0 "},"Ȣ":{"x_min":45,"x_max":763,"ha":808,"o":"m 763 301 q 655 59 763 145 q 404 -18 557 -18 q 152 59 250 -18 q 45 301 45 145 q 262 552 45 513 l 262 562 q 72 731 72 587 q 173 867 72 820 q 390 906 258 906 l 390 829 q 210 724 210 829 q 404 611 210 611 q 598 771 598 611 q 541 900 598 852 q 417 945 490 945 l 417 1028 q 636 977 554 1028 q 736 785 736 915 q 681 639 736 700 q 545 562 630 580 l 545 552 q 763 301 763 513 m 623 307 q 542 464 623 416 q 404 498 486 498 q 265 464 321 498 q 185 307 185 416 q 249 149 185 204 q 404 99 307 99 q 558 149 500 99 q 623 307 623 204 "},"￼":{"x_min":0,"x_max":1389,"ha":1389,"o":"m 1389 780 l 1321 780 l 1321 931 l 1170 931 l 1170 999 l 1389 999 l 1389 780 m 999 931 l 780 931 l 780 999 l 999 999 l 999 931 m 1389 390 l 1321 390 l 1321 609 l 1389 609 l 1389 390 m 1208 414 q 1065 251 1208 251 q 972 281 1007 251 l 1021 335 q 1064 317 1038 317 q 1129 410 1129 317 l 1129 739 l 1208 739 l 1208 414 m 609 931 l 390 931 l 390 999 l 609 999 l 609 931 m 1389 0 l 1170 0 l 1170 68 l 1321 68 l 1321 219 l 1389 219 l 1389 0 m 965 400 q 779 259 965 259 l 617 259 l 617 739 l 776 739 q 945 612 945 739 q 884 514 945 551 q 965 400 965 483 m 219 931 l 68 931 l 68 780 l 0 780 l 0 999 l 219 999 l 219 931 m 999 0 l 780 0 l 780 68 l 999 68 l 999 0 m 580 498 q 524 316 580 381 q 364 251 468 251 q 205 316 260 251 q 151 498 151 381 q 205 681 151 616 q 364 747 260 747 q 524 681 468 747 q 580 498 580 616 m 68 390 l 0 390 l 0 609 l 68 609 l 68 390 m 609 0 l 390 0 l 390 68 l 609 68 l 609 0 m 219 0 l 0 0 l 0 219 l 68 219 l 68 68 l 219 68 l 219 0 m 866 605 q 756 673 866 673 l 696 673 l 696 541 l 764 541 q 866 605 866 541 m 886 400 q 770 475 886 475 l 696 475 l 696 325 l 779 325 q 886 400 886 325 m 501 498 q 364 681 501 681 q 230 498 230 681 q 364 317 230 317 q 501 498 501 317 "},"ṉ":{"x_min":92,"x_max":688,"ha":775,"o":"m 688 0 l 560 0 l 560 431 q 554 529 560 484 q 535 601 549 574 q 492 644 520 630 q 416 658 464 658 q 318 632 369 658 q 220 566 268 607 l 220 0 l 92 0 l 92 758 l 220 758 l 220 673 q 332 751 276 724 q 449 779 388 779 q 624 705 561 779 q 688 491 688 631 l 688 0 m 647 -240 l 136 -240 l 136 -135 l 647 -135 l 647 -240 "},"ᵒ":{"x_min":54,"x_max":507,"ha":562,"o":"m 507 556 q 453 368 507 439 q 281 289 393 289 q 108 368 168 289 q 54 556 54 439 q 108 743 54 672 q 281 824 168 824 q 453 743 393 824 q 507 556 507 672 m 419 556 q 281 750 419 750 q 142 556 142 750 q 281 363 142 363 q 419 556 419 363 "},"ѻ":{"x_min":39,"x_max":879,"ha":918,"o":"m 879 378 q 527 -12 879 15 q 459 -49 501 -49 q 391 -12 417 -49 q 39 378 39 15 q 391 769 39 741 q 459 806 417 806 q 527 769 501 806 q 879 378 879 741 m 747 378 q 527 672 747 643 q 459 635 501 635 q 391 672 417 635 q 171 378 171 644 q 391 85 171 113 q 459 122 417 122 q 527 85 501 122 q 747 378 747 113 "},"ۓ":{"x_min":13,"x_max":1270,"ha":1270,"o":"m 1270 -203 l 312 -203 q 87 -164 165 -203 q 13 -61 13 -127 q 82 40 13 0 q 234 95 124 63 q 376 148 339 125 q 529 294 417 174 q 668 387 617 387 q 810 265 725 387 l 810 137 q 741 228 783 181 q 674 281 693 281 q 592 203 660 281 q 454 75 511 111 q 257 0 389 34 q 153 -43 153 -27 q 270 -75 153 -75 l 1270 -75 l 1270 -203 m 750 555 l 522 555 l 522 619 l 572 619 q 545 647 556 627 q 535 687 535 666 q 566 763 535 731 q 652 796 598 796 q 705 791 688 796 q 730 785 723 787 l 730 716 l 725 716 q 693 726 716 720 q 654 732 671 732 q 609 719 624 732 q 595 687 595 707 q 626 638 595 657 q 699 619 657 619 l 750 619 l 750 555 "},"ˆ":{"x_min":148,"x_max":611,"ha":758,"o":"m 611 880 l 503 880 l 377 1053 l 253 880 l 148 880 l 302 1137 l 456 1137 l 611 880 "},"ū":{"x_min":87,"x_max":683,"ha":775,"o":"m 683 0 l 555 0 l 555 84 q 443 5 495 32 q 325 -21 390 -21 q 231 -4 275 -21 q 155 46 188 11 q 104 135 122 82 q 87 266 87 189 l 87 758 l 215 758 l 215 326 q 219 225 215 265 q 239 156 223 186 q 281 113 254 127 q 358 100 308 100 q 458 126 405 100 q 555 191 510 153 l 555 758 l 683 758 l 683 0 m 641 905 l 130 905 l 130 1010 l 641 1010 l 641 905 "},"ﺜ":{"x_min":-47,"x_max":488,"ha":488,"o":"m 488 0 l 408 0 q 316 22 366 0 q 243 83 265 45 q 172 21 219 43 q 79 0 124 0 l -47 0 l -47 128 l 49 128 q 148 169 110 128 q 186 289 186 211 l 186 371 l 300 371 l 300 289 q 338 172 300 216 q 439 128 376 128 l 488 128 l 488 0 m 161 522 l 61 522 l 61 622 l 161 622 l 161 522 m 361 522 l 261 522 l 261 622 l 361 622 l 361 522 m 261 663 l 161 663 l 161 763 l 261 763 l 261 663 "},"ֺ":{"x_min":176,"x_max":267,"ha":0,"o":"m 222 1012 q 254 998 241 1012 q 267 966 267 985 q 254 934 267 947 q 222 921 241 921 q 189 934 203 921 q 176 966 176 947 q 189 998 176 985 q 222 1012 203 1012 "},"Ν":{"x_min":102,"x_max":825,"ha":927,"o":"m 825 0 l 674 0 l 227 870 l 227 0 l 102 0 l 102 1010 l 292 1010 l 700 210 l 700 1010 l 825 1010 l 825 0 "},"๎":{"x_min":-368,"x_max":-69,"ha":0,"o":"m -69 1290 q -182 1306 -133 1306 q -269 1266 -269 1306 q -160 1220 -269 1220 l -113 1220 l -113 1143 l -157 1143 q -285 1102 -285 1143 q -246 1068 -285 1082 q -144 1054 -208 1054 l -91 1054 l -91 979 l -148 979 q -308 1013 -249 979 q -368 1096 -368 1048 q -347 1148 -368 1124 q -293 1182 -327 1172 q -352 1269 -352 1212 q -308 1350 -352 1320 q -188 1381 -265 1381 q -69 1367 -131 1381 l -69 1290 "},"ȝ":{"x_min":24,"x_max":560,"ha":600,"o":"m 560 116 q 354 -177 560 -64 q 52 -286 263 -226 l 52 -168 q 281 -89 213 -124 q 428 102 428 -14 q 377 236 428 193 q 197 158 303 192 q 52 118 190 156 l 52 236 q 281 311 222 282 q 428 499 428 383 q 249 664 428 664 q 31 574 138 664 l 24 574 l 24 717 q 277 779 145 779 q 497 700 424 779 q 560 514 560 631 q 484 319 560 403 q 560 116 560 248 "},"ظ":{"x_min":-47,"x_max":901,"ha":936,"o":"m 901 276 q 874 169 901 219 q 795 81 848 118 q 665 22 743 44 q 480 0 587 0 l -47 0 l -47 128 l 112 128 q 126 134 118 128 q 143 149 134 140 q 160 169 153 160 q 168 187 168 177 l 168 1055 l 281 1055 l 281 323 q 457 486 360 420 q 633 553 553 553 q 823 477 745 553 q 901 276 901 401 m 788 274 q 741 384 788 340 q 631 428 694 428 q 541 396 590 428 q 441 316 492 364 q 352 222 395 274 q 281 128 308 170 l 399 128 q 538 134 457 128 q 663 154 618 140 q 754 198 720 170 q 788 274 788 226 m 560 721 l 460 721 l 460 821 l 560 821 l 560 721 "},"ข":{"x_min":41,"x_max":736,"ha":851,"o":"m 736 0 l 177 0 l 177 121 l 263 121 l 263 294 q 276 379 263 345 q 318 454 290 414 q 356 526 348 500 q 364 575 364 552 q 270 687 364 687 q 242 680 252 687 q 298 575 298 638 q 260 486 298 523 q 169 449 222 449 q 78 486 116 449 q 41 577 41 524 q 104 723 41 667 q 270 779 167 779 q 427 723 367 779 q 487 577 487 668 q 477 514 487 547 q 434 420 468 480 q 391 299 391 345 l 391 121 l 608 121 l 608 758 l 736 758 l 736 0 m 169 526 q 205 541 190 526 q 221 578 221 556 q 205 613 221 598 q 169 628 190 628 q 133 613 148 628 q 118 578 118 598 q 133 541 118 556 q 169 526 148 526 "},"Ҋ":{"x_min":102,"x_max":973,"ha":931,"o":"m 730 1313 q 657 1141 727 1200 q 478 1086 592 1086 q 299 1141 364 1086 q 227 1313 229 1200 l 348 1313 q 478 1169 350 1169 q 609 1313 606 1169 l 730 1313 m 973 117 l 823 -229 l 695 -229 l 804 0 l 695 0 l 695 801 l 238 0 l 102 0 l 102 1010 l 236 1010 l 236 221 l 686 1010 l 829 1010 l 829 117 l 973 117 "},"œ":{"x_min":39,"x_max":1226,"ha":1262,"o":"m 1102 464 q 1053 622 1099 570 q 917 674 1008 674 q 771 618 830 674 q 705 464 713 562 l 1102 464 m 581 378 q 527 597 581 525 q 376 669 474 669 q 223 594 276 669 q 171 378 171 519 q 224 162 171 236 q 376 89 277 89 q 527 161 473 89 q 581 378 581 234 m 951 93 q 1034 102 993 93 q 1106 127 1074 112 q 1165 157 1141 142 q 1204 185 1188 172 l 1212 185 l 1212 45 q 1156 23 1189 36 q 1096 3 1123 10 q 1029 -12 1059 -7 q 953 -18 999 -18 q 773 17 853 -18 q 646 120 694 53 q 534 15 600 51 q 376 -21 468 -21 q 129 86 219 -21 q 39 378 39 193 q 130 673 39 567 q 376 779 222 779 q 535 741 464 779 q 648 635 605 704 q 765 741 694 704 q 924 779 837 779 q 1148 688 1070 779 q 1226 435 1226 598 l 1226 366 l 705 366 q 770 163 705 234 q 951 93 836 93 "},"֓":{"x_min":-93,"x_max":93,"ha":0,"o":"m 93 1211 l -33 1153 l 93 1095 l -33 1037 l 93 979 l -33 921 l -93 921 l 33 979 l -93 1037 l 33 1095 l -93 1153 l 33 1211 l 93 1211 "},"Ὲ":{"x_min":0,"x_max":899,"ha":944,"o":"m 267 0 l 267 1010 l 899 1010 l 899 891 l 401 891 l 401 614 l 865 614 l 865 495 l 401 495 l 401 119 l 899 119 l 899 0 l 267 0 m 215 884 l 128 884 l 0 1144 l 153 1144 l 215 884 "},"Ɵ":{"x_min":45,"x_max":938,"ha":983,"o":"m 938 504 q 816 117 938 255 q 491 -21 695 -21 q 165 117 285 -21 q 45 504 45 256 q 166 893 45 752 q 491 1031 283 1031 q 816 893 697 1031 q 938 504 938 754 m 792 605 q 715 810 775 732 q 491 915 634 915 q 267 810 348 915 q 191 605 207 734 l 792 605 m 798 484 l 185 484 q 256 217 189 319 q 491 95 337 95 q 726 217 646 95 q 798 484 793 319 "},"ᵛ":{"x_min":0,"x_max":458,"ha":458,"o":"m 458 811 l 267 303 l 188 303 l 0 811 l 91 811 l 229 418 l 368 811 l 458 811 "},"ș":{"x_min":46,"x_max":594,"ha":620,"o":"m 297 -18 q 155 2 221 -18 q 46 45 89 22 l 46 189 l 52 189 q 91 160 69 175 q 149 127 113 144 q 221 100 182 112 q 302 89 260 89 q 367 96 333 89 q 419 114 402 103 q 453 147 442 129 q 464 200 464 165 q 439 269 464 246 q 351 308 414 293 q 287 322 326 314 q 214 339 247 330 q 88 417 127 364 q 49 544 49 470 q 126 711 49 647 q 331 776 203 776 q 458 760 395 776 q 566 721 522 744 l 566 585 l 559 585 q 450 646 510 623 q 329 669 390 669 q 222 642 265 669 q 179 562 179 615 q 204 491 179 514 q 287 452 230 467 q 351 437 316 445 q 425 421 386 430 q 551 351 509 400 q 594 218 594 302 q 574 126 594 169 q 518 51 555 82 q 426 0 477 17 q 297 -18 374 -18 m 172 -286 l 264 -104 l 429 -104 l 265 -286 l 172 -286 "},"ἱ":{"x_min":95,"x_max":225,"ha":317,"o":"m 223 0 l 95 0 l 95 758 l 223 758 l 223 0 m 225 1012 l 160 1012 q 224 913 160 921 l 224 838 q 129 906 165 852 q 95 1018 95 956 l 95 1137 l 225 1137 l 225 1012 "},"ݕ":{"x_min":62,"x_max":1059,"ha":1121,"o":"m 560 120 q 736 135 661 120 q 860 183 811 151 q 926 253 906 214 q 946 340 946 292 q 938 402 946 361 q 928 460 931 442 l 928 467 l 1045 467 q 1053 406 1048 444 q 1059 331 1059 369 q 935 79 1059 167 q 559 -8 812 -8 q 185 80 309 -8 q 62 331 62 168 q 67 406 62 369 q 76 467 72 444 l 193 467 l 193 460 q 182 402 189 442 q 175 340 175 361 q 194 253 175 292 q 260 183 213 213 q 385 135 309 151 q 560 120 460 120 m 678 -286 l 577 -137 l 477 -286 l 404 -286 l 544 -72 l 610 -72 l 751 -286 l 678 -286 "},"Ѵ":{"x_min":-5,"x_max":1025,"ha":996,"o":"m 1025 882 l 957 805 l 950 805 q 906 868 934 841 q 838 903 872 903 q 780 854 796 903 l 486 0 l 341 0 l -5 1010 l 138 1010 l 417 172 l 660 900 q 731 983 678 953 q 835 1010 777 1010 q 1025 882 943 1010 "},"Ȫ":{"x_min":45,"x_max":938,"ha":983,"o":"m 816 893 q 906 729 874 827 q 938 504 938 630 q 906 282 938 381 q 816 116 875 183 q 672 12 754 46 q 491 -21 590 -21 q 306 13 388 -21 q 165 116 224 48 q 76 282 107 183 q 45 504 45 380 q 76 728 45 632 q 166 893 108 824 q 307 996 224 961 q 491 1031 389 1031 q 676 995 594 1031 q 816 893 759 959 m 798 504 q 776 682 798 605 q 715 810 754 759 q 618 888 675 862 q 491 915 562 915 q 364 889 418 915 q 267 810 309 864 q 206 681 227 759 q 185 504 185 603 q 268 200 185 305 q 491 95 351 95 q 715 200 632 95 q 798 504 798 305 m 745 1306 l 234 1306 l 234 1390 l 745 1390 l 745 1306 m 698 1091 l 562 1091 l 562 1216 l 698 1216 l 698 1091 m 418 1091 l 282 1091 l 282 1216 l 418 1216 l 418 1091 "},"ˈ":{"x_min":335,"x_max":423,"ha":758,"o":"m 423 884 l 335 884 l 335 1139 l 423 1139 l 423 884 "},"ɘ":{"x_min":37,"x_max":691,"ha":731,"o":"m 691 374 q 593 87 691 189 q 309 -17 494 -17 q 106 25 212 -17 q 51 46 86 33 l 51 186 l 58 186 q 155 128 94 156 q 311 94 230 94 q 499 169 434 94 q 561 366 561 240 l 37 366 l 37 435 q 121 694 37 605 q 340 779 199 779 q 604 658 508 779 q 691 374 691 547 m 561 464 q 498 614 552 558 q 347 674 440 674 q 204 615 250 674 q 161 464 163 564 l 561 464 "},"ạ":{"x_min":39,"x_max":642,"ha":729,"o":"m 514 186 l 514 397 q 399 385 468 392 q 287 365 330 378 q 204 318 237 350 q 171 228 171 285 q 207 130 171 163 q 314 97 243 97 q 422 122 374 97 q 514 186 471 148 m 514 80 q 472 48 498 69 q 421 15 446 27 q 356 -11 388 -2 q 268 -21 325 -21 q 179 -3 221 -21 q 105 46 137 14 q 57 123 75 77 q 39 219 39 169 q 72 354 39 298 q 177 441 105 409 q 327 482 240 471 q 514 499 413 493 l 514 523 q 500 595 514 567 q 462 637 486 622 q 403 657 438 652 q 330 663 368 663 q 227 649 286 663 q 108 612 167 636 l 101 612 l 101 741 q 202 763 136 751 q 332 776 267 776 q 463 763 410 776 q 559 719 517 751 q 621 638 601 688 q 642 518 642 589 l 642 0 l 514 0 l 514 80 m 432 -259 l 287 -259 l 287 -127 l 432 -127 l 432 -259 "},"д":{"x_min":5,"x_max":742,"ha":775,"o":"m 742 -182 l 623 -182 l 623 2 l 124 2 l 124 -182 l 5 -182 l 5 109 l 55 109 q 160 385 119 214 q 202 758 202 555 l 667 758 l 667 109 l 742 109 l 742 -182 m 539 109 l 539 651 l 322 651 q 275 341 313 481 q 180 109 237 201 l 539 109 "},"ӥ":{"x_min":92,"x_max":691,"ha":783,"o":"m 691 0 l 565 0 l 565 565 l 207 0 l 92 0 l 92 758 l 218 758 l 218 201 l 571 758 l 691 758 l 691 0 m 601 884 l 465 884 l 465 1016 l 601 1016 l 601 884 m 321 884 l 185 884 l 185 1016 l 321 1016 l 321 884 "},"ʛ":{"x_min":39,"x_max":857,"ha":747,"o":"m 857 811 l 850 811 q 749 835 806 835 q 657 720 657 835 l 657 589 l 648 589 q 393 670 514 670 q 171 383 171 670 q 214 175 171 245 q 400 88 270 88 q 532 112 473 88 l 532 275 l 381 275 l 381 382 l 660 382 l 660 45 q 404 -21 511 -21 q 127 93 222 -21 q 39 380 39 198 q 134 667 39 559 q 405 779 233 779 q 571 746 490 779 q 619 884 571 831 q 743 937 668 937 q 857 920 798 937 l 857 811 "},"۴":{"x_min":45,"x_max":724,"ha":794,"o":"m 570 744 q 652 752 613 744 q 717 776 690 760 l 724 776 l 724 645 q 650 628 705 637 q 539 619 595 619 q 421 635 490 619 q 322 672 351 651 l 354 619 q 420 465 402 538 q 439 290 439 391 l 439 0 l 326 0 l 326 290 q 300 461 326 390 q 228 612 274 531 l 45 933 l 165 933 l 171 923 q 281 810 205 863 q 449 744 357 756 q 408 779 424 755 q 393 827 393 803 q 435 923 393 885 q 552 962 477 962 q 629 952 594 962 q 674 941 664 943 l 674 855 l 669 855 q 618 872 652 862 q 550 883 583 883 q 492 864 512 883 q 473 821 473 846 q 500 766 473 788 q 570 744 528 744 "},"ร":{"x_min":28,"x_max":568,"ha":596,"o":"m 568 664 q 442 651 507 651 l 291 658 q 186 636 224 658 q 149 582 149 614 q 211 586 170 586 q 417 524 360 586 q 475 318 475 462 l 475 170 q 427 37 475 86 q 298 -11 379 -11 q 207 27 245 -11 q 170 118 170 65 q 207 208 170 171 q 298 246 245 246 q 347 238 326 246 l 347 318 q 314 451 347 410 q 210 492 281 492 q 144 488 181 492 q 80 479 107 484 l 32 471 l 28 471 l 28 518 q 86 702 28 636 q 291 768 145 768 l 442 761 q 505 768 473 761 l 561 782 l 568 782 l 568 664 m 298 66 q 335 81 320 66 q 350 118 350 96 q 334 154 350 139 q 298 169 319 169 q 262 154 277 169 q 248 118 248 139 q 262 81 248 96 q 298 66 277 66 "},"ﱟ":{"x_min":1,"x_max":417,"ha":0,"o":"m 295 1227 q 245 1238 267 1227 q 214 1267 223 1250 q 180 1218 208 1241 q 113 1195 153 1195 q 31 1224 61 1195 q 1 1309 1 1254 q 2 1348 1 1327 q 4 1378 3 1369 l 69 1378 l 69 1373 q 66 1346 68 1365 q 65 1310 65 1327 q 77 1272 65 1286 q 113 1259 89 1259 q 159 1284 142 1259 q 177 1362 177 1310 l 177 1410 l 241 1410 l 241 1368 q 256 1310 241 1329 q 294 1291 271 1291 q 337 1309 322 1291 q 353 1367 353 1328 q 351 1406 353 1390 q 349 1431 349 1423 l 349 1436 l 413 1436 q 415 1414 413 1429 q 417 1366 417 1400 q 383 1263 417 1299 q 295 1227 349 1227 m 405 1120 l 17 1055 l 17 1123 l 405 1188 l 405 1120 m 405 983 l 17 918 l 17 986 l 405 1051 l 405 983 "},"כּ":{"x_min":41,"x_max":778,"ha":863,"o":"m 661 449 q 588 672 661 598 q 348 747 515 747 q 178 738 266 747 q 47 726 90 730 l 41 726 l 41 860 q 182 873 91 867 q 351 880 273 880 q 548 852 467 880 q 680 771 629 825 q 754 638 731 717 q 778 453 778 559 l 778 409 q 754 224 778 305 q 680 91 731 143 q 548 10 628 37 q 351 -17 469 -17 q 183 -10 280 -17 q 41 2 87 -4 l 41 137 l 47 137 q 181 123 100 131 q 348 116 263 116 q 587 190 514 116 q 661 413 661 265 l 661 449 m 366 444 q 353 411 366 424 q 320 399 340 399 q 287 411 300 399 q 275 444 275 424 q 287 477 275 464 q 320 490 300 490 q 353 477 340 490 q 366 444 366 464 "},"Ḙ":{"x_min":102,"x_max":734,"ha":779,"o":"m 102 0 l 102 1010 l 734 1010 l 734 891 l 236 891 l 236 614 l 700 614 l 700 495 l 236 495 l 236 119 l 734 119 l 734 0 l 102 0 m 651 -287 l 543 -287 l 417 -113 l 293 -287 l 188 -287 l 342 -30 l 496 -30 l 651 -287 "},"ﬢ":{"x_min":14,"x_max":1008,"ha":1038,"o":"m 1008 726 l 862 726 l 862 0 l 745 0 l 745 726 l 14 726 l 14 859 l 1008 859 l 1008 726 "},"ھ":{"x_min":-47,"x_max":872,"ha":933,"o":"m 872 233 q 808 58 872 117 q 637 0 745 0 l -47 0 l -47 128 l 152 128 q 131 192 142 153 q 121 265 121 232 q 184 460 121 391 q 349 530 247 530 q 513 461 450 530 q 577 265 577 393 q 570 193 577 229 q 550 128 564 157 l 636 128 q 723 156 687 128 q 759 232 759 184 q 729 346 759 295 q 628 479 699 397 q 505 592 553 564 q 384 620 457 620 l 281 620 l 281 748 l 383 748 q 538 700 459 748 q 711 545 617 653 q 832 382 792 452 q 872 233 872 312 m 464 265 q 432 365 464 329 q 349 402 401 402 q 264 366 295 402 q 234 265 234 331 q 265 164 234 200 q 349 128 296 128 q 433 163 402 128 q 464 265 464 198 "},"Լ":{"x_min":102,"x_max":688,"ha":691,"o":"m 688 0 l 102 0 l 102 1010 l 236 1010 l 236 119 l 688 119 l 688 0 "},"ữ":{"x_min":87,"x_max":909,"ha":842,"o":"m 682 0 l 554 0 l 554 84 q 442 5 495 32 q 324 -21 389 -21 q 231 -4 275 -21 q 155 46 187 11 q 104 135 122 82 q 87 266 87 189 l 87 758 l 215 758 l 215 326 q 219 225 215 265 q 239 156 223 186 q 281 113 254 127 q 358 100 308 100 q 457 126 404 100 q 554 191 510 153 l 554 758 l 695 758 q 781 780 756 758 q 807 850 807 802 q 799 905 807 874 q 784 951 792 936 l 784 958 l 892 958 q 905 902 901 926 q 909 844 909 878 q 850 710 909 755 q 683 666 792 666 l 682 666 l 682 0 m 656 1106 q 605 947 649 1000 q 489 895 561 895 q 424 907 453 895 q 365 947 394 920 q 314 990 335 975 q 271 1005 292 1004 q 224 974 238 1005 q 209 892 211 943 l 114 892 q 165 1049 118 996 q 280 1103 212 1103 q 343 1089 314 1103 q 402 1050 373 1076 q 454 1010 431 1024 q 497 997 478 997 q 544 1027 529 997 q 561 1106 558 1057 l 656 1106 "},"ה":{"x_min":102,"x_max":853,"ha":951,"o":"m 102 860 q 246 873 154 867 q 425 880 338 880 q 636 855 554 880 q 765 781 718 830 q 833 655 814 731 q 853 474 853 579 l 853 0 l 736 0 l 736 470 q 720 595 736 542 q 668 682 704 649 q 572 731 632 715 q 423 747 513 747 q 245 738 337 747 q 108 726 153 730 l 102 726 l 102 860 m 219 517 l 219 0 l 102 0 l 102 517 l 219 517 "},"ʐ":{"x_min":33,"x_max":823,"ha":617,"o":"m 823 -277 q 723 -286 771 -286 q 529 -216 597 -286 q 461 -20 461 -146 l 461 0 l 33 0 l 33 94 l 429 653 l 49 653 l 49 758 l 582 758 l 582 667 l 183 107 l 589 107 l 589 0 q 612 -126 589 -92 q 747 -173 645 -173 q 815 -163 773 -173 l 823 -163 l 823 -277 "},"ﺓ":{"x_min":62,"x_max":591,"ha":654,"o":"m 591 273 q 516 66 591 141 q 320 -8 442 -8 q 136 71 211 -8 q 62 272 62 151 q 101 410 62 352 q 239 528 141 469 l 285 556 l 193 659 l 350 659 l 512 476 q 569 386 548 436 q 591 273 591 336 m 428 156 q 465 203 451 176 q 479 273 479 229 q 441 367 479 312 q 364 468 404 423 l 349 484 l 304 456 q 211 378 247 421 q 175 273 175 335 q 218 166 175 213 q 320 120 262 120 q 378 129 347 120 q 428 156 408 138 m 254 811 l 154 811 l 154 911 l 254 911 l 254 811 m 435 811 l 335 811 l 335 911 l 435 911 l 435 811 "},"ὂ":{"x_min":39,"x_max":715,"ha":754,"o":"m 715 378 q 622 83 715 187 q 377 -21 530 -21 q 129 86 219 -21 q 39 378 39 194 q 132 673 39 568 q 377 779 225 779 q 622 674 530 779 q 715 378 715 569 m 583 378 q 529 597 583 525 q 377 669 476 669 q 224 597 278 669 q 171 378 171 525 q 224 162 171 236 q 377 89 278 89 q 529 161 475 89 q 583 378 583 233 m 567 876 l 480 876 l 352 1137 l 505 1137 l 567 876 m 315 1018 q 280 906 315 956 q 186 838 244 852 l 186 913 q 250 1012 250 921 l 185 1012 l 185 1137 l 315 1137 l 315 1018 "},"ׄ":{"x_min":66,"x_max":168,"ha":0,"o":"m 117 1030 q 152 1014 137 1030 q 168 978 168 999 q 152 943 168 958 q 117 928 137 928 q 81 943 96 928 q 66 978 66 958 q 81 1014 66 999 q 117 1030 96 1030 "},"î":{"x_min":-37,"x_max":354,"ha":317,"o":"m 223 0 l 95 0 l 95 758 l 223 758 l 223 0 m 354 880 l 251 880 l 156 1058 l 62 880 l -37 880 l 81 1137 l 235 1137 l 354 880 "},"ύ":{"x_min":87,"x_max":686,"ha":773,"o":"m 686 272 q 608 51 686 124 q 386 -21 530 -21 q 165 50 244 -21 q 87 272 87 122 l 87 758 l 215 758 l 215 315 q 221 213 215 255 q 246 144 227 171 q 298 102 265 115 q 386 89 330 89 q 475 102 440 89 q 527 145 509 116 q 552 219 547 176 q 558 315 558 261 l 558 758 l 686 758 l 686 272 m 553 1144 l 425 884 l 338 884 l 400 1144 l 553 1144 "},"۞":{"x_min":33,"x_max":1475,"ha":1506,"o":"m 1475 508 l 1265 297 l 1265 -2 l 965 -2 l 753 -213 l 542 -2 l 244 -2 l 244 297 l 33 508 l 244 720 l 244 1020 l 542 1020 l 753 1231 l 965 1020 l 1265 1020 l 1265 720 l 1475 508 m 296 246 l 296 50 l 492 50 l 296 246 m 492 968 l 296 968 l 296 772 l 492 968 m 1213 772 l 1213 968 l 1016 968 l 1213 772 m 1213 50 l 1213 246 l 1016 50 l 1213 50 m 614 -2 l 753 -141 l 892 -2 l 614 -2 m 244 647 l 104 508 l 244 369 l 244 647 m 892 1020 l 753 1159 l 614 1020 l 892 1020 m 1213 699 l 944 968 l 564 968 l 296 699 l 296 318 l 564 50 l 944 50 l 1213 318 l 1213 699 m 1403 508 l 1265 647 l 1265 369 l 1403 508 m 902 508 q 858 403 902 447 q 754 360 815 360 q 649 403 693 360 q 606 508 606 447 q 649 613 606 570 q 754 657 693 657 q 858 613 815 657 q 902 508 902 570 m 850 508 q 821 576 850 548 q 753 605 793 605 q 684 576 712 605 q 656 508 656 548 q 684 440 656 468 q 753 412 712 412 q 821 440 793 412 q 850 508 850 468 "},"ϰ":{"x_min":3,"x_max":753,"ha":756,"o":"m 753 0 q 650 -14 701 -14 q 505 40 557 -14 q 454 189 454 95 l 454 383 l 147 0 l 3 0 l 193 236 l 193 564 q 88 674 193 674 q 9 653 44 674 l 3 653 l 3 760 q 105 775 54 775 q 250 720 198 775 q 302 572 302 665 l 302 371 l 612 758 l 753 758 l 563 520 l 563 196 q 667 87 563 87 q 746 107 711 87 l 753 107 l 753 0 "},"ڟ":{"x_min":-47,"x_max":901,"ha":936,"o":"m 901 276 q 874 169 901 219 q 795 81 848 118 q 665 22 743 44 q 480 0 587 0 l -47 0 l -47 128 l 112 128 q 126 134 118 128 q 143 149 134 140 q 160 169 153 160 q 168 187 168 177 l 168 1055 l 281 1055 l 281 323 q 457 486 360 420 q 633 553 553 553 q 823 477 745 553 q 901 276 901 401 m 788 274 q 741 384 788 340 q 631 428 694 428 q 541 396 590 428 q 441 316 492 364 q 352 222 395 274 q 281 128 308 170 l 399 128 q 538 134 457 128 q 663 154 618 140 q 754 198 720 170 q 788 274 788 226 m 459 721 l 359 721 l 359 821 l 459 821 l 459 721 m 659 721 l 559 721 l 559 821 l 659 821 l 659 721 m 559 862 l 459 862 l 459 962 l 559 962 l 559 862 "},"ڑ":{"x_min":0,"x_max":502,"ha":503,"o":"m 447 126 q 409 -82 446 -2 q 276 -217 371 -162 q 128 -274 194 -260 q 0 -288 61 -288 l 0 -160 q 97 -151 44 -160 q 208 -115 151 -143 q 303 -23 276 -79 q 330 104 330 33 q 307 223 330 162 q 245 341 284 283 l 245 350 l 376 350 q 424 242 402 301 q 447 126 447 183 m 502 665 q 442 575 502 605 q 333 553 396 553 l 138 553 l 138 615 l 193 615 q 208 631 208 625 l 208 971 l 264 971 l 264 701 q 392 778 334 778 q 471 746 440 778 q 502 665 502 714 m 445 663 q 429 700 445 685 q 392 716 414 716 q 271 615 343 716 l 303 615 q 445 663 445 615 "},"ɓ":{"x_min":92,"x_max":728,"ha":768,"o":"m 728 391 q 653 113 728 228 q 411 -21 565 -21 q 220 35 313 -21 l 211 0 l 92 0 l 92 782 q 346 1062 92 1062 q 478 1049 406 1062 l 478 933 l 471 933 q 365 951 422 951 q 250 915 284 951 q 220 784 220 882 l 220 678 q 451 779 331 779 q 669 652 597 779 q 728 391 728 549 m 596 381 q 421 658 596 658 q 220 571 320 658 l 220 137 q 387 94 308 94 q 596 381 596 94 "},"ﭽ":{"x_min":-47,"x_max":945,"ha":945,"o":"m 538 146 q 259 40 388 81 q 57 0 129 0 l -47 0 l -47 128 l 60 128 q 325 185 155 128 q 616 306 495 243 q 428 387 557 347 q 164 428 300 428 l 85 428 l 85 553 l 171 553 q 445 505 296 553 q 733 370 593 457 l 869 440 l 869 312 q 764 254 822 284 q 643 194 706 223 q 688 146 658 164 q 772 128 718 128 l 945 128 l 945 0 l 774 0 q 618 35 679 0 q 538 146 557 71 m 916 0 l 916 0 m 369 -145 l 269 -145 l 269 -45 l 369 -45 l 369 -145 m 569 -145 l 469 -145 l 469 -45 l 569 -45 l 569 -145 m 469 -286 l 369 -286 l 369 -186 l 469 -186 l 469 -286 "},"ﭞ":{"x_min":62,"x_max":1059,"ha":1121,"o":"m 560 120 q 736 135 661 120 q 860 183 811 151 q 926 253 906 214 q 946 340 946 292 q 938 402 946 361 q 928 460 931 442 l 928 467 l 1045 467 q 1053 406 1048 444 q 1059 331 1059 369 q 935 79 1059 167 q 559 -8 812 -8 q 185 80 309 -8 q 62 331 62 168 q 67 406 62 369 q 76 467 72 444 l 193 467 l 193 460 q 182 402 189 442 q 175 340 175 361 q 194 253 175 292 q 260 183 213 213 q 385 135 309 151 q 560 120 460 120 m 611 694 l 511 694 l 511 794 l 611 794 l 611 694 m 611 553 l 511 553 l 511 653 l 611 653 l 611 553 "},"ǫ":{"x_min":39,"x_max":715,"ha":754,"o":"m 715 378 q 635 98 715 204 q 379 -21 546 -21 l 378 -29 q 375 -72 375 -49 q 479 -182 375 -182 q 558 -162 523 -182 l 565 -162 l 565 -268 q 462 -283 513 -283 q 317 -228 369 -283 q 266 -79 266 -173 q 276 -8 266 -49 q 129 86 189 15 q 39 378 39 194 q 120 659 39 551 q 377 779 211 779 q 635 659 545 779 q 715 378 715 553 m 583 378 q 377 669 583 669 q 171 378 171 669 q 377 89 171 89 q 583 378 583 89 "},"₠":{"x_min":34,"x_max":767,"ha":801,"o":"m 767 0 l 338 0 l 338 336 q 105 436 185 337 q 34 677 34 525 q 111 926 34 833 q 342 1028 193 1028 q 555 969 449 1028 l 555 860 l 547 860 q 342 950 449 950 q 177 863 233 950 q 129 677 129 789 q 177 497 129 567 q 338 417 233 419 l 338 687 l 767 687 l 767 606 l 429 606 l 429 417 l 744 417 l 744 336 l 429 336 l 429 81 l 767 81 l 767 0 "},"ﯧ":{"x_min":-47,"x_max":299,"ha":389,"o":"m 299 307 q 230 81 299 162 q 41 0 161 0 l -47 0 l -47 128 l 45 128 q 150 177 114 128 q 186 315 186 226 l 186 486 l 299 486 l 299 307 m 206 -146 l 106 -146 l 106 -46 l 206 -46 l 206 -146 m 206 -287 l 106 -287 l 106 -187 l 206 -187 l 206 -287 "},"ﭷ":{"x_min":54,"x_max":973,"ha":973,"o":"m 973 0 l 905 0 q 747 49 795 0 q 700 213 700 99 l 700 381 q 476 359 576 378 q 309 304 377 340 q 203 210 240 267 q 167 75 167 153 q 244 -97 167 -31 q 444 -163 322 -163 q 610 -141 536 -163 q 739 -85 684 -120 l 746 -85 l 746 -221 q 620 -269 686 -251 q 445 -288 554 -288 q 291 -263 362 -288 q 167 -193 220 -239 q 84 -78 114 -146 q 54 76 54 -10 q 92 227 54 156 q 213 355 130 298 q 368 425 281 401 q 540 455 455 450 q 379 509 457 494 q 190 524 300 524 l 139 524 l 139 649 l 198 649 q 448 605 308 649 q 710 486 588 561 l 825 486 l 825 381 l 787 381 l 787 275 q 790 214 787 237 q 808 168 794 190 q 842 138 821 149 q 902 128 863 128 l 973 128 l 973 0 m 760 486 l 760 486 m 846 0 l 846 0 m 422 45 l 322 45 l 322 145 l 422 145 l 422 45 m 603 45 l 503 45 l 503 145 l 603 145 l 603 45 "},"Ξ":{"x_min":45,"x_max":742,"ha":787,"o":"m 742 891 l 45 891 l 45 1010 l 742 1010 l 742 891 m 708 495 l 79 495 l 79 614 l 708 614 l 708 495 m 742 0 l 45 0 l 45 119 l 742 119 l 742 0 "},"ٻ":{"x_min":62,"x_max":1059,"ha":1121,"o":"m 560 120 q 736 135 661 120 q 860 183 811 151 q 926 253 906 214 q 946 340 946 292 q 938 402 946 361 q 928 460 931 442 l 928 467 l 1045 467 q 1053 406 1048 444 q 1059 331 1059 369 q 935 79 1059 167 q 559 -8 812 -8 q 185 80 309 -8 q 62 331 62 168 q 67 406 62 369 q 76 467 72 444 l 193 467 l 193 460 q 182 402 189 442 q 175 340 175 361 q 194 253 175 292 q 260 183 213 213 q 385 135 309 151 q 560 120 460 120 m 611 -146 l 511 -146 l 511 -46 l 611 -46 l 611 -146 m 611 -287 l 511 -287 l 511 -187 l 611 -187 l 611 -287 "},"Ԃ":{"x_min":26,"x_max":1175,"ha":1262,"o":"m 1175 265 q 1092 65 1175 149 q 877 -21 1006 -21 q 627 100 718 -21 q 380 0 540 0 q 26 312 26 0 q 126 545 26 467 q 264 605 184 590 q 417 614 314 614 l 573 614 l 573 1010 l 707 1010 l 707 325 q 738 167 707 220 q 877 100 778 100 q 1015 167 975 100 q 1047 326 1047 220 l 1047 614 l 1175 614 l 1175 265 m 573 290 l 573 498 l 459 498 q 344 495 369 498 q 235 462 275 489 q 166 310 166 415 q 380 115 166 115 q 546 197 498 115 q 573 290 573 241 "},"ŵ":{"x_min":20,"x_max":1011,"ha":1031,"o":"m 1011 758 l 818 0 l 700 0 l 515 584 l 331 0 l 214 0 l 20 758 l 153 758 l 286 171 l 466 758 l 571 758 l 756 171 l 883 758 l 1011 758 m 751 880 l 643 880 l 517 1053 l 393 880 l 288 880 l 442 1137 l 596 1137 l 751 880 "},"ڤ":{"x_min":62,"x_max":1151,"ha":1209,"o":"m 1151 316 q 1105 157 1151 220 q 981 57 1060 93 q 797 7 904 23 q 559 -8 690 -8 q 185 80 309 -8 q 62 331 62 168 q 67 425 62 385 q 74 471 73 465 l 185 471 l 185 464 q 178 405 181 443 q 175 340 175 368 q 194 253 175 292 q 260 183 213 213 q 385 135 310 151 q 561 120 460 120 q 915 164 797 120 q 1034 304 1034 209 l 1034 312 q 989 295 1021 305 q 928 285 956 285 q 747 345 814 285 q 681 499 681 406 q 747 675 681 597 q 896 754 814 754 q 1081 635 1011 754 q 1151 316 1151 517 m 1025 439 q 1016 489 1025 458 q 991 553 1008 520 q 952 606 974 586 q 904 626 930 626 q 826 586 854 626 q 798 504 798 547 q 834 438 798 464 q 933 413 870 413 q 985 421 959 413 q 1025 439 1010 429 m 775 869 l 675 869 l 675 969 l 775 969 l 775 869 m 975 869 l 875 869 l 875 969 l 975 969 l 975 869 m 875 1010 l 775 1010 l 775 1110 l 875 1110 l 875 1010 "},"ᾚ":{"x_min":-1,"x_max":1140,"ha":1242,"o":"m 1140 0 l 1006 0 l 1006 495 l 540 495 l 540 0 l 406 0 l 406 1010 l 540 1010 l 540 614 l 1006 614 l 1006 1010 l 1140 1010 l 1140 0 m 381 876 l 294 876 l 166 1137 l 319 1137 l 381 876 m 129 1018 q 94 906 129 956 q 0 838 58 852 l 0 913 q 64 1012 64 921 l -1 1012 l -1 1137 l 129 1137 l 129 1018 m 843 -283 l 704 -283 l 737 -63 l 810 -63 l 843 -283 "},"№":{"x_min":102,"x_max":1493,"ha":1584,"o":"m 795 0 l 644 0 l 227 870 l 227 0 l 102 0 l 102 1010 l 292 1010 l 670 210 l 670 1010 l 795 1010 l 795 0 m 1493 698 q 1413 455 1493 544 q 1208 366 1334 366 q 1000 455 1077 366 q 923 698 923 544 q 1002 943 923 856 q 1208 1031 1081 1031 q 1414 943 1335 1031 q 1493 698 1493 856 m 1404 119 l 1012 119 l 1012 229 l 1404 229 l 1404 119 m 1371 698 q 1327 873 1371 817 q 1208 929 1283 929 q 1089 873 1133 929 q 1045 698 1045 817 q 1088 525 1045 583 q 1208 468 1131 468 q 1327 525 1284 468 q 1371 698 1371 583 "},"ẏ":{"x_min":4,"x_max":688,"ha":692,"o":"m 688 758 l 280 -279 l 143 -279 l 279 37 l 4 758 l 141 758 l 348 196 l 554 758 l 688 758 m 437 884 l 292 884 l 292 1016 l 437 1016 l 437 884 "},"ƫ":{"x_min":14,"x_max":463,"ha":465,"o":"m 463 -22 q 395 -217 463 -148 q 201 -286 327 -286 q 102 -277 153 -286 l 102 -163 l 109 -163 q 176 -173 151 -173 q 312 -121 280 -173 q 332 -60 327 -95 q 334 -15 334 -47 q 321 -15 327 -15 q 100 231 100 -15 l 100 652 l 14 652 l 14 758 l 100 758 l 100 976 l 228 976 l 228 758 l 463 758 l 463 652 l 228 652 l 228 291 q 245 143 228 179 q 352 96 269 96 q 455 120 403 96 l 463 120 l 463 -22 "},"ί":{"x_min":77,"x_max":242,"ha":317,"o":"m 223 0 l 95 0 l 95 758 l 223 758 l 223 0 m 242 1136 l 208 876 l 110 876 l 77 1136 l 242 1136 "},"ᶖ":{"x_min":87,"x_max":584,"ha":317,"o":"m 223 0 l 95 0 l 95 758 l 223 758 l 223 0 m 232 885 l 87 885 l 87 1017 l 232 1017 l 232 885 m 584 -277 q 484 -286 532 -286 q 290 -216 358 -286 q 223 -21 223 -147 l 223 87 l 351 87 l 351 -9 q 376 -121 351 -79 q 509 -173 408 -173 q 576 -163 534 -173 l 584 -163 l 584 -277 "},"5":{"x_min":84,"x_max":686,"ha":758,"o":"m 686 321 q 662 185 686 248 q 597 78 639 123 q 490 5 554 31 q 348 -21 427 -21 q 205 -5 276 -21 q 84 36 135 10 l 84 180 l 93 180 q 138 153 109 168 q 202 126 167 139 q 275 103 242 111 q 350 96 309 96 q 429 110 391 96 q 496 157 468 125 q 534 227 521 187 q 548 321 548 267 q 533 410 548 375 q 490 467 518 444 q 419 503 461 492 q 324 514 376 514 q 213 505 269 514 q 125 490 158 497 l 125 1010 l 680 1010 l 680 891 l 255 891 l 255 622 q 303 626 279 625 q 346 628 327 628 q 478 615 424 628 q 581 564 532 602 q 659 469 632 526 q 686 321 686 413 "},"̆":{"x_min":-224,"x_max":223,"ha":0,"o":"m 223 1109 q 208 1003 223 1050 q 168 922 194 955 q 98 868 137 886 q 0 851 60 851 q -97 869 -55 851 q -167 922 -139 888 q -209 1004 -195 956 q -224 1109 -224 1051 l -114 1109 q -85 977 -114 1017 q 0 937 -57 937 q 83 976 53 937 q 113 1109 113 1016 l 223 1109 "},"₩":{"x_min":-1,"x_max":1253,"ha":1253,"o":"m 1253 360 l 1072 360 l 981 0 l 829 0 l 741 360 l 509 360 l 423 0 l 275 0 l 183 360 l -1 360 l -1 457 l 158 457 l 133 554 l -1 554 l -1 651 l 108 651 l 17 1010 l 154 1010 l 241 651 l 473 651 l 559 1010 l 696 1010 l 783 651 l 1018 651 l 1103 1010 l 1235 1010 l 1145 651 l 1253 651 l 1253 554 l 1120 554 l 1096 457 l 1253 457 l 1253 360 m 994 554 l 806 554 l 830 457 l 971 457 l 994 554 m 670 651 l 624 838 l 579 651 l 670 651 m 948 360 l 853 360 l 901 162 l 948 360 m 717 457 l 694 554 l 556 554 l 533 457 l 717 457 m 450 554 l 265 554 l 288 457 l 427 457 l 450 554 m 403 360 l 312 360 l 358 170 l 403 360 "},"᷀":{"x_min":-132,"x_max":131,"ha":0,"o":"m -72 1012 l 103 854 l 71 821 l -104 978 l -72 1012 m 131 972 q 119 943 131 955 q 91 932 107 932 q 62 943 74 932 q 51 972 51 955 q 62 1000 51 988 q 91 1012 74 1012 q 119 1000 107 1012 q 131 972 131 988 m -52 861 q -63 832 -52 844 q -92 821 -75 821 q -120 832 -108 821 q -132 861 -132 844 q -120 889 -132 877 q -92 901 -108 901 q -63 889 -75 901 q -52 861 -52 877 "},"□":{"x_min":99,"x_max":739,"ha":839,"o":"m 99 640 l 739 640 l 739 0 l 99 0 l 99 640 m 151 588 l 151 52 l 687 52 l 687 588 l 151 588 "},"ῳ":{"x_min":43,"x_max":963,"ha":1006,"o":"m 963 339 q 947 209 963 279 q 901 93 931 139 q 820 10 869 41 q 696 -21 771 -21 q 582 12 633 -21 q 507 91 530 45 l 498 91 q 421 11 473 44 q 309 -21 370 -21 q 187 10 238 -21 q 104 93 135 41 q 58 205 73 142 q 43 339 43 269 q 83 560 43 463 q 205 758 124 657 l 357 758 l 357 746 q 221 568 269 668 q 173 339 173 468 q 179 256 173 300 q 200 174 185 213 q 245 113 216 138 q 317 88 273 88 q 401 113 371 88 q 440 168 431 139 l 440 566 l 566 566 l 566 168 q 580 142 570 159 q 602 115 590 126 q 635 95 617 102 q 688 88 653 88 q 761 113 732 88 q 805 174 790 138 q 826 253 820 211 q 833 339 833 295 q 784 569 833 468 q 649 746 735 671 l 649 758 l 800 758 q 921 563 880 658 q 963 339 963 468 m 573 -283 l 434 -283 l 467 -63 l 540 -63 l 573 -283 "},"ˬ":{"x_min":148,"x_max":611,"ha":758,"o":"m 611 -28 l 456 -285 l 302 -285 l 148 -28 l 255 -28 l 381 -201 l 505 -28 l 611 -28 "},"ﭨ":{"x_min":-47,"x_max":393,"ha":389,"o":"m 299 307 q 230 81 299 162 q 41 0 161 0 l -47 0 l -47 128 l 45 128 q 150 177 114 128 q 186 315 186 226 l 186 486 l 299 486 l 299 307 m 393 665 q 333 575 393 605 q 224 553 287 553 l 29 553 l 29 615 l 84 615 q 99 631 99 625 l 99 971 l 155 971 l 155 701 q 283 778 225 778 q 362 746 331 778 q 393 665 393 714 m 336 663 q 320 700 336 685 q 283 716 305 716 q 162 615 234 716 l 194 615 q 336 663 336 615 "},"Ӳ":{"x_min":-1,"x_max":808,"ha":799,"o":"m 808 1010 l 441 159 q 389 73 418 106 q 329 24 360 41 q 268 2 298 7 q 207 -3 238 -3 q 143 -1 180 -3 q 97 0 107 0 l 97 126 l 106 126 q 137 122 116 124 q 189 121 158 121 q 225 122 204 121 q 262 132 245 124 q 299 157 282 142 q 330 208 316 173 l 353 262 l -1 1010 l 147 1010 l 421 415 l 669 1010 l 808 1010 m 747 1390 l 572 1136 l 478 1136 l 592 1390 l 747 1390 m 473 1390 l 298 1136 l 204 1136 l 318 1390 l 473 1390 "},"͉":{"x_min":-128,"x_max":127,"ha":0,"o":"m 127 -285 l 39 -285 l 39 -118 l -128 -118 l -128 -30 l 127 -30 l 127 -285 "},"Ú":{"x_min":90,"x_max":821,"ha":911,"o":"m 455 -21 q 299 2 366 -21 q 186 71 233 25 q 111 198 133 124 q 90 379 90 272 l 90 1010 l 224 1010 l 224 380 q 232 262 224 310 q 267 176 241 214 q 341 115 294 136 q 455 94 387 94 q 567 115 518 94 q 643 176 616 136 q 677 262 668 215 q 687 376 687 308 l 687 1010 l 821 1010 l 821 379 q 799 199 821 274 q 724 71 778 124 q 612 2 676 25 q 455 -21 548 -21 m 676 1390 l 490 1136 l 390 1136 l 511 1390 l 676 1390 "}}}
